<?xml version="1.0" encoding="utf-8"?>
<svg version="1.1" xmlns="http://www.w3.org/2000/svg" xmlns:xlink="http://www.w3.org/1999/xlink" x="0px" y="0px"
	 viewBox="0 0 550.4 178.1" style="enable-background:new 0 0 550.4 178.1;" xml:space="preserve">
<g>
	<path d="M146.5,160.9c0.1,0.8-0.7,1.9,0.6,2.8c0.8,0.4,1.5-0.5,2.2-0.8c0.1-0.1,0.3,0,0.7-0.1c-0.6,1-0.2,1.8,0.2,2.7
		c0.3,0.7,0.5,0.7,1,0.2c0.4-0.5,0.8-0.2,1.2,0.1c1,0.7,1.6,0.3,1.9-0.8c0.1-0.7,0.4-1.4,1-2.1c0.7,1,0.3,2.5,1.7,2.8
		c0.5,0.2,1,0.3,1.3-0.2c1.2-1.7,3.1-2.4,4.8-3.2c3.1-1.3,6-3.2,9.3-4.2c2.8-0.9,3.5-0.5,4,2.3c0,0.4,0.1,0.8,0.2,1.2
		c-1.4,0.8-2.1,1.9-2.2,3.5c-0.1,1.3-0.4,2.6-0.9,3.8c-0.7,1.6-0.3,3.2-0.3,4.8s-1.4,2.9-0.9,4.9c1.5-1.4,2.6-2.9,3.3-4.9
		c0.6,0.7,0.5,2,1.8,1.1c0.6-0.3,1,0.5,1.3,1.1c0.9-0.7,1.8-1.4,2.7-2c2.1-1.4,3.3-3.5,3.3-5.9c0-1.3,1.5-1.6,1.1-3
		c-0.2-0.4,1.4-0.1,1.6-1c0.8,0.4,1.5,0,2.2-0.1c0.8-0.1,1.7,0,2,1.2c0.1,0.4,0.7,0.5,0.9-0.1c0.1-0.3,0.1-0.5,0.4-0.6
		c1.2-0.4,1.9-1.2,2-2.4c1.1,0.6,2.1,1.9,3.6,0.8c0.8-0.6,0-1.2,0-1.9c0.7,0.2,1.3,0,2,0.5c1.5,1.1,1.8,0.6,2.5-1.1
		c1.7-3.8,1.1-7.8,0.8-11.7c0-0.8,0.1-1.8-1.1-1.8c-1.1,0-1.9,0.5-2.4,1.5c-0.4,0.8-0.4,1.7,0,2.6c0.6,1.4,0.9,2.8,2.1,3.8
		c0.3,0.3,0.3,0.6,0.1,0.9c-0.3,0.4-0.7,0.5-1.1,0.1c-0.4-0.4-1-0.8-1.1-1.3c-0.4-1.9-2.2-3.1-2.5-5.2c-0.2-1.5-1.6-2.1-3.2-1.7
		c-0.5,0.1-0.9,0.6-1.5,0.4c-0.6-0.7-0.1-1.5,0-2.3c0.1-0.9-0.3-1.1-1.1-1.2c-1.2-0.2-1.9,0.8-2.7,1.4s-0.1,1.3,0.1,2
		c0.2,0.6,0.7,1.2,0.3,2c-0.9-0.2-1.2-1-1.7-1.6c-0.8-1-1.4,0.2-2.2,0.2c-0.1-1,0.9-1.6,1.1-2.6c-0.8-0.6-1.7-1.2-2.6-1.9
		c-1,1.7-3,2.4-4.5,3.6c-0.4,0.3-0.9,0.3-1.4,0.2c-0.6-0.1-1.1-0.3-1.2-1c0-0.6,0.4-0.8,0.9-1c0.3-0.1,0.6-0.2,1-0.3
		c-1.5-0.9-2.7-0.6-3.7,0.8c-0.2,0.2-0.4,0.4-0.7,0.6c-0.5,0.3-1.1,0.5-1.6,0s-0.2-1,0-1.4c0.4-0.8,0.6-1.5,1.1-2.2
		c0.7-1.1,0.3-2-1.4-3.4c-1-0.8-1.9-0.8-2.8,0.1c-1.7,1.6-2.8,1.6-4.5-0.2c-0.7-0.8-2.6-0.5-3.6,0.6c-0.4,0.5-0.7,0.6-1,0.1
		c-0.6-1.1-1.2-2.3-1.6-3.4c-0.5-1.5,0.1-3.3,1.3-4.5c1.3-1.5,2.4-3,3.3-4.8c1.3-2.7,3.7-4.3,5.9-6.1c1.9-1.7,3.8-3.4,5.7-5
		c2.8-2.4,5.4-5,8.3-7.2c1.6-1.2,3.7-1.6,5.2-3.1c0.3-0.3,0.7-0.4,0.9-0.8c1.3-3.2,4.4-3.7,7.5-4.8c-1,2.5-1.4,4.7-2.4,6.9
		c-1.2,2.6-1.6,5.6-0.6,8.5c0.5,1.3,0.8,2.8,1.8,3.9c1-0.2,1.4-1.1,1.8-1.7c2.1-3.2,4.1-6.4,5.1-10.2c0.2-0.9,0.7-1.4,1.2-2.1
		c1.4-1.8,2.4-3.7,1-6c-0.2-0.2-0.3-0.6-0.3-0.9c0-0.5,0.2-0.8,0.6-1s0.9,0,1,0.4c0.4,1.3,0.8,2.7,1.2,4c0.4,1.4-0.3,2.4-1,3.6
		c-2.1,3.6-4.1,7.2-6,10.9c-0.9,1.7-2.2,3.1-3,4.8c-0.6,1.4-0.8,2.6,0.2,3.9c0.9,1.3,1.6,2.7,2.4,4c0,0.2,0,0.3,0,0.4
		c1,2,1.6,4.3,3.4,5.9c0.1,0,0.2,0.1,0.3,0.1c2.4,2.5,4,5.5,5.6,8.5c2.5,4.6,4.9,9.4,7.6,13.9c0.5,0.8,0.9,1.7,1.8,2.2
		c0.2,0.1,0.5,0.2,0.7,0.1c0.4-0.1,0.5-0.4,0.3-0.8c0-0.1-0.1-0.1-0.1-0.2c-0.3-0.8-0.6-1.7,0.4-2.1c1-0.4,1.6,0.1,2.1,0.9
		c0.4,0,0.9,0.1,1.1-0.3c0.3-0.7,0.5-1.3,0.4-2.1c-0.2-1.9-0.2-1.8,1.6-1.6c1.5,0.2,2.8,1.2,4.3,1.5c1.1-2.3,1.1-2.3-0.6-3.6
		c-0.1-0.1-0.3-0.2-0.4-0.3c-0.9-0.7-2.6-1.1-2.5-2.1c0.1-1.3,1.9-0.7,2.8-1.4c0.4-0.3,0.9-0.4,1.3-0.7c1.8-1.4,1.9-1.4,3.6,0
		c1.3,1,2.5,2.1,3.7,3.2c0.7,0.6,1,1.4,1,2.4c-0.1,2.5,0.1,2.8,2.4,3.6c0.5,0.2,1.1,0.5,1.9,0.2c-0.7-1-2.1-1.9-0.5-3.3
		c0.9,0.9,2.5,1,2.9,2.6c0.2,0.5,0.7,0.9,1.4,0.8c0.3,0,0.7-0.1,0.9,0c1.9,1.7,2.9,0.3,3.9-1c0.2-0.2,0.4-0.5,0.7-0.6
		c0.4-0.3,0.8-0.1,1.1,0.2c0.4,0.4,0.3,0.8,0,1.1c-0.6,0.6-1.1,1.2-1.9,1.9c0.8,0.1,1.3-0.2,1.6-0.6c1.1-1.7,2.7-1.8,4.5-1.4
		c2.2,0.5,4.5,0.2,6.5-0.4c3.5-1.1,6.7-1,10,0.4c0.5,0.2,1.1,0.3,1.6,0.5c-0.3,1.1-0.5,2.1-1.9,2.2c0.2,0.7,0.7,0.9,1.4,0.5
		c0.9-0.5,1.6-0.4,2,0.6c1.4,0.1,2.1,1.4,3.3,2.1c0.7-1.7,2.1-2.3,3.8-2.7c0.9-0.2,2.2-0.1,2.4-1.6c0.1-0.6,0.8-0.3,1.2-0.1
		c0.5,0.2,0.9,0.5,1.4,0.1c0.6-0.6,0.1-1-0.2-1.5c-0.2-0.2-0.2-0.4-0.3-0.8c1.1-0.3,2.1-0.2,3.1-0.6c1.1-0.4,1.5,0.1,1.1,1.2
		c-0.3,0.9-1,1.9-0.1,2.5c0.9,0.7,1.9-0.3,2.7-0.7c0.5-0.3,0.8-1,1.3-1.1c2.7-0.8,2.6-2.7,2.2-5s-1-4.5-2-6.5
		c-0.7-1.5-1.2-2.9-1.4-4.4c-0.5-4.3-1.9-8.2-3.4-12.2c-1.2-3.4-2.8-6.9-3.1-10.7c0-0.4-0.2-0.7,0.3-1c0.8,0.4,0.8,1.1,1,1.8
		c1.4,5.5,3.2,10.8,5.3,16c0.5,1.3,0.7,2.8,1.1,4.2c0.8,3.4,1.8,6.8,3.2,10c0.7,1.6,0.9,3.4,1.1,5.2c0.2,1.2,0.7,1.9,1.9,2.2
		c1.3,0.3,2.5,0.8,3.7,1.3c0.3,0.1,0.6,0.3,0.5,0.7c-0.2,0.4-0.5,0.5-0.8,0.5c-0.6,0.1-1-0.1-1.4-0.4c-1.2-1-2.7-1-4.1-1.3
		c-1.1-0.2-2.2,0-2.6,1c-0.6,1.5-1.8,1.6-3.1,1.9c-0.9,0.2-2.1,0-2.6,1.2c0.6,0.6,1.1,0.3,1.5,0.1c1.2-0.5,2.4-0.5,3.4,0.5
		c0.7,0.6,1.3,0.5,1.9-0.2c0.3-0.3,0.8-0.7,1-0.6c2.1,1,4-1,6.1-0.3c0.6,0.2,1-0.1,1.3-0.7c1.1-2.1,1.8-2.3,3.9-1.4
		c0.7,0.3,1.4,0.4,2.1,0.1c1-0.4,2-0.7,3.1-0.6c0.9,0.1,1.1-0.4,0.8-1.2c-0.3-0.8-0.6-1.7-1-2.8c1.5,0.5,2.9,0.5,3.9-0.9
		c0.5-0.7,1.7-0.4,2.5-0.7c0.1,0.2,0.3,0.5,0.5,0.7c1.4,1.4,1.7,1.3,2.6-0.4c1.1-2,3.4-2.9,5.4-2.2c0.7,0.2,0.9,0.7,0.4,1.3
		c-0.2,0.3-0.4,0.5-0.7,0.7c-1.4,0.9-1.8,2.4-1.6,4c1.3,0.7,2.8,0.7,4,1.5c1,0.6,2,0,2.7-0.5c0.9-0.6,1.4-0.4,2,0.2
		c0.2,0.2,0.4,0.4,0.6,0.5c2.8,2.2,5.3,2.4,8.3,0.6c2.6-1.6,3.6-5.4,2.2-8.2c-0.6-1.1-1.2-2.1-1.3-3.4c0-0.4,0.1-0.9,0.5-1.1
		c0.5-0.2,0.7,0.2,0.9,0.6c1.1,2.3,2.2,4.7,3.3,7c0.5,1,0.4,2.2,0.4,3.3c-0.1,0.8-0.5,1.7,0.6,2.1c0.8,0.4,2.3-0.2,2.7-1.2
		c0.2-0.6,0.4-0.5,0.8-0.4c2.1,0.4,4.1,1.1,6,2c0.5,0.2,1,0.5,0.8,1.1c-0.1,0.4-0.6,0.4-1,0.5c-1.5,0.5-3.1,0.6-5,0.5
		c0.5,1.4,1.5,1.9,2.6,2c0.9,0.1,1.8,0,2.7-0.1c0.3,0,0.7-0.2,0.7-0.5c0.1-1.2,0.9-1.8,2-2.1c0.7-0.3,0.9-0.9,1-1.6
		c0.1-1,0.3-1.9,0.4-3c1.1,0.8,0.5,2.1,1.1,3c0.6-0.2,0.5-0.6,0.6-1c0.2-0.4,0.4-0.8,0.8-0.8c0.6,0,0.4,0.5,0.5,0.9s0.4,0.6,0.7,0.4
		c1-0.7,2.4-0.6,3.2-1.7c0.6-0.8,1.5-1.1,2.4-0.6c2.2,1.2,4,0.6,5.3-1.4c0.5,0.1,0.5,0.4,0.6,0.7c1.4,2.8,3.6,3.8,6.3,2.2
		c1.9-1.2,3.8-1.6,5.9-1.1c1.9,0.5,3.9-0.4,5.7,0.7c0.5,0.3,1.1-0.2,1.5-0.6c1-1.5,2.1-1.6,4.1-0.6c0.3-0.5-0.1-1-0.1-1.6
		c-0.1-0.5,0.2-0.9,0.7-1.1c0.7-0.3,1.9-0.1,1.8-1.5c0-0.3,0.6-0.3,0.9-0.2c0.4,0.1,0.8,0.3,1.2,0.4c1.6,0.4,3.1,0.8,4.4-0.6
		c0.1-0.2,0.6-0.2,0.9,0c0.3,0.7-0.5,0.7-0.7,1.1c-0.2,0.3-0.3,0.6-0.1,0.9c0.5,0.5,0.7,0,0.9-0.3c0.2-0.2,0.6-0.3,0.6-0.1
		c0.5,2.1,2.8,1.3,4,2.4c0.7,0.7,0.8,0.5,1.1,2.1c0.6-0.5,1-1,1.7-1.3c0.5-0.2,0.7-0.7,0.4-1.2c-0.6-0.9-0.3-1.7,0.4-2.1
		c0.9-0.5,1.6,0.2,2.1,1c0.7-0.6,0.8-1.6,1.6-2.1c2.4,1.7,3.1,1.6,4.3-1c0.6,1.6,0.9,3.1,2.5,3.9c0.2-0.2,0.4-0.6,0.7-0.8
		c0.7-0.5,1.3-0.9,2.2,0.1c1,1.1,1.6,0.7,2.1-1.1c1,1.2,2.1,1.8,3.4,2.4c1.5,0.7,2,0.3,2.4-1.4c0.1-0.5,0.3-0.9,0.7-1
		c0.6-0.3,0.6,0.2,0.7,0.6c0.2,0.8,0.8,0.7,1.4,0.7s1.3,0,1.9,0.2c0.9,0.3,0,0.7-0.1,1.2c2.8,0.6,5.6,0.2,8.4-0.1
		c2.9-0.3,5.7,0.1,8.5,0.2c1.2,0,2.5,0.6,3.6,1.3c1.4,0.8,2.9,1.1,4.5,0.9c1.7-0.2,2.8-2,2.3-3.6c-0.2-0.7-0.4-1.5-0.9-2
		c-1.6-1.5-1.9-3.7-3.5-5.5c2-0.5,3.8-1.3,5.4,0.5c0.6,0.7,1.6,1.1,2.6,1.3c3.9,0.9,6.5,3.6,8.6,6.8c1.4,2.2,1.6,2.3,4.1,1.8
		c1.3-0.3,2.6,0.4,3.8-0.4c0.3-0.5-0.1-0.7-0.4-1c-0.4-0.5-0.7-1.1-0.1-1.5c0.4-0.3,0.9,0.1,1.3,0.3c0.2,0.1,0.5,0.3,0.5,0.5
		c0.2,1.8,2,1.1,3,1.6c-0.1-0.6-0.2-1.2-0.3-1.8c-1.1-6.5-0.4-12.7,3.8-17.3c-0.1-0.1-0.2-0.2-0.2-0.3c-0.3-0.8,0.5-0.9,1-1.1
		c0.4-0.1,0.8-0.2,1.1-0.4c0.3-0.3,0.7-0.6,1.1-0.9c0.5-0.3,0.9-0.6,1.4-0.7c0.4-0.3,0.7-0.5,1-0.8c0.9-0.8,1.8-1.5,2.7-2.4
		c1.3-1.3,1.7-3,1.8-4.7c0-1.3,0.3-2.5,0.5-3.8c0.4-2.1,0.2-4.2-1-5.9c-2.2-3.4-2.4-7.2-2.4-11c0-3.1-0.7-6.2-1.2-9.2
		c-0.1-0.5-0.4-1-0.9-1.1c-2.2-0.3-2.6-2.5-4.1-3.5c-0.5-0.3-0.6-1.1-0.5-1.8c0.1-1.6,0.3-3.2,1.3-4.6c0.5-0.7,0.8-1.6,1.2-2.4
		c-1.7,0-4.8,0.9-6.1,1.8c-0.4,0.3-0.8,0.7-1.2,0.9c-1.3,0.7-2.6,0.2-2.6-1.3c0.1-1.9-1-2.7-2.3-3.4c-4.9-2.8-9.8-5.5-14.7-8.3
		c-4.8-2.7-8.8-6.2-10.2-11.8c-0.9-3.4-1.1-6.8-0.5-10.2c0.8-4,1.6-7.9,2.3-11.8c0.3-2,0.7-4,0.9-6c0.2-1.7,0.8-3.1,1.6-4.6
		c2.1-3.9,5.1-6.9,8.6-9.5c2.6-1.9,5.6-3,8.7-3.8c3-0.8,5.8-2.1,8.8-3c1.3-0.4,1.5-1.3,0.8-2.5s-1.8-1.6-3.1-1.6
		c-2.3-0.1-4.6,0.1-6.8,0.6c-0.5,0.1-0.9,0.3-1.4,0.4c-2.9,0.6-4.1-0.2-4.7-3.1c-0.1-0.7-0.2-1.5-0.3-2.2c-0.1-0.4-0.3-1-0.9-1
		c-0.5-0.1-0.9,0.1-1.2,0.6c-0.5,0.6-0.7,1.4-0.9,2.2c-0.3,1-0.6,2.1-1,3c-0.7,1.4-2.2,1.5-3.1,0.2c-0.7-0.9-1-2.1-1.1-3.2
		c-0.1-1.2-0.1-2.4-0.4-3.6c-0.2-1-0.4-2.3-1.7-2.3c-1.3,0-1.5,1.3-1.5,2.4c-0.3,2.8-0.7,5.7-0.2,8.5c0.6,3.3-0.1,6.1-1.6,8.9
		c-0.8,1.4-1.6,2.8-2.5,4.2c-1,1.5-2.1,1.6-3.4,0.3c-0.2-0.3-0.4-0.5-0.6-0.8c-2.2-4.1-4.1-8.3-4.3-13.1c-0.1-1.5,0-3.1,0.4-4.6
		c0.1-0.7,0.2-1.5,0.2-2.2c0-0.6,0-1.4-1.4-1.6c-0.7-0.1-1.4,0.5-1.5,1.1c-0.2,2-1.3,3.3-2.9,4.3c-0.2,0.2-0.3,0.5-0.4,0.8
		c-0.7,3.5-0.4,6.8,0.9,10.2c1.6,3.9,3.3,7.8,5.7,11.3c1.5,2.1,1.9,4.4,2.1,6.9c0.4,4.6-0.7,9.2-1,13.8c-0.3,3.2-0.6,6.3-0.2,9.5
		c0.4,3.5,1.8,6.6,3.5,9.6c0.4,0.7,1.1,1.3,0.7,2.2c-0.7,0.1-0.9-0.4-1.1-0.8c-1.3-2.6-4-2.5-6.3-3c-0.7-0.2-1.1,0.4-1,1.1
		c0.1,1.1,0.8,1.7,1.7,2.2c1.6,0.9,3.1,1.8,4.8,2.4c5.7,1.9,10.6,5.4,15.8,8.2c1.6,0.8,3,1.9,4.8,2.4c0.4,0.1,0.8,0.3,0.8,0.8
		s-0.3,0.9-0.8,1c-0.3,0-0.7,0-1,0.1c-2.1,0.3-2.5,0.8-1.6,2.9c0.7,1.6,1.2,3.5,3.1,4.4c-0.3,0.1-0.6,0.2-0.9,0.2
		c-5.8-0.2-11.7,1-17.5,0.4c-7.7-0.8-15.2-2-22.1-5.7c-3.3-1.8-6.9-2.8-10.7-2.8c-1.1,0-1.4,0.3-0.9,1.4c0.5,1,0.5,2,0.5,3.1
		c0,0.5-0.2,0.9-0.8,1c-0.4-0.3-0.3-0.7-0.3-1.1c-0.1-2-0.7-2.7-2.6-2.7c-1.8-0.1-1.8-0.1-1.6-1.7c0.3-1.5,0.7-3,0.6-4.6
		c-0.1-0.7,0.3-1.2,1-1.4c0.4-0.1,0.7-0.4,1-0.7c0.5-0.5,0.5-1.2,0.2-1.8c-0.4-0.8-1-0.7-1.7-0.6c-0.5,0.1-1.1,0.3-1.6,0.5
		c-0.8,0.2-1.5,0.2-2.2,0c-1.1-0.3-1.3-1.1-1.3-2.1s0.7-1.2,1.4-1.4c0.8-0.3,1.6,0.1,2.3,0.5c2.3,1.1,4.3,0.5,6.1-1
		c1.9-1.6,2.4-3.7,2.1-6c-0.2-1-0.8-1.7-1.8-1.8c-1.2-0.1-1.3,0.8-1.5,1.6c-0.3,1-0.5,2-0.9,3c-0.2,0.5-0.8,0.9-1.4,0.6
		s-0.4-0.9-0.2-1.3c0.5-1.1,0.7-2.1,0.8-3.3c0.1-1,0.7-1.6,1.4-2.2c1-0.9,0.9-1.9,0.3-2.9c-0.3-0.5-0.9-0.9-1.6-0.9
		c-0.8,0.1-1.1,0.6-1.3,1.3c-0.4,1.3-0.8,2.5-1.1,3.8c-0.5,2.3-1.8,3.9-4,4.8c-0.8,0.3-1.5,0.7-2.2,1.1c-2.4,1.2-4.9,0.1-5.5-2.5
		c-0.1-0.8-0.3-1.6-0.6-2.3c-0.3-0.7-0.9-1-1.7-1.2c-0.4-0.1-0.8-0.1-1,0.3c-0.1,0.2-0.1,0.8,0,0.9c2.2,1.7,1.3,4,1.2,6.1
		c0,0.1,0,0.2,0.1,0.3c0.6,0.4,1.3-0.2,2-0.2c0.9-0.1,1.5,0,2,0.9c1.1,1.8,1,2.4-0.9,3.4c-1.6,0.8-3.6,0.8-4.9,2.4
		c-0.3,0.4-0.9,0.1-1.4,0c-0.8-0.2-1.5-0.3-2.1,0.3c-1.1,1-1.8,0.4-2.4-0.5c-0.5-0.8-1-1.5-1.6-2.2c-0.8-0.8-1.5-0.7-1.8,0.4
		c0,0.2-0.1,0.5-0.1,0.7c-0.3,2.7-0.6,3.1-3.2,3.3c-1.7,0.1-3.4,0.5-5.1,0.2c-0.2-0.3-0.1-0.5,0-0.7c1.3-2,1.4-2.5-0.6-3.7
		c-2.4-1.5-4.1-3.7-5.9-5.7c-4.2-4.7-8.2-9.7-12.3-14.5c-4.9-5.7-6-12.3-5.2-19.5c0.3-2.7,0.7-5.3,0.9-8c0.2-3,1.3-5.7,1.8-8.6
		c0.1-0.9,0.6-1.5,1.3-2c1.1-0.8,1.9-1.9,2.7-3.1c0.5-0.7,0.6-1.5,0.1-2.3c-0.6-0.8-1.5-1-2.4-0.9c-1,0.2-1.8,0.7-2.6,1.3
		c-0.9,0.9-1.9,1.7-2.9,2.6c-1.4,1.3-3,1.6-4.7,0.7c-0.4-0.2-0.7-0.4-1.1-0.5c-1.4-0.3-2.5,0.6-2.4,2c0.1,0.5,0.2,1,0.4,1.4
		c2.5,5.5,3.2,11.2,2.8,17.2c-0.5,5.5,0.2,10.9,2.2,16.1s5.4,9.4,9.3,13.3c2.3,2.3,4.4,4.7,6.4,7.7c-1.3,0.1-2-0.4-2.6-0.8
		c-5.7-3.3-11.4-6.6-17-10.1c-7.6-4.8-15.4-9.4-22.6-14.9c-5.7-4.4-11.6-8.5-17.1-13.1c-0.9-0.7-1.8-1.5-2.8-2
		c-3.5-1.9-6.8-4.3-10.4-6.3c-4.7-2.5-9.6-3.4-14.8-3.3c-1.5,0.1-2.7,0.8-3.7,1.8c-0.8,0.8-0.6,1.5,0.5,1.7c2,0.4,4.1,0.5,6,1.2
		c0.2,0,0.4,0.1,0.8,0.3c-0.7,1.3-2,1.4-3.1,1.7c-1.1,0.4-2.4,0.5-3.5,1c-0.4,0.2-1,0.4-1.4,0.2c-1.6-0.6-2.9,0.1-4.2,0.8
		c-0.9,0.5-1.9,1-2.9,1.2c-1,0.1-1.7,0.5-1.9,1.5s1.2,0.6,1.4,1.6c-1.8,0.3-4,0-4.5,2.7c-1.1-0.9-2.5-1.2-1.5-2.9
		c0.4-0.6-0.1-0.9-0.6-1.1s-1.2-0.2-1.6,0.2c-1.3,1.2-3.1,0.9-4.4,1.7c-0.6-0.3-0.2-0.7-0.2-1.1c0.1-0.9-0.3-1.3-1.1-1.1
		c-1.7,0.5-3.1,0.2-4.5-1c-0.9-0.8-2,0-3,0.2c-1.4,0.3-2.6,1.1-4,0.2c-0.2-0.1-0.7,0-0.7,0.1c-0.3,1.2-1.1,1.1-2,0.8
		c-0.3-0.1-0.7,0.1-0.7,0.5s0.4,0.5,0.7,0.5c1.2,0,2.3,0.1,3.4-0.3c1.4-0.5,2.7-0.2,4.1,0.1c0.4,0.1,0.7,0.2,0.7,0.6
		c0.1,0.3-0.2,0.5-0.5,0.7c-0.7,0.4-1.3,0.6-2.1,0.3c-2-0.8-3.9-0.7-5.7,0.8c-0.9,0.8-1.9,0.4-2.7-0.6c-0.7-0.9-0.8-2.1,0.2-2.8
		c0.6-0.4,0.9-0.8,1-1.5c0.1-0.5,0.1-0.8-0.4-1c-0.4-0.1-0.9-0.1-1.1,0.3c-0.9,1.9-2.2,2.2-4,1.4c-0.2-0.1-0.5-0.2-0.7-0.1
		c-2,1.3-4.1-0.2-6.1,0.1c-0.6,0.1-0.9-0.3-1.2-0.9c-0.7-1.6-2.3-2.1-3.9-1.2c-0.7,0.4-1.2,0.9-1.8,1.3c-0.4,0.3-0.9,0.7-1.4,0.9
		c-0.7,0.3-1.4,0.2-2-0.4c-0.7-0.7,0.2-1.1,0.4-1.9c-1.2-0.3-2.3-0.2-3.3,0.3c-1.2,0.6-2.4,0.6-3.5,0.1c-1.3-0.6-2.5-0.6-3.8-0.4
		c-0.7,0.1-1.6,0.2-2.2,0c-2.2-0.8-3.5,0.3-4.3,2c-0.7,1.6-1.8,2.3-3.4,3c-1.5,0.6-3,1.6-4.5,2.4c-0.5,0.3-1,0.6-1.6,0.5
		c-1.9-0.4-3.5,0.3-5,1.3c-0.3,0.2-0.6,0.3-0.9,0c-0.2-0.3-0.3-0.9,0-1.1c1.2-0.7,1.9-1.9,2.4-3.2c0.2-0.7,1.1-0.7,1.7-0.7
		c1.3-0.1,2.4-0.6,3.3-1.7c-1-0.8-1.9-0.4-2.8-0.1c-1.5,0.5-2.9,1.2-4.7,0.4c-0.9-0.3-2.5,0.4-3.6,1c-1.4,0.8-3,1.2-4.5,1.8
		c-1.2,0.6-2.6-0.2-3.9-0.2c-0.4,0-0.8-0.3-0.8-0.8s0.3-0.9,0.8-1.1c0.4-0.2,0.9-0.4,1.2-0.2c2.7,1.9,4.5-0.2,6.5-1.3
		c0.2-0.1,0.4-0.3,0.8-0.6c-2.4-0.5-4.5-0.7-6.6-0.3c-0.4,0.1-1,0.2-1.1,0.4c-0.6,1.5-1.9,1.3-3.1,1.3c-1.5,0.1-2.9,0.6-3.9,1.7
		c-1.3,1.4-2.8,2.7-3.5,4.6c-0.3,1-1.2,1.8-2,2.4c-1.6,1.1-2.5,2.7-3.6,4.2c-0.6,0.9-1.2,1.9-0.1,3c0.5,0.5,0.3,0.9-0.2,1.2
		c-1.3,0.8-1.5,2-1.8,3.3c-0.4,1.3-0.2,2.3,0.6,3.4c0.6,0.9,0.6,2.2,1.1,3.2c0.2,0.4,0.3,0.9,0,1.2c-0.9,1.1-1.6,2.1-0.3,3.4
		c0.1,0,0.1,0.3,0,0.4c-2.3,3.6-0.6,7.1,0.1,10.6c0.2,0.9,0.3,1.8,0.4,2.7c0.1,1.5-0.3,2.8-1.3,4c-0.3,0.3-0.5,0.8-0.5,1.4
		c0.8,0.3,0.8-0.9,1.5-0.8c0.1,0.1,0.2,0.3,0.2,0.4c-0.3,0.9,0.9,1.5,0.4,2.3s-1.4,0.5-2.2,0.5c-0.3,0-0.6,0.2-0.8,0.5
		c-0.9,1.4-2.2,2.7-1.8,4.6c0.2,0.8-0.4,1.3-0.8,1.9c-1.6,2.5-3.2,4.9-3.7,7.9v-0.1c-0.6,1.1-0.8,2.3-1.1,3.5
		c-0.2,1.2-0.6,2.2-2.1,2.3c-0.3,0-0.6,0.1-0.7,0.3c-2.5,2.9-6.1,4.3-8.9,6.8c-1,0.9-1.5,1.9-1.3,3.2c1.1,7.8,0.3,15.6-1.2,23.3
		c-1.1,5.8-2.2,11.7-3.3,17.5C146.6,160.6,146.5,160.8,146.5,160.9L146.5,160.9z M334.6,140.2c0.3-0.6,0.6-1.1,0.8-1.6
		C335.2,139.1,334.9,139.6,334.6,140.2z M323.9,152.2c1.5-2.5,3.5-4.5,5-6.9c0.7-1.2,2.2-1.3,3.3-2.1c-1.5,1.5-3.2,2.9-4.6,4.4
		C326.3,149,325,150.5,323.9,152.2z"/>
	<path d="M487.6,94.8c-0.1,0-0.1-0.1,0-0.2l0,0C487.6,94.7,487.6,94.8,487.6,94.8C487.7,94.8,487.6,94.8,487.6,94.8L487.6,94.8z"/>
	<path d="M335.6,138.2c0,0.1-0.1,0.1-0.1,0.2c0-0.1,0.1-0.2,0.1-0.3C335.6,138.1,335.6,138.2,335.6,138.2z"/>
	<path d="M118.3,148.2c-0.4,0.6-0.9,1.5-1.4,3.1c-0.6,2.4,0,3.2,0.3,6.6c0.1,1.7-0.9,3-1.5,4.4c-0.1,0.3-0.3,0.8-0.6,0.6
		c-0.8-0.5-1.7-0.4-2.5-0.8c-0.6-0.3-0.8-1.1-0.8-1.9c0-1.5-0.1-3-0.1-4.6c-0.2-7-3.2-9.9-9.1-11.2c-2.1-0.4-4-1.1-5.9-2.1
		s-3.8-2-5.7-2.9c-1.2-0.6-3.4,0.2-3.4,1.3c0.1,1.6-0.7,1.2-1.6,1.1c-1.5-0.3-2.8-0.1-4.2,0.7c-1.7,0.9-3.3,2.3-5.6,1.5
		c-0.4-0.2-1.3-0.1-1.3,0.7c0.1,0.9-0.4,1.6-0.2,2.6c0.7,3.1,1.3,6.3,1.9,9.5c0.1,0.9-0.1,1.2-0.9,1.4c-2.5,0.5-5,0.6-7.5,0.7
		c-0.4,0-0.9-0.1-1-0.5c-0.4-1.5-1.4-1.6-2.9-1.2c2-1.6,1.2-3.1,0.4-4.7c-1-2-2-3.9-2.5-6.1c-0.5-2.2-1.9-4-3.4-5.6
		c-0.7-0.7-1.6-1.4-2.6-1.1s-1.9,0-2.7,0.1c-0.2,0.3-0.2,0.6-0.1,0.8c1.3,1.4,1.2,3.1,0.7,4.8c-0.3,0.8-0.5,1.7-0.4,2.6
		c0.1,1.3-0.7,3,1.1,3.9c0.3,0.2,0.3,0.4,0.1,0.6c-0.8,0.9-0.1,1.6,0.3,2.4c0.8,1.5,1.5,3.1,2.3,4.6c0.2,0.3,0.4,0.7,0.1,1.1
		c-0.4,0.4-0.9,0.2-1.3-0.1c-3.6-2.3-7.1-4.8-8.4-9.1c-1.6-5.3-5.5-8.5-9.9-11.3c-0.9-0.6-2-1.1-3.2-0.6c0.2,0.9,1,1.1,1.6,1.5
		c0.3,0.2,0.8,0.4,0.6,0.9c-0.1,0.4-0.6,0.4-1,0.5c-0.3,0-0.7,0-1,0c-1.9-0.2-3.9-0.3-5.8-0.7c-1.3-0.3-2,0.1-2.8,1.2
		c-1.5,2-2.2,4.2-1.5,6.8c0.6,2,0.4,2-1.3,3.2c-1.5,1-3.3,1.4-4.6,2.7c-0.8,0.8-1.5,0.4-1.9-0.8c-1.5-4.5-2.9-9.1-4.3-13.7
		c-1.8-6-1.1-7.7-2.6-9.4c-1.2-1.4-2.8-1.2-4.7-3.1c0,0-1.6-1.6-2.6-4c-3.6-8.4-2.3-38.5-2.9-46.1c-0.3-3.4,0.8-6.9,0-10.2
		c0-0.1-0.2-1.1,0.2-1.5c0.2-0.3,0.6-0.3,1.2-0.2c0.1,0,0.2-0.2,0.3-0.3c0.1-0.9-1-1-1.2-1.9c1.8,0,3.4-0.2,5.1,0.1
		c0.5,0.1,1.1,0,1.1,0.7c0,0.6-0.9,0.3-1.1,0.9c1,0,2,0,2.9,0c-1.8,0.5-3.5,1.3-5.3,1.2c-0.4,0-0.9,0-1,0.5s0.3,0.7,0.6,1
		c1.5,1.3,3.2,1.7,5,0.7c0.8-0.4,1.5-0.7,2.3-0.4c1.6,0.7,3.1,0.6,4.6-0.4c0.7-0.4,2.1-0.8,2.5,0c0.6,1.4,1.5,1.1,2.4,0.9
		c0.6,1.1-0.4,1.6-0.7,2.5c1.6,0.2,3.1,0.3,4.5,0.5c0.1-0.5-0.3-0.6-0.5-0.8c-0.4-0.5-0.8-1-0.4-1.7c0.5-0.7,1.2-0.5,1.8-0.3
		c0.4,0,0.7,0.1,1,0.2c4.4,0.7,7.2,4.4,10.9,6.3c0.9,0.4,1.1,1.4,1.7,2c1.1,1.1,2.2,2.7,4.1,1.2c0.4-0.3,0.8,0.2,1.1,0.4
		c2.8,2.4,6.3,2.9,9.7,3.8c6.2,1.6,12.5,2.6,18.7,3.9c1.2,0.2,2.4,0.5,3.4,1.2c1.7,1.2,1.9,1.6,1.2,3.6c-0.4,1-0.2,1.9,0.6,2.6
		c0.9,0.7,1.7,1.7,3.2,1c-0.5-0.8-1-1.3-1.2-2c-0.2-0.8,0.9-1.1,1.1-1.8s0.3-1.5,0.7-2.1c0.8-1.4,0.1-1.8-1-2.1
		c-0.9-0.2-1.9-0.4-2.8-0.7c-0.4-0.1-0.6-0.6-0.4-1c0.1-0.3,0.5-0.5,0.8-0.4c0.5,0.1,0.9,0.3,1.4,0.5c2.4,0.9,4.7,2,6.7,3.5
		c1.1,0.8,2.3,1.2,3.6,1.5c0.7,0.1,1-0.3,0.8-1c-0.1-0.4-0.4-0.7-0.5-1.1c-0.1-0.5,0-0.9,0.4-1.1c0.6-0.2,0.6,0.4,0.7,0.7
		c0.2,0.4,0.4,0.8,0.9,0.7c0.3-0.1,0.5-0.4,0.6-0.7c0.5-1.2,0.6-2.5,0.1-3.8c-1.2-3.5-2.7-7-4.4-10.3c-2.1-4.2-4.4-8.2-6-12.6
		c-0.7-1.8-0.9-3.5-0.7-5.3c0.4-4.9,1.8-9.6,3-14.3c0.3-1.2,0.9-2.4,1.5-3.6c1.2-2.2,2.9-2.9,5.3-2.3c0.4,0.1,0.8,0.6,1.3,0
		c0-1.2-1.7-1.3-1.7-2.5s0.3-2.3,0.4-3.4c0-0.5-0.1-1,0-1.5c0.9-3-0.1-5.3-2.2-7.3c-2.5-2.3-3.2-5.4-4.2-8.4c-0.3-0.9-0.1-1.7,1-1.8
		c1.6-0.2,2.3-1.1,2.8-2.4c0.3-0.9,0.8-2,2-1.6c1,0.4,0.3,1.4,0.3,2.2c-0.1,0.4-0.1,0.8-0.2,1.2c-0.5,2,0,4,0.9,5.9
		c1.6,3.7,4.5,4.1,7.1,1c0.1-0.1,0.2-0.3,0.3-0.4c2.8-3.1,5.8-6.1,8.9-9c0.4-0.4,0.9-0.7,1.4-1c0.7-0.4,1.4-0.6,2.1-0.1
		c0.8,0.5,0.7,1.4,0.6,2.2s-0.6,1.3-1.1,1.9c-2.9,3.6-5.7,7.3-9.1,10.5c-1.5,1.4-2.6,3.1-3.2,5.1C96,33,94.2,38.7,92.1,44.2
		c-0.9,2.1-0.7,4.2,0.2,6.2c1.2,2.9,0.7,5.4-1.5,7.8c-1.9-1.5-2-4.1-3.9-5.8c-1.5,2.6-1.8,5.1-1,7.7c1,3.2,2.2,6.4,4,9.2
		c2.4,3.9,4.3,8,6.1,12.2c0.8,2,2.1,2.8,4,3c1.6,0.2,3.2,0,4.8-0.5c2-0.6,4.1-1.2,6.1-1.8c0.9-0.2,1.8-0.4,2.5-0.9
		c2-1.6,3.8-1.7,5.5,0.5c0.5-2.3,0.9-2.5,4.1-2.4c-0.2-1.1-1-1.4-1.9-1.4c-0.6,0-1.3,0.1-1.9,0.4c-1.3,0.6-2.4,0.3-3.5-0.4
		c-6-4.2-12.5-7.5-18.2-12.2c-0.6-0.5-1.2-0.9-2-0.6c-0.4,0.8-0.2,1.6-0.1,2.4c0.3,3.2,1.3,6.1,2.8,8.8c1,1.7,1.6,3.5,2.2,5.4
		c0.3,1-0.1,1.5-1.2,1.3c-1.5-0.2-2.7-0.9-3-2.5c-0.2-1.1-0.7-2-1.1-3c-1.2-2.8-2.6-5.3-4-7.9c-0.5-0.9-0.7-1.9-0.7-3
		c-0.1-3.3,1.4-6.2,2.3-9.2c0.5-1.8,1.4-3.4,2.5-5c1.6-2.3,3.6-4.4,4.9-6.9c0.7-1.3,1.9-2.4,2.9-3.6c0.6-0.7,1.5-1.1,2.4-0.5
		c1.1,0.7,0.8,1.6,0.4,2.6c-0.1,0.3-0.2,0.5-0.3,0.7c-2.8,3.6-5.2,7.5-7.8,11.2c-0.8,1.1-0.6,1.6,0.2,2.4c4.4,4.5,9.9,7.7,15.1,11.1
		c3.2,2.1,6.6,3.8,9.9,5.8c1.5,0.9,1.5,1.2,1,2.9c-0.2,0.4-0.3,0.9-0.3,1.4s0.1,1.1,0.8,1.3c0.6,0.1,0.9-0.4,1.1-0.8
		c0.7-1.2,1.5-2.4,2.1-3.8c0.5-1.1,0.5-2.2,0.1-3.3c-0.8-2.2-1.6-4.4-2.4-6.6c-1-2.5-1-5.1-1.1-7.7c-0.1-0.8,0.3-1.8,1.2-1.9
		c0.8-0.1,1.1,0.6,1.2,1.3c0.6,4,2.5,7.5,3.6,11.2c1.1,3.6,3.3,5.2,7.1,5c2.3-0.2,4.7-0.4,6.9-1.3c0.6-0.2,1.3-0.3,1.9-0.4
		c0.4-0.1,0.7,0,1,0.4s0.1,0.8-0.2,1.1c-0.7,0.6-1.5,1.2-2.3,1.8c-0.4,0.3-1.1,0.3-1,1.5c5.5,1.3,11.2,0.8,17.1,1.6
		c-1.2,1.1-2.2,2.1-3.3,2.9c-0.8,0.6-1.7,1.3-2.9,1.1c-2.3-0.4-4.5-0.2-6.8-0.1c-1,0.1-2,0.1-2.9-0.3c-1.2-0.4-2.2-1.1-3.5-0.2
		c-0.3,0.2-1-0.1-1.4-0.3c-1.2-0.5-1.8-1.6-2.1-2.8c-0.2-0.6-0.3-1.3-1.1-1.4c-2.2-0.3-4.4-0.5-6.2,1.3c-0.8,0.8-0.8,1.6,0.3,2
		c1.3,0.4,2.6,1.1,4,1.2c2,0.1,3.9,0.8,5.6,1.7c3.4,1.8,7.2,2.1,10.9,2.4c3,0.2,5.2-1.7,7.4-3.3c2.7-2,4.9-4.6,6.7-7.4
		c0.5-0.8,1-1.9,2.2-1.5c1.1,0.3,1.5,1.2,1.4,2.3c0,0.8,0.2,1.3,0.9,1.9s0.8,1.7,0.3,2.5c-1.3,2.2-1.3,2.2-1.6,4.1
		c-0.1,0.6-0.3,1.2-0.7,1.8c-1.3,2.1-2.7,4-4.7,5.5c-1,0.8-1.3,1.8-0.7,3c0.4,0.8,0.6,1.6,0.6,2.4c0.1,1.9-1.1,3-3,2.8
		c-1.1-0.1-2.2-0.4-3.1-1.2c-0.7-0.6-1.4-1.1-2.2-1.5c-2.8-1.6-4.9-0.9-6.1,2c0,0-0.1,0.1-0.1,0.2c-0.3,0.9,0,1.3,0.9,1.1
		c0.3,0,0.6-0.2,0.9-0.3c0.3-0.1,0.6,0,0.6,0.3c0.1,0.2,0,0.5-0.1,0.7s-0.4,0.3-0.6,0.4c-1,0.7-1.2,1.5-0.6,2.5
		c1.3,2.2,2.7,4.3,3.5,6.7c0.4,1,0.4,1.7-0.6,2.2c-3.3,1.6-3.6,4.2-3.1,7.4c0.4,2.4,0.7,5,0.2,7.5c-0.3,1.4-0.6,1.6-1.9,0.9
		c-1.6-1-3.2-2-4.4-3.5c-1.7-2-3.8-3.5-6-4.9c-1.6-1-3.5-1.7-4.9-3.1c-0.9-0.9-2.3-0.8-3.5-1c-0.9-0.2-1.2,0.9-1.8,1.4
		c-0.9,0.8-1.8,1.6-2.9,1.9c-0.1,0.7,0.2,1.1,0.4,1.6c0.8,2.2,0.3,4.1-1.5,5.7c-0.5,0.3-0.8,0.8-1.3,1.1c-4,2.5-7.1,3.4-10.3,0
		c-0.7-0.7-1.5-1.3-2.4-1.7c-2.7-1-5.4-2-8-3.1c-1.1-0.5-2.1-0.2-2.9,0.6c-0.5,0.5-1.1,1-0.9,1.9s1,0.6,1.6,0.7
		c0.5,0.1,1,0.6,1.4,0.5c1.2-0.3,1.7,2,3.2,0.9c0.3-0.3,0.6,0.4,0.5,0.8c-0.6,2.2,0,4.5,0.1,6.7c0.6,0.4,1.3,0.4,1.9,0.4
		c3.4,0.1,5.9,2.1,8.4,4c1,0.8,1.9,1.9,2.1,3.2C116.9,145.3,117.7,146.7,118.3,148.2L118.3,148.2z"/>
	<path d="M548.5,28.1c-1.3,0-2.3,0.7-3.2,0.1c-0.6-0.2-1,0-1.4,0.3c-1.2,0.8-2.3,1.5-3.4,2.4c-4.4,3.6-7.1,8.5-10.1,13.1
		c-0.6,1-0.8,2.2-1,3.4s-2,1.2-2.9,2.3c-3,3.9-5.8,7.9-8.3,12.1c-1.1,1.9-2,4.1-3.3,5.9c-1.5,2.1-2.2,4.1-2.2,6.5
		c-0.1,2.9-0.2,2.9-2.7,1.8c-0.2-0.1-0.3-0.2-0.5-0.2c-1.4-0.4-1.9-0.1-2.5,1.2c-0.4,1.1-0.8,2.2-1.2,3.3c-0.8-0.1-1.2-0.6-1.6-0.9
		c-1.1-0.9-2.2-1.7-3.7-1.8c-3.2-0.1-6-1.3-8.9-2.4c-0.6-0.2-1.1-0.6-1.6-1s-1-0.9-0.6-1.7c0.3-0.6,0.9-0.9,1.6-0.8
		c0.4,0,0.8,0.1,1.2,0.2c2.6,0.6,5.2,1.1,7.8,1.8c2.8,0.7,7.1-1.7,7.7-4.8c0.5-2.6,1.4-5.3,2.9-7.5c1.9-2.8,3.9-5.5,5.9-8.1
		c2.7-3.6,5.1-7.4,7.4-11.2c0.3-0.6,0.9-1.2,0.5-1.8c-1.5-2.8-2.8-5.9-5.5-7.9c-0.6-0.4-1.3-0.8-2-0.9c-3.8-0.7-7.4-1.9-11.1-2.8
		c-1-0.3-1.9-0.6-2.8-0.9c-1.2-0.5-1.8-1.6-1.4-2.5c0.6-1.2,1.5-0.7,2.3-0.4c1.6,0.7,3.3,0.9,5,1c3.6,0.3,7.1,0.7,10.6,1.6
		c1.9,0.5,3.6,1.4,4.8,3.1c0.9,1.3,1.8,2.5,2.5,3.9c0.3,0.7,0.8,1,1.3,0.4c1.4-1.7,3.1-3.2,2.3-5.8c-0.5-1.4-0.8-2.9-1-4.3
		c-0.6-4.1-2.6-7.5-5.6-10.3c-0.7-0.6-1.3-1.2-1.9-1.9c-0.5-0.7-1.2-1.4-0.5-2.4c0.6-0.8,1.7-0.9,2.9-0.2c0.3,0.1,0.5,0.3,0.8,0.5
		c4.5,3.4,7.8,7.6,8.8,13.3c0.2,1.2,0.9,1.7,2,1.7c1.5,0,2.9-0.3,3.8-1.9c0.1,2,0.4,2.2,1.7,1.6c0.7-0.3,1.2-0.7,1.7-1.3
		c0.4-0.5,0.5-0.9,0.2-1.4c-0.3-0.4-0.6-0.6-1.2-0.4c-0.3,0.1-0.6,0.3-0.9,0.1c-0.8-3.7-1.6-7.4-3-11c-0.3-0.8-1-1.7,0.1-2.4
		c1-0.7,1.8,0.1,2.6,0.7c0.3,0.3,0.4,0.7,0.7,1c1.2,1.1,1.5,2.8,2.3,4.2c2.6-1.6,2.7-1.6,4,0.6c-0.8,0.7-2.2,1.1-2,2.7
		c0.7,0,1-0.4,1.4-0.7c0.7-0.4,1.3-1,2.2-0.4c1,0.7,1.2,1.6,1,2.6c-0.3,1.2-0.7,2.3-1.5,3.3c-0.8,1.1-1.6,2.2-2.4,3.3
		C547,27,548.2,26.8,548.5,28.1L548.5,28.1z"/>
	<path d="M118.4,148.1L118.4,148.1c0.4-0.6,0.6-1.4,0.8-1.9c0.3-2,0.7-3.9,1-5.8c0.2-1.1,0.5-2.1,1.5-2.7c0.9-0.6,1.4-0.4,1.4,0.8
		c0,0.7,0.2,1.1,0.8,1.3c0.5,0.2,0.9-0.2,1.2-0.6c0.2-0.4,0.5-0.6,0.7-1c1.3-2.4,3.7-2.2,5.9-3c0,1-1,1.4-0.8,2.2
		c0.4,0.3,1,0.3,1.1,0c0.9-1.8,3.4-2.5,3.1-5.2c1.1,0.7,1.7,1.4,1.8,2.3c0.1,0.9,0.6,1.1,1.4,1.3c1.4,0.4,2.4,0,3.1-1.2
		c1.2-2,3.4-2.3,5.3-3.2c0.4-0.2,0.8,0,1,0.5c-0.1,0.5-0.9,0.7-0.8,1.4c0.1,0.9,0.8,0.6,1.3,0.8s0.6,0.7,0.5,1.2
		c-0.2,2-0.2,4.2-1.2,6.1l-0.2-0.2l0.2,0.1c0.2,2.1-0.5,4.1-0.9,6.2c-0.7,4.1-1.1,8.2-2.1,12.2c-0.6,2.1-2.1,2.9-4.2,2.4
		c-0.5-0.1-1.1-0.2-1.6-0.4c-0.7-0.3-1.2-0.1-1.8,0.3c-1,0.7-2.2,2.2-3-0.3c-0.1-0.1-0.6-0.1-0.9-0.2c-0.9-0.3-1.4,0.6-2.1,0.8
		c-0.8-0.3-0.7-1.4-1.5-1.8c-0.1,0.8-0.3,1.5-0.4,2.1c-0.1,0.4-0.2,0.7-0.6,0.7c-0.7,0-0.4-0.5-0.4-0.9c0-0.8-0.7-0.8-1.2-1
		c-1.4-0.7-3-1.1-3.6-2.9c0-0.2-0.3-0.4-0.5-0.4c-1.3,0-1.6-1-1.9-1.9c-0.8-2.1-2-4.1-1.9-6.5C118.9,149.2,118.6,148.6,118.4,148.1
		L118.4,148.1z"/>
	<path d="M140.6,68.3c0.1,0.8,0.2,1.5,0,2.3c0.2,1.7,0.1,1.9-1.5,2.1c-0.6,0.1-1.3,0.1-1.9,0c-1-0.2-0.7-1.1-0.8-1.8
		c0-0.7,0.4-0.7,1-0.6c1,0.2,1.2-0.5,1.3-1.3c0.1-0.7-0.2-1.3-0.3-1.9c-0.4-1.5-1.1-3-0.8-4.5c0.6-2.7,1-5.6,3.2-7.7
		c0.6-0.5,0.9-1.3,1.4-2c2.9-4.4,5.6-9,9.6-12.8c4.6-4.4,8.2-9.7,12.7-14.2c1.8-1.9,1.7-4.2,0-6.4c-2-2.8-4-5.6-6.4-8
		c-0.6-0.5-1-1.2-1-2.1c0-1.1,0.8-1.6,1.8-1.1c0.6,0.3,1.2,0.6,1.7,1c3.5,2.8,6.6,6,8.6,10.1c0.2,0.4,0.6,1.1,1,0.7
		c1.5-1.2,3.6-2,3.8-4.2c0.2-1.7,0.4-3.4,0.2-5.1c-0.2-2.4-0.6-4.8-1.1-7.2c-0.1-0.6-0.2-1.1-0.2-1.7c0-0.5,0.4-0.9,0.9-1
		c0.4-0.1,0.9,0.1,1.1,0.4c0.3,0.4,0.6,0.8,0.7,1.3c0.4,1.3,0.8,2.5,1,3.8c0.3,1.9,1.4,3.2,2.7,4.5c0.4,0.4,0.7,0.3,1.2,0
		c2.3-1.8,3.7-4.2,4.1-7.2c0.2-0.8,0.2-1.5,0.4-2.2c0.3-1.1,1.1-1.4,2.1-1.3c1.1,0.1,1.8,1.1,1.7,2.6c-0.3,3.8-1.2,7.4-4,10.2
		s-5.7,5.8-8.8,8.4c-5.4,4.5-10.1,9.7-14.4,15.2c-1.5,1.8-3,3.7-4.8,5.2c-3.6,2.9-6.2,6.6-8.6,10.5c-1.6,2.6-2.9,5.5-5.1,7.7
		C140.6,62.3,139.6,65.1,140.6,68.3L140.6,68.3z"/>
	<path d="M394.6,68.3c0.3-0.2,0.3-0.5,0-0.9c-1.7-2.5-2.1-5.4-3-8.2c-1.9-5.7-2.8-11.4-1.7-17.5c0.6-3.3,0.9-6.8-1.6-9.8
		c-1.2-1.4-0.7-2.1,1.3-2c1.6,0.1,2.9-0.3,3.7-1.8c0.3-0.7,0.5-1.5,0.6-2.3c0.1-1.1,0.1-2.3,0.3-3.4c0.3-1.6,1-2.2,2.5-1.7
		c1.9,0.5,3.6,0.7,5.5,0c1-0.4,2,0.2,2.6,1c0.7,0.9,0.3,1.8-0.3,2.5c-2.8,3.2-4.5,6.9-6,10.8c-1.8,4.6-3.1,9.4-3,14.3
		c0.1,7,1.4,13.9,4,20.5c0.5,1.2,0.9,2.4,1.5,3.6c0.4,0.6,1.2,1.7-0.5,2.2c-0.6,0.2-0.4,0.9,0,1.4c0.4,0.6,1.4,0.5,1.6,1.4
		c-0.5,0.3-1.2,0.7-1.7,0.2c-1.9-1.9-4.5-3-6-5.3c-0.4-0.5-0.8-1-1.3-1.4c-3.2-2.8-5.4-6.5-8.5-9.4c-0.6-0.7-0.7-1.4-0.1-2.2
		c0.6-0.6,1.7-0.5,2.4,0.2c0.1,0.2,0.3,0.4,0.4,0.6c1.7,2.7,4.3,4.7,6.5,6.9C394,68.3,394.3,68.4,394.6,68.3L394.6,68.3z"/>
	<path d="M205.2,139.8c0.8-0.1,0.9,0.2,0.9,0.5c1.4,2.9,3.3,5.4,4.8,8.2c1.7,3.1,3.3,6.2,4.7,9.4c1.1,2.4,0,4.4-2.4,5.2
		c-1.9,0.6-3.6-1.2-4.6-2.8c-0.2-0.3,0.4-1.1-0.5-1c-0.6,0-1.5,0-1.5,1.1c0,0.6-0.1,1.2-1,1.2c-0.5-3-0.1-6.1,0.2-9.1
		c0.2-2,0.3-3.9-0.3-5.8c-0.1-0.6-0.5-1.3-0.1-1.9C206.4,143.2,205.9,141.6,205.2,139.8L205.2,139.8z"/>
	<path d="M367.3,49.8c0.2,0.4,0,0.9-0.1,1.4c-0.9,2.8-2.3,5.4-3.6,8c-0.5,0.9-1.2,1.3-2.2,0.6c-0.4-0.3-0.8-0.6-1.2-0.8
		c-0.9-0.4-1-0.9-0.5-1.7c0.9-1.4,1.8-2.9,2.4-4.5c1.2-3.4,2.7-6.6,4.5-10.3C367,45.3,366.7,47.6,367.3,49.8z"/>
	<path d="M124.7,55c0.9-1.3,1.6-1.8,2.8-1c0.9,0.5,1.7,1,2.5,1.8c1.1,1,1.5,2.5,3,3.1c0.6,0.3,0.6,1.2,0.5,1.8
		c-0.1,0.8-1.1,1.4-1.6,0.8c-1.3-1.3-3.2-2.1-3.8-4C127.5,56,126.8,54.7,124.7,55L124.7,55z"/>
	<path d="M200.3,128.9L200.3,128.9c1.3,2.1,2.6,4.2,3.8,6.5l-0.1-0.1c0.1,0.8,0.8,1.4,0.6,2.2c-0.4,0.2-0.6,0.2-0.8,0
		c-2.4-2.3-2.9-5.6-4.3-8.4C199.4,128.9,200,128.9,200.3,128.9L200.3,128.9z"/>
	<path d="M373.8,14.1c-0.7,0.6-1.3,1.3-2,2c-0.2,0.2-0.7,0.5-1,0c-0.4-0.7-0.7-1.5-0.3-2.3s1.1-0.9,1.9-0.6
		C372.8,13.3,373.3,13.4,373.8,14.1L373.8,14.1z"/>
	<path d="M363.5,20.4c-0.8-0.4-1.3-1-1.7-1.6c-0.3-0.5-0.2-1.1,0.3-1.5c0.4-0.4,0.8-0.7,1.3-0.4c0.6,0.3,0.3,0.9,0.2,1.3
		C363.4,18.9,363.9,19.6,363.5,20.4L363.5,20.4z"/>
	<path d="M419.7,75.8c0.4-0.2,1-0.2,1.3,0.2c0.3,0.5-0.2,0.9-0.6,1.1c-0.8,0.4-1.6,0.7-3,0.6C418.3,76.8,418.9,76.2,419.7,75.8z"/>
	<path d="M176.8,138.6c0,0.2-0.1,0.3-0.1,0.4c-0.7-0.1-1.4-0.2-2.1-0.3c-0.4,0-0.9-0.1-0.6-0.7c0.2-0.4,0.6-0.7,1-0.5
		C175.6,137.8,176.2,138.2,176.8,138.6L176.8,138.6z"/>
	<path d="M182.1,141.4c-0.1-0.3,0.1-0.5,0.4-0.5c0.4-0.1,0.7,0.1,0.8,0.4c0,0.3-0.1,0.5-0.4,0.5
		C182.5,141.9,182.3,141.7,182.1,141.4L182.1,141.4z"/>
	<path d="M277.4,160.3c-0.2,0.6-0.3,1.3-1.4,1.3C276.2,160.7,276.9,160.6,277.4,160.3L277.4,160.3z"/>
	<path d="M276.1,34.4c0.2,0,0.4,0.1,0.5,0.4c0,0.3-0.2,0.5-0.4,0.5c-0.3,0-0.5-0.1-0.5-0.4S275.9,34.5,276.1,34.4L276.1,34.4z"/>
	<path d="M222.4,157.9c0.1,0.4,0.1,0.8-0.5,0.8c-0.3,0-0.6-0.3-0.4-0.6c0.2-0.5,0.6-0.3,1-0.1L222.4,157.9L222.4,157.9z"/>
	<path d="M273.9,159.2L273.9,159.2c-0.4,0-1,0.3-1.5-0.2C273,158.4,273.4,159.1,273.9,159.2L273.9,159.2z"/>
	<path d="M178.8,142.1c-0.2,0-0.3-0.1-0.3-0.3l0.1-0.1c0.2,0,0.3,0.1,0.3,0.3L178.8,142.1L178.8,142.1z"/>
	<path d="M178.5,175.4c-0.3,0-0.5,0.2-0.7,0.4c-0.1,0.1-0.3,0.2-0.4,0.2c0,0-0.1-0.1-0.1-0.2c0-0.3,0.3-0.4,0.5-0.4
		S178.3,175.4,178.5,175.4C178.5,175.4,178.5,175.3,178.5,175.4z"/>
	<path class="whiteFillSVG" d="M415.1,135c-2.1-0.6-3.6-2-4.7-3.9c-1-1.7-2.2-2.8-4-3.4c-3.9-1.5-7.4-3.8-10.9-6.1c-0.9-0.7-1.8-1.7-3.2-1.3
		c-0.4,0.1-0.9-0.2-0.8-0.6c0.6-1.6-0.3-2.2-1.4-3.3c-2.2-2.1-4.5-3.5-7.4-4.2c-0.3-0.1-0.7-0.2-0.6-0.5c0.5-1.2-0.4-1.1-1-1.4
		c-0.9-0.5-2.2-0.6-2.6-1.8c-1.3,0.2-2.3-0.5-3.4-1c-0.2-0.2-0.7-0.2-0.9,0c-1.2,1.2-2.1,0.3-3.2-0.2c-1-0.5-2.2-1.1-3,0.3
		c-0.9,1.4-2,1.3-3.2,0.8c-2-0.8-3.1-2.4-4.2-4.2c-0.8-1.2-1.2-1.3-2.6-0.6c-1.1,0.6-1.3,1-0.7,2.4c0.2,0.4,0.4,0.7,0.6,1.1
		c1.1,2.1,0.9,2.5-1.4,2.6c-0.8,0.1-1.6,0-2.4,0c-2.2-0.1-4.5-0.4-6.8,0.1c-2,0.4-4-1-4.3-3c-0.3-1.5-1-2.1-2.4-2.3
		c-1.3-0.2-2.4-0.8-3.4-1.7c-0.7-0.7-0.8-1.5-0.1-2.2c0.7-0.7,1.7-0.7,2.5-0.9c0.7-0.2,0.8,0.6,1.2,1c1.5,1.3,2.9,3,5.3,1.9
		c1.4-0.6,2.3-0.5,3.6,0.3c1.5,1,3.5,1.7,5.2,0.7c1.9-1.2,4.3-1,6-2.5c0.4-0.3,1.1-0.1,1.7,0c2.8,0.5,5.4,1.2,7.8,3
		c2.8,2.1,6.4,2.6,9.7,3.7c0.6,0.2,1.2,0.4,1.8,0.7c5.2,2.7,9.8,6.3,14.2,10.2c3.6,3.3,7.3,6.2,11.5,8.6
		C410.8,129.1,413.4,131.6,415.1,135L415.1,135z"/>
	<path class="whiteFillSVG" d="M489.8,140.9L489.8,140.9c1.7,2.5,2,2.5,4.8,1.5c1.2-0.4,2-1,2.5-2.1c0.8-1.6,3.1-2.1,3.1-4.3
		c0,0,0.1-0.1,0.2-0.1c0.4-0.2,0.9-0.5,0.7-1.1c-0.2-0.5-0.7-0.5-1.2-0.6c-0.4,0-0.7,0-1-0.1c-0.5-0.2-1-0.4-0.8-1
		c0.1-0.4,0.6-0.5,1-0.3c0.7,0.3,1.4,0.4,2.2,0.3c0.7-0.2,1.2-0.3,1.1-1.4c-0.1-1.4,0.7-2.8,1.5-4c0.3-0.4,0.9-1,1.4-0.6
		c1,0.8,1.7,0.6,2.4-0.4c0.3-0.4,0.9-0.5,1.4-0.4c1.2,0.1,2.3-0.2,3.3-0.8c0.3-0.2,0.8-0.4,1.1,0c0.4,0.5,0.1,1-0.3,1.3
		c-1.3,1-2.6,2-3.7,3.2c-1.8,1.9-4.2,3.5-3.7,6.6c-2.1-0.3-2.2-0.3-2.8,1.5c-0.3,0.9-0.9,1.2-1.6,1.3c-1.8,0.3-3,1.4-3.9,2.7
		c-0.6,0.9-1.3,1.3-2.3,1.4c0.3,0.7,0.8,0.5,1.1,0.6c0.9,0.3,1,1.1,0.8,1.8c-0.3,0.8-1,0.4-1.5,0.3c-0.8-0.1-1.5-0.4-2.3-0.7
		c-1-0.4-2-1-3.2-0.9c0.4,3,1.7,4.2,4.4,4.1c0.9,0,1.8-0.3,2.7-0.4c0.6-0.1,1,0.3,1.1,0.8c0.1,0.4-0.1,1-0.4,1
		c-1.3,0-2.5,1.2-3.7,0.8c-1.4-0.4-2.7-0.1-4.3,0c0.8-1.6,0.2-2.7-0.5-3.8c-1.1-1.7-1.2-3.7-1.6-5.6c-0.2-1.2,0.4-1.4,1.6-0.8
		C489.5,140.8,489.7,140.8,489.8,140.9L489.8,140.9z"/>
	<path class="whiteFillSVG" d="M323.3,152.9L323.3,152.9c-0.2-0.9,0.2-1.7,0.5-2.2c1-2.2,2.7-3.9,3.9-5.9c0.6-1,1.2-2.2,2.8-1.8
		c0.5,0.1,1-0.5,1.4-0.9c0.7-0.9,1.4-1.7,1.9-2.6c2.8-5.4,4.7-11.1,5.6-17.1c0.2-1.5,0.3-2.9-0.7-4.2c-0.3-0.4-0.6-1.1-0.2-1.9
		c1.3,0.8,2.1,2,2.6,3.4c0.8,1.8,0.2,3.5-0.2,5.4c-1.3,5.3-3.4,10.5-5.2,15.7c-0.2,0.5-0.5,1-0.9,1.4c-3.2,3.1-6.4,6.2-9.5,9.4
		C324.7,152.2,324.1,152.6,323.3,152.9L323.3,152.9z"/>
	<path class="whiteFillSVG" d="M412.1,85.8c4.2-1.2,8.7-1.4,12.8-2.9c0.6-0.2,1,0.2,0.8,0.8c-0.6,1.7-0.9,3.4-2,4.9c-1.1,1.6-2.5,2.2-4.2,1.7
		c-2.7-0.8-5.5-1.7-7.6-4.1C412.1,85.9,412.1,85.8,412.1,85.8z"/>
	<path class="whiteFillSVG" d="M343.6,147.1c0-0.8-0.7-1-0.7-1.4c-0.5-1.6,0-3.7,1-4.2c3.1-1.7,3.2-1.7,4.1,1.8c0,0.2,0.1,0.3,0.1,0.5
		c0,0.5,0.6,1.1-0.1,1.5c-0.4,0.3-0.9,0-1.3-0.3c-1.1-0.9-1.4-0.1-1.6,0.8c-0.2,0.9-0.2,1.8-0.3,2.7c-0.2,1.8-1.4,2.4-2.9,2.9
		c-0.4,0.1-1,0.2-1.3-0.3c-0.3-0.4-0.1-0.8,0.1-1.2C341.3,148.6,342.4,147.7,343.6,147.1L343.6,147.1z"/>
	<path class="whiteFillSVG" d="M382.3,82c-1.1-0.9-2.2-1.6-3.4-0.4c-0.3,0.2-0.8,0.3-1.1-0.1c-0.2-0.2-0.2-0.6-0.1-0.9c0.1-0.6,0.4-1,1.1-1.1
		c0.9,0,1.7-0.4,2.6-0.6c1.5-0.4,3,0.2,4.5,0.6c0.3,0.1,0.4,0.4,0.3,0.8c-0.2,0.4-0.4,0.5-0.8,0.4c-0.8-0.2-1.6-0.6-2.5-0.5
		C382.5,80.7,383.2,81.4,382.3,82L382.3,82z"/>
	<path class="whiteFillSVG" d="M489.8,140.8L489.8,140.8c0.5-1.9,1.8-3.3,3.5-4.4c0.7-0.5,1.4-0.9,2.1-0.1c0.7,0.8,0,1.4-0.5,1.9
		c-1.2,1.2-2.9,1.9-4.4,2.8C490.3,141,490,140.9,489.8,140.8L489.8,140.8z"/>
	<path class="whiteFillSVG" d="M482.6,143.6c0,0.9,0.2,1.9-0.4,2.5c-0.9,0.7-1.1-0.6-1.7-0.8c-0.5-0.2-1-0.5-1.5-0.8
		c-0.2-0.2-0.5-0.4-0.4-0.8s0.4-0.5,0.7-0.5c0.8,0.1,1.5,0.2,1.9-0.8c0.2-0.6,0.8-0.3,1.1,0.2C482.5,142.9,482.5,143.3,482.6,143.6
		L482.6,143.6z"/>
	<path class="whiteFillSVG" d="M320.7,106.4c1.8,0.5,3.1,1.3,4.4,2.7C321.8,108.7,321.3,108.4,320.7,106.4z"/>
	<path class="whiteFillSVG" d="M429,130.1c0.1-1.6,0.7-2.9,1-4.5C431.3,127.6,431,128.9,429,130.1z"/>
	<path class="whiteFillSVG" d="M411.6,93.9c0,0.4-0.4,0.5-0.7,0.5c-1.3-0.1-1.4-1.1-1.5-2.4C410.5,92.6,411.6,92.7,411.6,93.9z"/>
	<path class="whiteFillSVG" d="M422.2,135.2c-0.2,0-0.5-0.3-0.4-0.5c0.2-1,1-1.3,2.4-1.5C423.6,134.3,423.2,135.1,422.2,135.2z"/>
	<path class="whiteFillSVG" d="M423.2,75.1c1.5-2.2,1.6-2.2,3.1-1.2C425.2,74,424.4,74.6,423.2,75.1z"/>
	<path class="whiteFillSVG" d="M383.7,66.4c-0.3,0.4-0.7,0.3-1.2,0.2c-0.5,0-1.3,0.2-1.1-0.7c0.2-0.7,0.9-0.7,1.4-0.5S383.7,65.8,383.7,66.4
		L383.7,66.4z"/>
	<path class="whiteFillSVG" d="M491.9,101.1c0.1-1.1-0.7-1.7-1.1-2.6C491.8,99.3,492.2,100.2,491.9,101.1z"/>
	<path class="whiteFillSVG" d="M487.7,94.6c0.3,1.1,1.6,1.4,1.5,2.8C487.6,96.9,487.4,95.9,487.7,94.6C487.7,94.6,487.7,94.7,487.7,94.6z"/>
	<path d="M365.3,103.1c0.5-0.1,0.9,0,1,0.6c0.1,0.3,0.2,0.7-0.2,0.8c-1.6,0.4-0.7,0.9-0.1,1.5c0.8,0.7,0.4,1.2-0.4,1.4
		c-1.4,0.4-3.4-1.1-3.5-2.6c0-0.3,0.1-0.6,0.3-0.6C363.6,104.3,364.2,103.1,365.3,103.1L365.3,103.1z"/>
</g>
</svg>
