<?xml version="1.0" encoding="UTF-8"?>
<svg xmlns="http://www.w3.org/2000/svg" viewBox="0 0 85.3 58.6">
    <g>
        <path id="EmailIcon" class="whiteFillSVG mailFillSVG" d="M74.1,1H11.2C5.6,1,1,5.6,1,11.2V47.4c0,5.6,4.6,10.2,10.2,10.2h62.9c5.6,0,10.2-4.6,10.2-10.2V11.2c0-5.6-4.6-10.2-10.2-10.2Zm-5,6.7l-26.5,17.1L16.1,7.7h53Zm5,43.2H11.2c-2,0-3.5-1.6-3.5-3.5V11.4l33,21.2s.1,0,.1,.1c0,0,.1,0,.1,.1,.3,.1,.5,.2,.8,.3h.1c.3,.1,.6,.1,.9,.1h0c.3,0,.6,0,.9-.1h.1c.3-.1,.5-.2,.8-.3,0,0,.1,0,.1-.1,0,0,.1,0,.1-.1L77.7,11.4V47.4c-.1,1.9-1.7,3.5-3.6,3.5h0Z"/>
    </g>
</svg>