<?xml version="1.0" encoding="utf-8"?>
<svg version="1.1"
	xmlns="http://www.w3.org/2000/svg"
	xmlns:xlink="http://www.w3.org/1999/xlink" x="0px" y="0px" viewBox="0 0 738 255.7" style="enable-background:new 0 0 738 255.7;" xml:space="preserve">
	<g>
		<path d="M706,202.5c0.9-0.2,1.7-0.4,2.7-0.7c0.5,1.7-0.3,5.6,2.5,5.2c2.5-1.3,5.3,0.7,7.1-2.1c2.7,0.1,5.1-1.5,7.8-1.6
			c0.5-0.6,0.8-1.1,1.3-1.7c5.1,2.5,3.7-4.2,8.6-5.5c2.2,1.8,1.3,6.1,1.8,8.8c-0.1,15.6,0,31.3,0,46.9c0.2,1.5,0,3.3-2,2.8
			c-23.1-0.2-46.5,0.6-69.5-0.3c-3.9-6.5-7.7-13-11-19.8c-1.5-1.2-1.2-6.6-3.6-5.3c-0.1,3.3,2.4,5.7,2.7,8.9
			c0.1,1.3,0.7,2.3,1.5,2.9c0.7,4.9,3.2,8.7,3.6,13.3c-27.1,0.8-54.5,0-81.7,0.3c-0.3-0.6-0.6-1.1-0.9-1.7c-0.8,0.3-0.3,1.1-0.9,1.5
			c-1.1,0.3-2.3,0.2-3.5,0c-0.1-5.6-0.9-11.7,1.5-16.7c-0.7-1.7,0.8-4.1-0.4-5.6c-1.6,2.7-0.6,6.8-2.6,9.2c-1.5,0.9-2.4,2.2-3,3.8
			c-0.5,0.1-1.1,0.2-1.7,0.3c-0.5,1-1.1,2-1.6,3c-3.6-1-7.9-0.4-11.7-0.1c-1.4,0.5-3.6-0.6-4.5,0.8c0.9,0.8,14.5,0.8,11.6,2.7
			c-1.4,0.3-2.9-0.2-4.3,0.4c-1,0.2-2.2,0.8-3.2,0.2c-3.1-2.4-6.1,1-9.2,0.2c-3-1.4-6.2,0.6-9.1-0.8c-2.6-1.1-5.5,0.4-8.2,0.6
			c-3.1,0.6-5.7-1.9-8.8-1.7c-1.3,0-3.2-0.4-3.6-1.6c1.3-1.2,3.2-0.2,4.8-0.9c0.1-0.5,0-1-0.2-1.5c-3.6-0.6-7.5-1.9-11.1-0.8
			c-1.5-0.6-2.2-2.3-3.7-3c-2.4,0.3-1.8,2.4-2.9,3.9c-0.7,0.3-1.8-0.2-2.6,0.7c2.5,1.7,6.1,2,9.1,1.3c1.2-0.1,2.1,0.7,3.3,0.2
			c3.1,2.8-26.7,2.8-27.9,1.5c-5.2,0.8-10.2-1.4-15.4,0.1c-3.2,11.9-10-6.4,2.2-1.8c0.8-0.2,1.5-0.2,2.3-0.8
			c-0.4-0.4-0.8-0.8-1.1-1.3v-4.2c-0.8,1.3-0.5,2.3-1,3.4c-1.4,0.7-2.7,0.9-4.1,0.6c-0.7-1.8,0.7-4.4,2.8-3.6v-1
			c0.6-0.7,1.6-0.9,2.7-1.7c-2.9,0.5-5.3,0.9-8,2c-5,2.5-12.7-5.3-5-7.3c1,1.6,2.3,2.9,3.9,3.8c2.1-0.8,5.6,0.3,6.2-2.6
			c0.2-1.8,1.9-2.4,2.6-3.7c0.6-1.6,2-1.6,3.3-2c0.4-1.2-1.2-1.1-1.9-1.5c-0.6-1-1.6-1.9-1-3.3c2-0.1,3.8,0.4,5.6,1.5
			c0.7-0.8,2.4-0.8,2.8-2.5c-4.6,0.1-8.8-1.4-13.4-2c-2.5-0.2-1.4-2.4-2-4.2c-0.8,1.1-0.2,2.4-0.9,3.5c-3.5,1.1-4.8,5.7-5,9
			c0,1.1,0,2.3-1.1,2.8c-8.1,3.4-1.8,11,4.7,9.8c0.5-0.1,1.1-0.3,1.6,0.3c-0.5,7.3-7.8,5.9-13,5.1c-4.3,0-8.6,0.5-12.9,0.1
			c-3.6-1-7.1,0.7-10.7-0.6c-4.5-0.8-10.8,1.4-14.2-2.2c-0.6-3.7,5.3,1.2,7.4-1c-0.3-2.1-2.4-1.5-4-2.3c-2,1.2-3.6-0.9-5.7-0.9
			c-0.3,0.4-0.7,0.9-1,1.3c-0.7,0.2-1.5-0.5-2.2,0.4c0.8,6.5-9.4,3.2-13.1,2.8c-1.1-0.2-2.5,0.4-3.2-0.8c2.6-3.4,9.4,1.4,13.7-1.3
			c1.7-1.5-6.4-2.8-7.6-1.8c-1.2,0.2-2.5-0.2-3.8-0.2c-2.2,0.1-4.3-0.8-6.4-1.1c-1.9-0.2-3.5,1.3-5.4,0.8c-0.9,0.4-1.7,0.8-2.5,1.2
			c0.8,1.2,2.7,1.8,4.9,1.4c3.1,1.8,0.4,2.8-1.7,1.7c-2.2-1.3-4.2,0.9-6.3,0.4c-7-2.1-14.5,0.7-21.5-0.4c-5,0-9.8-2.1-14.8-2.2
			c-2.5-1.1-5.6,0.9-7.5-1c0.4-0.4,0.8-0.8,1.4-1.3c-2,0-3.1-0.6-5-0.8c-0.4,2.2-2.4,2.8-3.5,0.7c-1.2-1.7-3.6,0.1-4.9-1.5
			c-5.2,0.2-4.2-4-0.8-6.2c2,0.1,3.7,2.1,5.6,2.6c1.7-1.8,3.6-0.9,5.7-1.2c0.8-1.7,2.9-6.1,4.8-2.9c0.8,1.7,2.3,1.5,3.8,0.8
			c1.4,0,2,1.4,3.4,1c2-0.1,3.9,0.7,5.5-1c1.1,0.2,1.6,0.9,2.1,1.9c0.4-0.2,0.7-0.5,1-0.7c-0.4-2.3-2-4.7-4.6-3.2
			c-2.1,0.7-4.2-0.5-6.3-0.5c-0.1-2.4,1.9-4.4,4.3-3.2c2.1,0.8,4.4-1,6.3,0.9c0.4-0.2,0.8-0.5,1.2-0.6c0-2.1-1.9-2.9-2.7-4.4
			c0.1-0.4,0.3-0.8,0.4-1.2c-1-0.9-1.9-1.7-2.9-2.5c-0.8-0.6-2.1,0.2-2.7-1.1c5.8-4.3,0.7-2.9,0.6-5.9c0-1.7,1-3.3,0.4-4.9
			c0.7-1,1.5-0.3,2.3-0.2c1.6-1.6,3.1-3.2,5.6-2.2c1.3-1.4,2.8,0,4-1.2c-1-3.7,0.8-2.4,2-4.8c-0.2-0.5-0.4-1.1-0.7-1.7
			c4.4-1.2,8,1.2,8.4,5.4c0.4,3.1,2,4.8-1.7,6.7c0.5,1.8,2,2.9,2.1,4.9c2.2,0.1,3.9,0.2,2.4,2.8c-0.4,2.5,1.4,5,1.6,7.6
			c-1,1.5-1.3,3.1,0.2,4.5c0.7-0.1,1.3-0.1,1.9-0.2c3.1,3.9,4.1-1.5,7.8,5.8c1-0.5,1.3-1.3,1.9-2.2c2.6-4.1,5.8,5.1,8.6-1
			c0.6-0.2,1.1-0.4,1.8-0.6c1.1-1.4,0.6-3.1,1-4.6c-1.1-1.3-2.7-2.1-3.3-3.9c2.6-0.7,1.2-2.8-0.7-3.5c-3.5,1.7-2.1,5.8-4.6,8.3
			c-1.1-1.2-0.9-3.4-2.9-3.5c-1.2,0.9-2.9,1.4-3.7,2.8c-2.4,0.7-2.9-3.3-5.6-1.8c-0.7-0.4-1-1-1.2-1.9c1-1.8,0.3-3.8,0.4-5.6
			c2-2.4,0.3-6.1,1.8-8.7c2-1.6,0.3-4.6,2.7-5.9c-0.5-2,0-3.5,1.9-4.4c1.3,0.2,2.9,1.4,4.2,0.4c1.9-0.9,4.9-1,6.8,0
			c-0.1,3.3,2.5,2.6,4.8,3.3c0.4,0.6,0.2,1.1-0.2,1.5c-0.7,0.2-1.4-0.7-2.1-0.2c-0.4,2,1.6,1.6,3,1.7c-0.3,1.3,0.6,2.6-0.4,3.8
			c-1.8-0.3-10,3.5-7.1,5.5c0.6-0.1,1.9-0.8,2.4,0.1c0.4,1.1-1.3,1.3-2,1.7c-1,0.1-1.6,1.8-0.2,1.5c2.3-0.6,4.6-1.2,6.3,1
			c3.3-1.4,1.5-6.3,3.9-8.3c2.9-2.2-1.3-5.6,2.5-6.8c-0.6-3.6,0.7-6.1,4.4-3.7c1.5,3.7,1.1,7.6,1.6,11.4c1.5,1.7,0.1,4.6,2.7,5.4
			c-2,1-1.8,4.4,0.4,2.6c1.5-1.8,2.9-1.5,5-1.2c-0.1-1.5-3-3.6-1.4-4.9c0.4,0.2,0.9,0.5,1.3,0.8c1.1-1,1.5-2.7,2.7-3.7
			c0.4-0.5,0.7-1,0.6-1.7c-0.2-1.6,0.8-3.1,0.1-4.6c-0.2-6,5.4-4.7,4.5,0.9c1.2-0.2,2.2-0.5,3.5-0.1c2.3-0.5,4-2.6,6.2-3.3
			c1.1,0.5,0.8,1.5,1.1,2.4c0.7-0.1,1.4-0.2,2.1-0.3c0.5,0.2,0.9,0.5,1.5,0.7c2.1-0.6,3.1,1.2,4.2,2.5c1.1-0.2,0.7-1.9,0-2.4
			c-0.7-0.6-2.2-0.9-1.6-2.1c2.8-0.7,5.1,1.3,7.7,1.8c5.5,0.8,10.5,0,16-0.8c0.3,0.3,0.8,0.7,1.4,1.2c7-1.5,12.7,0.3,12.6-8.8
			c0.4,0.1,0.7,0.2,1.1,0.3c0.4-1.4-0.6-2.8,0.2-4.2c1.9,3.4-0.6,11.4,3.7,12.6c3.5,0.1,6.9-0.2,10.3-0.9c3.6-0.9,1.1-5.4,1.4-8.2
			c0.4,0.2,0.7,0.3,1.1,0.4c3.1-3.8,2.9,1.8,4,3.8c10.6,4.3,4.9-7.3,9.9-9.6c2,0,4.1-1.3,5.8,0.3c-1.5,4.6-4.6,8.5-5.9,13.2
			c2.6,1.7,6.4-3.6,8.8-1.3c4.8,4.5,11.8,9.7,13.4-0.2c-0.1-0.9,0.7-1.4,0.8-2.2c0.2-1.1-0.2-2.5,0.9-3.1c2-0.9,7.6-3.5,8.2-0.3
			c-0.2,2.4,1.3,8.7,4.6,7.6c4.5-1.9,10.4-2.3,14.8,0.2c-1.5-5.7-3.2-11.6-5.3-17.2c-1.1-4.5,3.8-6.3,6.4-2.7c-1.6,1.4-1.8,3.3-3,5
			c1.5,0.9,3.1,1.3,3.2,3.3c0.5,2.8,3,7.9,5.9,4.1c4.5,3.6,12.8,6.8,16.3,0.2c0.3-1.8-0.1-3.9,2.2-4.4c0.9-0.3,1.9-0.6,2.5-1.3
			c2.8-3.2,6.6,1.6,9.7-0.8c-1-0.3-2.1,0.1-2.3-1.3c2.4-0.2,2.8-0.9,2.8-3.4c-0.2-0.2-0.5-0.4-0.9-0.7c0-0.6,0-1.3,0.9-1.5
			c0.9,1.1,0.8,2.6,1.4,3.8c1.3-0.5,2.1-2,3.5-2.6c1.1-0.6,0.8-2,1.1-3.2c0.7-0.2,1.4-0.4,2.2-0.6c4.8,3.3,5.9-0.4,8.5-3.9
			c3.3-3.9,6.5-7.9,8.7-12.5c-3.4-1.6-0.2-3,1.9-2c1.9-2.1,4.3-4,5-6.8c-0.7-1.6-2.4-1.8-2.9,0.1c-0.2,0.7-0.2,1.1-0.9,1.6
			c-0.2-1-0.4-1.8-0.6-2.7c2.2-1.5,2.7-4.6,4.9-5.9c1.3-1.2,2.8-2.1,3.9-3.5c0.4-0.4,0.7-0.8,1.3-0.8c0.4,3.5-3.5,3.8-4.2,6.6
			c-0.4,1-1.5,2-0.4,3.2c9.4-10,17.3-21.6,25-32.9c0.6,0.3,1.1,0.6,1.7,0.9c1.1-1.5,0.6-3,0.2-4.4c2-1.7,2.5,5.5,5.3,3.5
			c1-0.4,2.1-3.5,3.1-1.8c0.8,3.1-1,6-1,9.1c-0.2,1.5,1.2,4.6,3,3.1c1.9-1.6,2.6-4.2,5-5.4c0.5,0.1,1,0.2,1.4,0.3
			c0.5-7.7-5.1-16-11-20.9c-1.9-3.7-5.2-5.8-8.4-8.3c12.4,4,15.5,13.8,20.5,24.3c-0.2-3.7-1-8-3.2-11.1c-3.3-4.5-3.9-10.9-9.1-13.9
			c-3.5-2.3,0.1-4.2,0.3-7c-4.5-2-9.8-1.2-13.9-4l0,0c-5.6-4.5-13-1.4-19.4-1.7c-2.4-3.9-8.1-2.8-10.9-6c2.3-2.4,5.9-3.4,8.2-5.7
			c1.5-1.5-0.8-2-1-3.4c0.6-1.3,1.1-2.7-0.7-3.6c-0.2-1.8-0.7-3-2.3-3.9c-2.1,4.5-4.5,8.8-6.8,13.3c0.2,0.3,0.3,0.8,0.5,1.2
			c-0.3,0.6-0.8,0.7-1.3,0.5c-1.7-0.4-3.3-1.1-4.9-1.8c-3.5,0.2-5.4,4.9-7.9,6.8c-0.3-0.4-0.7-0.9-1.2-1.4c-0.5-0.1-1.1-0.2-1.7-0.4
			c-3.2,1.8-6.2-1-9.2-1.8c-4.1-0.9-7-5.2-6.6-9.4c0-2.6,0.8-4.6,2.8-6.3c1.4-2.3,2.3-4.9,2.7-7.6c-0.2-0.5-0.8-0.5-1.2-0.5
			c-3.6-0.8-0.9-5.3,1.1-6.5c1.6-1.9-2.1-2.4-2.2-4.1c1.5-2.4,5.1,0.5,7.2,0.9c2-0.7,0.6-3.3-0.6-4.1c0.9-2.3-0.4-4.5-0.1-6.8
			c-0.5-0.2-1-0.4-1.6-0.6c-0.5-0.8-0.9-1.6-0.8-2.6c3.4,0.3,6.9-0.9,10.4-0.6c-1.1-0.8-2.7-0.1-3.6-1.5c5.8-4.1,10.7,5.6,16.6,4.4
			c-0.7-2.5,0.4-5-0.6-7.4c-1.1-1.8,1.3-3.3,2.1-4.7c0-1.3-0.5-2.2-1.5-2.9c-1.9-2-3.3-4.4-5.6-6.1c-1.6-1.6-4.4-0.6-5.5-3
			c0.7-3.9,4.4-5.7,7.3-7.8c1.9-1.5,4.3-0.5,6.5-0.3c2.8,0.3,5.6-0.3,8.4-0.5c1.3,1.2,3.3,0.3,4.3,1.8c0.4,0.5,0.8,1.1,1.7,1.1
			c0.2-0.4,0.3-0.9,0.5-1.3c1.2-0.7,2.5-0.2,3.4,0.7c2.4,1.3,5.1,1.1,7.4,1.9c2.4,1.4,4.6,3.5,7.2,4.4c2,0.1,2.1,2.3,0.3,3
			c0.3,1.3,2.2,1.4,2.2,2.9c-0.2,0.2-0.4,0.5-0.7,0.8c4.3,5.1,15,9.6,12.4,17.7c-1.9,7.8,4.8,4.4,7.6,7.7c-0.3,0.3-0.6,0.6-0.9,1
			c1.9,2.8,4.3,5.5,6.3,8.4c1.5,0.9,2.8,2,4.1,3.1c-0.7,1.6-2.1-1.4-3.3-0.8c-0.2,0.6,0,1.2,0.5,1.6c3,3,1.9,7.8,1.7,11.6
			c0.7,8.8,6.3,17.1,4.8,26c-0.9,0.3-1.2-0.7-1.9-0.7c1.4,3.6,4.5,7.6,6.2,11.5c1,3.7,1,7.4,1.8,11.2c-0.5-0.2-0.8-0.3-1.2-0.4
			c-1.8,1.2-0.8,3.8-1.8,5.5c0,1.9,0,4,0.1,5.9c0.7,2.7,2,5.5,1.1,8.2c-0.9,0.4-1.1-0.6-1.7-0.7c-0.5,0.9,1.1,1.7,1.4,2.4
			c-1.6,8.3,8.7,17.4,4.1,25.2c-1.7-2.8-2.4-6-5-8.4c-0.4,0.3-0.7,0.5-1,0.8c-1-0.8-0.9-2.6-1.8-3.6c-2.3,7,3.8,8.6,6.8,13.1
			c-0.5,1.7-2.3,1.4-3.3,2.2c-8.5-3,1.7,5.8-5.7,7.1c-1.3,2.9-3.2,0-4.6-1.2c-1.9,12.1-2,25.7-1.3,38c1.3,1,2.1-0.1,3.1-0.8
			c1.8,1.1,3.9,1.7,5.7-0.1c5.2,0.7,1.5-5.3,4-5.2c0.1,0.4,0.3,0.9,0.5,1.5c0.8,0.7,1.8,0.9,2.9,0.4c0.2-0.5,0.3-1.1,0.6-1.8
			c0.8,0.6,0.2,1.8,1.3,2.2c0.5-0.2,1-0.4,1.7-0.6c0.8,2.4,2.7,5.7,5,2.4c0.2-1.5,0.5-3,1.6-4.1l0,0L706,202.5z M609.4,51.9
			c1.2,0.2,1.8-0.4,2.4-1.2c1.6-1.6,3.5-2.7,5.5-3.8c2.9-1.4,1.5-3.1,2.1-5.4c-1.6-1.4-3.1-2.7-4.8-3.7c-10-0.8-5.7,7-10.6,6.7
			c1.7-1.4,2.4-3.2,1.9-5.5c-1.9-0.7-4.2-0.6-5.5-2.6c0.6-1.3,0.4-2.7,0.1-4c-1.1-1.2-2.7-0.4-3,1c-0.6,1.9,1.3,3.6,1.1,5.6
			c-0.1,2.9,0.3,5.2,3.6,5.8c-1.8,1.6-3.4,2.9-5.3,4.2c-0.1,4.1,5.6-0.5,6.8,4.2c0.3,0.6,0.4,1.3,1.2,1.7
			C606.6,54.1,608.5,53.6,609.4,51.9z M544.7,215.3c-5.7-2.6-12.9-1.8-19.1-3c-5.5-0.4-11-2-16.5-0.8c0.3,2.9,0.2,5.6,0.6,8.4
			c0.6,2.1,2.4,4,2.2,6.2c-0.4,3.7,3.7,0.6,4.7-0.7c-0.3-0.6-0.5-1.1-0.8-1.6c1.1-1.4,1.1-3,0.9-4.5c0.4-0.8,0.8-1.5,1.1-2.1
			c1.3-0.2,2.5,1,3.6-0.4c-0.1-1.4,0.1-2.7,1.3-3.8c2.9,0.7,6.8-0.4,9.1,1.8c0.1,3.6,1.8,4.9,3.6,1.1c0.1-0.5,0.3-1,1-1.3
			c1.8,0.3,3.8,0.1,5.6,0.9c0.2,0.7,0.5,1.4,0.7,2.2C543.5,216.8,544.4,216.4,544.7,215.3z M638.7,49.3c-0.7-1.8,0.9-4.5-1.6-4.9
			c-0.8,0.6-1.7,1.2-2.4,1.7c0.5,2.5-1.7,3.4-2.6,5.4c-2-0.8-3.8,0.6-5.6,1.3c-3.8,6.4,4.4,2.4,7.4,2.2c3-1.4,8.5-5.3,6.6-8.9
			C639.8,46.9,639.4,48,638.7,49.3z M569.3,233.7c-0.2-2.3,0.9-4.8,1.1-7.1c-3.1-1.5-4.2,1.8-5.9,3.7c1.6,1.7,2.3,3.8,0.8,5.8
			c-0.9,0.5-2.1,0.5-2.6,1.6c0.5,1.1,1.6,1.6,2.4,2.7c0.4,9.7,5.3-2.6,5.5-5.7C570.1,234.2,569.6,233.9,569.3,233.7L569.3,233.7z
			 M413.1,233.8c-0.8-2.9-2.4-4.9-2-7.9c0.3-0.5,0.6-1,0.9-1.5c-1.2-2.3-4-0.1-4.3,1.7c-0.5,1.4-2.3,1.2-3.4,1.4
			c-0.6,1.1-0.6,2.1-0.3,3.2c2.9,0.8,1.6,4.3,4.4,4.9C410.4,236.3,411.1,233.9,413.1,233.8L413.1,233.8z M455.7,212.4
			c0.4,2.2,0.6,4.4,2.4,5.5c2.5-0.4,7-1.3,8.8-3.7C465.8,211.8,458.9,214,455.7,212.4L455.7,212.4z M659.2,218.1
			c-1-0.9-1.5-1.1-2.2-1.9c-0.9-2-3.3-1.9-4.5-3.5c-3.4-3.4-6.5-7-10.2-10.1c-0.4,1.4-0.4,1.6,0.7,2.3c0.9,0.5,1.6,1.1,1.7,2.2
			c0.6,1.1,1.6,2.1,2,3.4c1.8,2.7,5.8,2.9,7.9,5.5C656,217.2,656.9,218.6,659.2,218.1z M677.8,236c1.3-8.4,2.7-17.4,2.2-25.9
			c-1,1.4-1.5,3.1-1,5.1c-0.5,0.3-0.9,0.6-1.2,0.7C678.9,222.5,676.1,229.6,677.8,236L677.8,236z M674.4,139.1
			c-0.4,1.3,0,2.1-0.9,3.1c-2.6,2.9,0.8,6.1,0,9.4c0.1,1.5,0.3,2.7,0,4.2c0.5-0.1,0.9-0.2,1.2-0.4c0.1-2.5,1.3-4.7,0.6-7.2
			c0.4-0.4,0.8-0.8,1.2-1.3c-0.2-0.6-0.5-1.1-0.7-1.7C677.5,142.5,675.6,141.5,674.4,139.1z M663.8,210.2c-1.6,1.4,4.1,11.4,5.8,8.1
			c-0.2-0.6-0.4-1.2-0.6-1.7c0.4-1,1.5-1.3,1.5-2.4c-0.6-1.6-2.1-0.7-3.3-0.6C665.6,213,665,211.4,663.8,210.2z M351.8,211.1
			c-5.4-0.6-2.5,2.7-2.8,5.9C350.8,215.3,352.1,213.6,351.8,211.1L351.8,211.1z M651,66.4c0.1-0.5,0.2-1,0.3-1.4
			c-1.4-2-2.6,0-3.4,1.2c0.2,1.5,0.7,2.5,2,3.1c0.7-0.3,1.2-0.7,1.4-1.4C651.3,67.5,651.2,67,651,66.4L651,66.4z M581.1,250.9
			c1.3-0.5,2.1-8.7,0.2-7.9c-0.1,1.7,0.4,3.6-0.9,5C579.6,248.8,579.6,251.1,581.1,250.9L581.1,250.9z M485.1,227.5
			c2.3,2.2,3,5.2,5,7.6c-0.9-3.5-2-7.2-4.6-9.7C485.4,226.1,485.3,226.7,485.1,227.5z M574.8,243.2c-0.4,1.2,0.4,8.1,1.8,8.3
			C577,250.2,576.3,243,574.8,243.2L574.8,243.2z M436.4,245.4c-2.4-1.9-5.2-1.4-7.5,0C431.3,246,433.9,245.9,436.4,245.4z
			 M655.7,80.1c0.6-2.1,0.9-4.4-0.4-5.9C654,76.1,653.4,78.5,655.7,80.1z M646,74.7c0.3,1.3,2,1.6,3.2,1.6
			C651.3,74.9,647.1,73.2,646,74.7L646,74.7z M445.5,245.7c0.7,1.6,3.1,1.2,4.5,0.3c-0.7-0.4-1.4-0.8-2.1-1.1
			C447.1,245,446.2,244.9,445.5,245.7L445.5,245.7z M381.1,211.1c1.1,0.1,3.6-1.2,1.9-2.1C381.6,208.6,378.4,210.3,381.1,211.1
			L381.1,211.1z M645,69.6c-1.5-0.7-3-0.6-3.9,0.6c1,0.6,2,0.9,3.1,0.9C644.7,70.6,644.9,70.3,645,69.6L645,69.6z M484.4,229.1
			c-1.5,0-2.9,1.2-2.2,2.5c1.3-0.1,2.1,1,3.3,1c-0.6-1-1.1-1.9-1.7-2.8C484,229.6,484.2,229.4,484.4,229.1L484.4,229.1z
			 M675.1,196.5c-1.1-2.2-2.9-4.7-4.7-5.9C671.2,191.6,673.6,196.4,675.1,196.5z M381.8,205.5c0.4-2.1-3.4-2-3-0.1
			C379.6,205.7,380.6,205.8,381.8,205.5L381.8,205.5z M549.3,215.2c1.4,0.2,3.8-0.3,3.5-2C551.2,213.2,550.2,214.1,549.3,215.2
			L549.3,215.2z M362.5,229.3c-1,1.4,0.7,3.6,1.6,1.9C364.5,230.2,364,229.6,362.5,229.3z M568.1,213.1c1-0.5,1.5-1.2,1.4-2.1
			c-0.4-0.1-0.8-0.3-1.2-0.5C567.6,211.4,567.4,212.2,568.1,213.1L568.1,213.1z M605.4,33.3c-1-1.4-1.1-1.3-2.3-1
			C602.6,33.9,604.7,34.9,605.4,33.3z M483.2,221.6c-0.6-1.9-1.8-4.2-3.6-4.9C480.6,218.6,481.9,220.1,483.2,221.6L483.2,221.6z
			 M403.1,224.4c0.2,0.8,0.6,1.2,1.4,1.2c0.5-0.4,1-0.7,1.7-1.1C405.1,223.8,404.1,223.8,403.1,224.4L403.1,224.4z M662.4,123.8
			c-0.5,0.7-0.8,1.3-1.1,1.8c0.3,0.7,0.8,1.1,1.4,0.9C663.1,125.7,663,124.8,662.4,123.8z M642.4,230.5c-1-1-2.2-0.9-3.8-0.8
			C640,230,641.6,231.9,642.4,230.5z M553.1,221.5c-0.3-1.9-1.8-1.4-1.7,0H553.1z M358.1,229c-0.7,1.1,0.9,2.4,1.4,1.2
			C359.3,229.5,358.9,229.2,358.1,229L358.1,229z"/>
		<path d="M445.2,198.9c1.9,1.4,3,1.7,5.1,2.1c-8.8,2.5-18.9-2.1-27.8-1.1c-0.8,0.5-1.6,0.5-2.4-0.1c-4.6-2.1-10-2-15-2.3
			c-1.2,2.2-3.4,2.3-3.9-0.5c-4.1-0.7-8.4-1.7-12.6-1.2c0,0.7,0.1,1.4,0.1,1.9c-0.7,1.2-2.2,0.3-3.3,0.4c-1.8-0.1-2-1.3-1.7-2.8
			c-30.6-3.7-61.6-7.9-92.4-10c-96-11.8-193.3-18.9-289.8-28.4C149.8,166.9,297.6,183.2,445.2,198.9L445.2,198.9z"/>
		<path d="M586.8,131.9c-0.8-5,1.1-10,1.3-15c0.4-3.7,0.5-7.5,2.2-10.8c2-1.7,4.4-1.8,6.3-3.3c2.2-1.9,4.6-7.2,7.9-5.1
			c-2.1,1.3-3.4,1.6-2.5,4.5c0.8,0.4,1.6,0.8,2.4,1.1c2.3-2,1.3-5.7,3.2-7.9c0.1,0.9,0.1,1.4,0.1,2c4.1,1.3,6.3-5.4,10.6-5.1
			c0.7,1-1.1,1.6-1,2.7c-0.5,1.5-2.5,1.6-3.2,3.1c-1.3,1.7-3.8,0.1-5.2,1.9c-2,1.1-3.4,2.5-2.9,5c3.6,2.3,6.5-2.3,9.3-3.8
			c-2.2,4.2-7.2,6.9-10,11C600.5,117.3,594.6,133,586.8,131.9L586.8,131.9z"/>
		<path d="M465.1,233.9c-0.3,3-3.2,5.3-5.4,2.3c0.1-0.2,0.3-0.5,0.5-0.8c-1.8-1.6-1.7-3.6-1.3-5.6c0.6-0.2,1.5,0.2,1.7-0.9
			c-0.6-1-1.2-2.3,0.2-3.1C465.3,224.4,462,232.2,465.1,233.9L465.1,233.9z M462.4,233.6c-0.9-0.2-1.6-0.3-2.5-0.5
			C459.8,234.8,462,235.5,462.4,233.6L462.4,233.6z"/>
		<path d="M526.9,194.5c-0.9,0.4-1.4,1.3-2.5,1.6c-0.6-0.7-0.8-1.7-1.8-1.9c-5.2-3.1-0.5-10,3-12.7c-0.1,2.2-1.6,3.2-2.6,4.8
			C520.8,189.7,526.3,191.7,526.9,194.5L526.9,194.5z"/>
		<path d="M629.7,86.1c1,0.8,1.9,1.5,2.7,2.1c0,1.4-0.7,2.1-1.7,2.8c-0.5-0.1-1.1-0.1-1.7-0.2c0,1.1,0.8,1.5,1.4,2.1
			c-1.3,1.8-3.4,0.5-2.5-1.5c-0.2-0.8-1.5-0.7-1.2-1.8c0.3-0.2,0.7-0.5,1.2-0.9c-4-1-0.5-3.9,2-4.1
			C629.7,85.2,629.7,85.6,629.7,86.1L629.7,86.1z"/>
		<path d="M561.6,180.2c1.8,3.4,3.2,7.2,4.3,10.9c-3.5,7.2-2.9-5.1-3.6-7.4C562.1,182.5,560.3,181.6,561.6,180.2L561.6,180.2z"/>
		<path d="M589,134.6c-0.4,0.3-0.8,0.6-1.3,0.9c-0.2,0.7-0.4,1.6-0.6,2.4c2.5,1.6,0.2,5-1.8,6c-1-2.1,0.4-5.4,0.4-7.9
			C585.9,134.8,588.2,133.1,589,134.6L589,134.6z"/>
		<path d="M499.1,180.6c-1.7-0.9-3.3-0.6-5-0.1c3.7-2.1,7.9-5.1,11.9-6.8C504.9,177.1,501.2,177.9,499.1,180.6L499.1,180.6z"/>
		<path d="M569.8,252.4c-1.1-0.6-2.1-1.5-3.5-0.6c-0.3-1-0.2-1.3,0.3-2.1h1.2c0.6-0.4,0.7-0.9,0.8-1.4c0.3-1.4,1.6-2.2,2.1-3.4
			c0.6,1.2,0.5,3.5-0.5,4.5C570,250.4,571.4,251.5,569.8,252.4z"/>
		<path d="M463.9,194.7c0.2,1.1-0.1,1.8-0.8,2.1c-2.5,1-4,4.5-7,3.3C458,197.2,461.2,196.4,463.9,194.7L463.9,194.7z"/>
		<path d="M647.5,126c-2,1-3.5,1.2-5.3,2.4c-0.9,0.4-2,1-2.8,0.4C640.3,127.2,645.6,125.1,647.5,126z"/>
		<path d="M596.6,30.3C589.8,26.9,597.8,24.7,596.6,30.3L596.6,30.3z"/>
		<path d="M610.8,101.8c-0.8,1.1-2,1.8-3.3,2.6C606.8,103,610,100.5,610.8,101.8L610.8,101.8z"/>
		<path d="M706.1,202.5C703.1,199.6,708.8,197.4,706.1,202.5L706.1,202.5L706.1,202.5z"/>
		<path d="M476.4,181.7c1.6,0.5,1.6,2.6-0.1,2.6C476.1,183.5,476.2,182.7,476.4,181.7L476.4,181.7z"/>
		<path d="M651.1,86.9c0.9,0.9,1.6,1.5,2.7,2.3c-2.1-0.3-2.8-0.6-3.7-1.7C650.3,87,650.8,87,651.1,86.9
			C651.2,87,651.1,86.9,651.1,86.9z"/>
		<path d="M609.1,166.7c-0.6,1.3-1.5,2.2-3.1,2.2C606.5,167.6,608,167.5,609.1,166.7z"/>
		<path d="M591.5,133.3c0.2-1.1,0.8-1.5,1.5-2C594.4,131.3,592.9,133.6,591.5,133.3z"/>
		<path d="M565.7,254.6c1.4,0.3,3.4-1.5,4.3-0.3C568.8,255,567.1,254.4,565.7,254.6L565.7,254.6z"/>
		<path d="M672.8,122.2c-0.3,1-1,1.3-1.6,1.8C670.3,123,671.6,121.6,672.8,122.2z"/>
		<path d="M527.4,198.3c0.3,0.8,0,1.1-0.5,1.3c-0.4-0.2-0.7-0.6-0.9-1C526.2,198.1,526.9,198.4,527.4,198.3L527.4,198.3z"/>
		<path d="M53.7,161.3c-0.5-0.1-1.1-0.3-1.6-0.4"/>
		<path d="M41.4,160.2c-0.6-0.4-1.3-0.1-2-0.4"/>
		<path d="M37,159.8c-0.8-0.4-1.8-0.1-2.7-0.4"/>
		<path d="M32.6,159.4c-10.4-1.1-21.1-1.7-31.6-2.5"/>
		<path d="M656.4,98.4c1.3,1,2.8,1.8,4.2,2.5"/>
		<path d="M673.2,115.8c0.1,0.2,0.2,0.4,0.4,0.6"/>
		<path d="M673.9,117.7c0.1,0.2,0.2,0.4,0.4,0.6"/>
		<path d="M674.6,119.5c0.2,0.2,0.5,0.5,0.7,0.7c-0.2,1.3,0.6,2.3,1.1,3.4"/>
		<path d="M561.5,180.2c0.2,1.6,0.9,2.5,1.5,3.8"/>
		<path d="M605.9,43.2c-0.6,0.6-1.2,1.4-2.2,1.5"/>
		<path d="M525.8,181.6c-0.6,0.2-0.9,0.7-1.1,1.3"/>
		<path d="M636.6,145.8c-0.2,0.2-0.4,0.5-0.5,0.7"/>
		<path d="M627.9,156.4c-0.1,0.7-0.2,1.3-0.4,2"/>
		<path d="M385.8,227.4c0.2,0.2,0.2,0.3,0,0.6c-0.1,0.2,0,0.6-0.4,0.5"/>
		<path d="M683.7,54.6c-0.6-0.3-1.5-0.2-1.8-1.1"/>
		<path d="M639.3,47.2c-0.6,0.5-0.5,1.4-0.7,2.2"/>
		<path d="M506,173.8c-0.2,0.2-0.5,0.4-0.7,0.6"/>
		<path d="M496.8,179.4c-0.9,0.5-2,0.6-2.9,1.1"/>
		<path d="M390.5,245.9h0.5"/>
		<path d="M606.6,100.9c-0.8,0.6-1,1.5-1.1,2.4"/>
		<path d="M600,31.2c-0.8,0.3-1.7,0-2.4,0.7"/>
		<path d="M657.5,122.4v0.6"/>
		<path d="M647.3,126c-1.1,0-2.1,0.4-3.1,0.7"/>
		<path d="M478.6,192.5c0.3,0.6,0.2,1.3,0.2,2c0,1.2,1,2.4,0,3.5"/>
		<path d="M510.2,249.8c-0.5,0.1-1,0.7-1.6,0.2"/>
		<path d="M570.9,244.5c-0.1,0.2-0.2,0.4-0.2,0.5c0.4,0.6-0.1,1-0.2,1.5"/>
		<path d="M570.2,254.5c-1.7-0.3-3.4,0.4-5.1,0.2"/>
		<path d="M655,15.5h-0.5"/>
		<path d="M696.4,202.3c0.4,0.8,0.1,1.7,0.2,2.5"/>
		<path d="M680.8,209.8c-0.4-0.5-1-0.3-1.5-0.4"/>
		<path d="M727.7,201.6v0.6"/>
		<path d="M424.7,205.2v0.6"/>
		<path d="M678.2,219.8h-0.5"/>
		<path d="M371.3,225.6h-0.5"/>
		<path d="M459.3,233.6c0.4,0.9,1,1.5,1.8,2"/>
		<path d="M653.9,89.3c-0.8-0.4-1.6-0.7-2.4-1.1"/>
		<path d="M677.5,232.9H677"/>
		<path d="M611,101.7h-0.5"/>
		<path d="M604.8,97.7c-0.6,0.1-1.2,0.1-1.8,0.2"/>
		<path d="M577,252.3c-0.2,0.1-0.5,0.1-0.7,0.2"/>
		<path d="M609.5,166.7c-1.2,0.7-2,1.7-3.6,2"/>
		<path d="M679,204.9h-0.5"/>
		<path d="M677.9,221.6h-0.5"/>
		<path d="M663.3,211.1h-0.5"/>
		<path d="M679.7,188.5h-0.5"/>
		<path d="M553.1,203.8v0.6"/>
		<path d="M663,123.5c-0.2-0.1-0.4-0.2-0.5-0.4"/>
		<path d="M602.6,44.6c-0.5,0.1-1,0.1-1.5,0.2"/>
		<path d="M607.5,95.5c-0.2,0.8-0.4,1.6-0.5,2.4"/>
		<path d="M654.6,237.6H654"/>
		<path d="M659.7,118.4v0.6"/>
		<path d="M679,214.7h-0.5"/>
		<path d="M653.9,235.4h-0.5"/>
		<path d="M628.2,90.2c0.1,0.5,0.1,1,0.2,1.4"/>
		<path d="M350.5,205.6v0.6"/>
		<path d="M638.6,3.5v0.6"/>
		<path d="M615.7,101.3c-0.9,0.4-1.5,1.3-2.2,2"/>
		<path d="M394.5,204.9v-0.6"/>
		<path d="M599.1,186.3c0.5,0.3,0.3,0.9,0.5,1.3"/>
		<path d="M477.6,196.5c-0.1,0.8-0.4,1.2,0.4,1.6"/>
		<path d="M679.7,195.4h-0.5"/>
		<path d="M380.7,199.8v0.6"/>
		<path d="M718.6,204.9v0.6"/>
		<path d="M617.9,1v0.5"/>
		<path d="M406.9,206.3h-0.5"/>
		<path d="M441.1,207.4h-0.5"/>
		<path d="M626.2,53.3h-0.5"/>
		<path d="M607,53.7v0.5"/>
		<path d="M659.7,252.5h-0.5"/>
		<path d="M463.3,204.1c-0.1,0.4-0.1,0.9-0.2,1.3"/>
		<path d="M532,214.7c-0.4,0.1-0.8,0.1-1.3,0.2"/>
		<path d="M656.4,241.6c-0.4,0.1-0.8,0.1-1.3,0.2"/>
		<path d="M564.2,228.7c0.4,0.1,0.8,0.1,1.3,0.2"/>
		<path d="M627.7,155.8h-1.1"/>
		<path d="M405.5,224.9c0.1,0.3,0.1,0.6,0.2,0.9"/>
		<path d="M414.7,216.7c-0.3,0.1-0.6,0.1-0.9,0.2"/>
		<path d="M348.2,220.3c-0.3,0.1-0.6,0.1-0.9,0.2"/>
		<path d="M675.7,140.4l-0.7,0.2"/>
	</g>
</svg>
