<?xml version="1.0" encoding="UTF-8"?>
<svg xmlns="http://www.w3.org/2000/svg" viewBox="0 0 52.54 63.17">
    <g>
        <path class="gitFillSVG" d="M0,40.97c3.8-.6,5.6,1.2,7.1,3.6,2.1,3.3,4.9,5.1,8.8,5.3,3.4,.2,4.3-.6,5.2-3.8,.7-2.6-.2-4.3-2.7-5-8.5-2.4-12.5-7.8-12.6-16.6,0-4.9,.2-9.8,3.5-13.8,.7-.9,.2-1.8,0-2.7-.5-2-.5-4,0-6.1s1.5-2.2,3.2-1.3c1.6,.9,3.1,2.1,4.2,3.7,.9,1.2,1.8,1.4,3.3,.9,5.9-1.9,11.9-1.9,17.9-.1,1.7,.5,2.7,.2,3.7-1.1,1.1-1.5,2.6-2.7,4.3-3.6,1.4-.7,2.4-.5,2.8,1.3,.4,1.6,.7,3.3,.3,4.8-.8,2.6,.3,4.3,1.3,6.6,2.8,6.5,3.1,13.3,.2,19.8-2.2,4.9-6.7,7.1-11.6,8.3-3.1,.8-3,.8-2.2,3.9,1.4,5.4,.5,11,.6,16.5,0,1.3-1.1,1.6-2.2,1.6h-11.8c-1.8,0-2.3-.9-2.4-2.6-.1-1.8,.8-4-.5-5.2-1.2-1.2-3.4-.3-5.2-.5-3.4-.4-6.3-1.7-8.2-4.6-2.2-3-3.7-6.5-7-9.3H0Z"/>
    </g>
</svg>