<?xml version="1.0" encoding="UTF-8"?><svg id="Layer_2" xmlns="http://www.w3.org/2000/svg" viewBox="0 0 252.78 177.86"><defs><style>.cls-1{letter-spacing:-.02em;}.cls-2{font-family:ReemKufi-Bold, 'Reem Kufi';font-size:24px;font-weight:700;}.cls-3{fill:none;stroke:#000;stroke-miterlimit:10;stroke-width:2px;}</style></defs><g id="Layer_1-2"><path class="cls-3" d="M94.71,74.24c1.88,2.23,10.99-5.48,16.41-.74,2.28,1.95,1.96,4.46,5.5,7.89,2.04,1.95,4.16,2.97,6.6,3.9,9.19,3.44,17.74,2.97,17.74,2.97,18.76-1.02,28.19-1.58,32.19-1.86,14.21-1.02,12.48,.46,26.77-.37,22.77-1.3,34.31-2.14,42.08-10.96,7.85-8.91,9.11-20.89,9.5-24.89,1.41-13.93-2.51-28.69-10.68-37.98-7.62-8.73-17.51-10.96-37.69-11.14-31.17-.28-87.78-.74-95,26.19-2.36,8.82,1.81,17.92-4.87,30.83-4.16,7.89-10.44,14.12-8.56,16.16h0Z"/><path d="M89.4,156.36c-.4-.4-.7-.8-1.2-1.4,.4,0,.7-.1,1.1-.1-.1-.4-.2-.8-.2-1.2,0-.8,.1-1.5,.9-1.9,.5-.3,.6-.7,.7-1.3,.1-.7,.1-1.6,.5-2.1,.6-.9,1-1.8,1.1-2.8,0-.2,.2-.4,.3-.7-.3-.2-.6-.5-.9-.7,.4-.7,.8-1.4,1.2-2,.1-.2,.7-.2,.8-.3,.4-1.3,1.2-2.6,.4-4.2-1,.9-.9,2.3-1.4,3.3-.6,1-1.2,2.1-1.8,3.2h.9c-.3,.4-.5,.8-.8,1.1-.8,.6-1,1.4-1,2.4,0,.3-.2,.7-.4,1-.3,.5-.7,1-.9,1.6-.6,1.3-1.1,2.6-1.6,3.9-.3,.8-.4,1.7-.6,2.6,.3,.4,.5,.8,.8,1.2,0,.1-.1,.1-.2,.2-.3-.1-.6-.2-1.1-.3-.6,1.3-1.2,2.7-1.8,4.1-.9-.3-.6-.9-.5-1.3,.6-1.8,1.1-3.6,1.7-5.4,2.8-8,5.5-16,8.3-24,.8-2.4,1.7-4.9,2.6-7.3,.4-1,.4-2,0-3-.9-2.2-1.8-4.4-2.7-6.5-1.4-3.3-3.5-6.1-6.6-8.1-.8-.5-1.4-1.3-2-1.9h0c1.1,.1,2.2,.1,3.4,.2,2,.1,4,.3,6,.4,2.1,.2,4.2,.5,6.3,.6,1.9,.1,1.9,0,2.6-1.7,1-2.7,2-5.5,3-8.2,.1-.4,.4-.7,.8-1-3,10.2-6.3,20.3-9.9,30.4,.2,.1,.5,.3,.8,.4,.8,.2,1.1,.1,1.4-.8,.4-1,.7-2.1,1-3.1,.1-.2,.3-.4,.6-.6,0,.3,.1,.6,0,.8-.3,1.1-.7,2.1-1,3.2-.3,.9-.2,1.8,.2,2.7,1.6,3.6,2.7,7.3,2.6,11.3-.1,2.7-.1,5.4-.3,8,0,.5-.1,1-.3,1.5-.9,3.2-1.8,6.3-2.7,9.5-.2,.6-.3,1.2-.5,1.8h-.4c0-.3-.2-.6-.1-.8,.7-1.7,.7-3.6,1.5-5.2,1.6-3.3,1.6-6.8,1.7-10.3,.1-2.3,.1-4.6,0-6.9-.1-2.5-.9-4.9-1.9-7.2-.1-.2-.3-.5-.4-.8-.7,.3-.7,.9-.9,1.4-1.1,3.2-2.1,6.5-3.2,9.8-1.5,4.7-3.1,9.5-4.7,14.2-.2,.9-.8,1.5-1.2,2.3h0Zm0-49.1c-.2-.6-.4-1.1-1-1.2-.1,.1-.2,.2-.2,.3,.3,.2,.8,.6,1.2,.9,.3,.3,.6,.7,.9,1.1,1.8,1.9,3.2,4.1,4.2,6.5,.6,1.5,1.2,2.9,1.9,4.4,.2,.4,.4,.8,.7,1.3,.3-.3,.5-.5,.5-.7,.7-2.1,1.5-4.2,2.2-6.2,.2-.7-.1-1.1-.7-1.4-2.3-1.1-4.5-2.3-6.8-3.4-1-.6-2-1.1-2.9-1.6h0Zm11.5,2.5c.3-.7,.4-.9,.5-1.2,.4-1.3,.3-1.6-1-1.7-2.3-.3-4.6-.4-6.9-.7-.1,0-.2,.1-.5,.2,.2,.2,.3,.3,.5,.4,1.7,.5,3.3,1,5,1.4,.8,.3,1.8,.3,2.4,1.6Zm-3.2,18c-.5,.9-1.2,1.4-1.2,2.4-.1,1.1-.5,2.3-1.6,2.9-.1,0-.1,.2-.1,.3,.2,.3,.3,.5,.6,.9-.5,.2-.8,.3-1.2,.4,.2,.4,.4,.7,.5,1-.3,.3-.5,.5-.7,.8,1.1,.6,1.2,.6,1.4-.2,.9-2.6,1.7-5.3,2.6-8-.1,0-.2-.2-.3-.5h0Z"/><path d="M5.6,89.96c-.9-2-.6-4.1-.4-6.2,.1-1.2,.9-2,2-2.5,.8-.3,1.3-.1,1.5,.7,.5,1.7,.7,3.5-.1,5.2-.5,1.1-.8,2.3-1.1,3.5-.2,.8-.5,1.4-1.3,1.7-2,.8-4,1.5-6.2,2.1,.6-.6,1.2-1.2,1.8-1.8-.4-1-.7-1.9-1-2.8-.4-1,.1-2.3,.2-3.7,2,1.1,3.3,2.5,4.6,3.8,.2,.4,.4,.8,.7,1.2,.1-.1,.2-.1,.2-.2-.3-.3-.6-.6-.9-1h0Z"/><path d="M102.7,116.26c-.3-.5-.2-1.1,0-1.6,2.1-6.3,4.3-12.6,6.4-18.9,1.8-5.4,3.7-10.8,5.5-16.3,.5-1.4,1-2.9,1.8-4.2-.4,1.2-.8,2.5-1.2,3.7-2.7,8.2-5.4,16.4-8.1,24.6-.7,2-.5,2.2,1.5,2.3,1.2,.1,2.4,.2,3.6,.3,.4,0,.8,.2,1.1,.2,.1,.7-.3,.8-.7,.8h-2.4c-.8,0-1.6-.1-2.4-.2-1.7,0-2,.2-2.5,1.7-.6,1.9-1.2,3.8-1.9,5.8-.2,.6-.5,1.2-.7,1.8h0Z"/><path d="M43.4,128.06c0,.2,0,.6-.1,.9-.1,.2-.2,.6-.3,.6-.7,0-1.4,.1-2-.1-.3-.1-.7-.7-.7-1.1,.1-.9,.4-1.8,.7-2.7,.2-.5,.6-.6,1.2-.6,.5,.1,.9,.3,1,.8,0,.7,.1,1.4,.2,2.2h0Z"/><path d="M14.5,90.66c-1.8,.2-3.4,.4-5.2,.6,.5-1.2,.9-2.3,2.2-2.5,1.3-.1,2.2,.7,3,1.9h0Z"/><path d="M40.9,129.86c.7,.3,1.4,.4,1.9,.7,.6,.3,.7,1,.5,1.6s-.8,.6-1.3,.5c-.6-.2-1.3-.4-1.9-.9-.2-.2-.3-.9-.2-1.2,.1-.3,.6-.5,1-.7h0Z"/><path d="M21.2,97.06c-2-1.6-3.4-3.8-5.2-5.5,.9,.2,1.5,.7,2.1,1.4,.5,.6,1.2,1.2,1.8,1.7,.5,.4,1,.9,1.4,1.4,.2,.2,.2,.6,.3,.8-.2,.1-.3,.2-.4,.2h0Z"/><path d="M86.6,159.26c.7,.3,1.1,.4,1.8,.7-.2,.9-.5,1.8-.7,2.7,0,.1-.4,.3-.5,.3-.2,0-.5-.2-.5-.4-.1-1.1-.1-2.1-.1-3.3h0Z"/><path d="M89.4,156.26c.4,1.3-.5,2.1-1.3,2.8-.6-.3-.4-.9-.3-1.3,.2-.6,.7-1.1-.1-1.8h.4c.4,.2,.9,.3,1.3,.3h0Z"/><path d="M84.9,104.36c-1-.7-2-1.3-3-1.9,.1-.1,.1-.2,.2-.2,1,.5,2,1.1,2.8,2.1h0Z"/><path d="M101.8,118.26v1.3c-.7-.6-.2-.9,0-1.3h0Z"/><path d="M102.6,116.26c-.1,.8-.2,1.5-.8,2h0c.1-.8-.1-1.6,.8-2h0Z"/><path d="M117,72.76c-.1,.3-.1,.6-.2,.8-.1,0-.1-.1-.2-.1,.2-.2,.3-.4,.4-.7h0Z"/><path d="M41.6,54.36c-.3,1-.7,1.5-1.8,1.4-1.4,0-2.7-.2-4-.3-.9-.1-1.9-.1-2.8-.1-1.1,0-2.2,.1-3.3,0-.5,0-.9-.4-1.5-.8,2.2-1.4,4.4-2,6.8-2.1,.4,0,.9,.1,1.2-.1,1.4-.8,2.4,.1,3.5,.7,.5,.5,1.1,.9,1.9,1.3h0Z"/><path d="M61.2,66.06c-2.3,1.1-8.4-.1-9.8-1.9,.4-.2,.8-.3,1.2-.5-.2-.3-.4-.5-.6-.8,.3-.7,.9-.9,1.5-1,3.5-.5,6.7,.4,9.7,2.3,.1,.1,.2,.3,.4,.6-.5,.1-.9,.2-1.2,.2-1.3-.1-2.5-.2-3.8-.4-.7-.1-1.4-.4-2-.5s-1.3,.1-2,.1c.9,1,2,1.1,3.1,1.3s2.2,.3,3.5,.6h0Z"/><path d="M40.1,63.26c-2.2,.3-4.3,1.4-6.8,.8,.4-1.1,1.8-.3,2.2-1.4-.3-.1-.6-.4-.9-.4-1.5-.1-3.1-.1-4.6-.2-.4,0-.9,0-1.4,.1-.1-1,.6-1.2,1-1.8,.4,.1,.5,.8,1.1,.4,.5-.3,1.1-.3,1.6-.6,1.4-.8,2.9-.9,4.5-.7,.4,.1,.8,0,1.4,.1-.2-.4-.3-.6-.4-.7,.1,0,.2-.1,.2-.1,.6,.3,1.3,.6,1.8,1,.7,.6,.8,1,.4,1.9-.1,.6-.1,1-.1,1.6h0Zm-4.6-1.5c.1,0,.1,.1,.2,.1q0-.1,.1-.2s-.1-.1-.1,0c-.1,0-.1,.1-.2,.1Z"/><path d="M23,60.16c.7,1.7,.2,3.3-.4,4.8-.4-1.6-.6-3.2,.4-4.8Z"/><g id="Layer_5"><path d="M45.7,28.36c.2,.4,.4,.7,.9,.5,.6-.2,1.1-.5,1.6-.8,.4-.2,.7-.5,1.1-.8,1.5,1.3,1.9,.9,3.1-.2-.2,.8-.4,1.4-.6,2.2,.9,0,1.5-.4,2.1-1,.4-.4,.9-.4,1.4-.4h2.2c-.1,.4-.2,.9-.3,1.4,.7,.2,1.1-.2,1.4-.6q1.1-1.3,2.4-.2c1.2-.1,2.2-1,3.6-.9-.3,1.3-1.8,1.2-2.2,2.3,1.8-.7,3.6-1.5,5.4-2.2,.4-.2,.9-.2,1.3-.3,0,.1,.1,.1,.1,.2-.3,1-1.3,.9-2.1,1.2-.1,.5-.2,1-.3,1.4,.6,.6,1.1,.2,1.6,.1q1.1-.3,1.8,.8c.2-.1,.5-.1,.6-.3,.5-.9,1.1-1.2,2-.5,.1,.1,.3,.1,.4,0,1.2-.6,2,.3,2.9,.9h0c-.1,.2-.3,.6-.4,.6-1,0-1.7,.5-2.3,1.1-.3,.4-.9,.5-1.2,.9-.3,.3-.5,.7-.8,1.2,.3,.2,.5,.4,.7,.5,.8,.6,1.5,1.2,2.3,1.8,.6,.4,1.2,.8,1.8,1.1,2.6,1.1,4.9,2.8,7.1,4.6,.4,.3,.6,.7,.9,1.1,.7,.9,1.4,1.9,2.1,2.8,.1,.1,.2,.2,.3,.3,.2,1.2,.8,2.5,.4,3.8-.2-1.3-1.2-2.2-2.1-3.1-.4-.5-1.2-.6-2-.3,.1,.2,.2,.4,.3,.4,1.2,.4,2,1.3,2.8,2.3,.3,.3,.7,.5,1,.7,.3,1.1,.6,2.3,1,3.4,.5,1.4,.4,2.8,.3,4.3-.4,.1-.6,.1-1,.2,0,.5,0,1,.1,1.4,.2,1.1,.1,2.2-.4,3.2-.7,1.4-1.2,2.8-1.1,4.4-1.1,.3-1.3,.7-1.1,1.6,.1,.4,.3,.7,.4,1.1,.1,.5,.1,.9-.5,1-.7-.3-.2-1.5-1.4-1.5,.1,.5,.2,.9,.3,1.3-.2,.3-.6,.7-.7,1.1,0,.4,.2,.8,.4,1.1,.4,.5,.6,1,.7,1.6,0,.5,.4,1,.6,1.5,.9-.2,1-.7,.8-1.3-.1-.5-.3-1-.3-1.5,.5,.7,1.1,1.3,1.9,1.6,.4,.2,.6,1,.7,1.6,.1,1.1,.4,2.1,1.1,3.1,.8,1.2,1.6,2.5,1.9,4.1,.2,1,.9,1.9,1.5,2.8s1.1,1.9,2.2,2.4c.1,0,.1,.2,.1,.5-.4,0-.7,.1-.9,.1-.8-.1-1.7-.3-2.5-.5q-1.3-.3-2.1-1.4c-.4,1-1.1,.9-1.9,.8-2-.3-4-.3-5.9-1.2-.9-.4-1.2-.3-2.5,.1,.2,2.2-1.4,3.7-2.5,5.6,1.2,.5,2.4,.9,3.6,1.3,.5,.2,.9,.5,1,1,.4,1.4,1,2.7,1.4,4.1,.1,.3,.2,.5,.3,1-.5-.2-.8-.2-1-.4-1.7-1-3.3-2-5-2.9-.3-.2-.6-.3-.9-.4-.6-.2-1-.1-1.2,.6-.2,1.1-.9,1.4-1.9,1.4-.6,0-1.2,.1-1.8,0-2.7-.2-5.2,.7-7.5,1.9-1.9,1-3.9,1.9-5.8,2.8-1.3,.6-2.4,1.5-3.4,2.5-.8,.8-1,1.6-.7,2.7,.6,2.2,1.1,4.5,1.7,6.7,1.7,6.4,3.1,13,4,19.6,1.2,9.2,3.4,18.2,5.7,27.2,.7,2.9,1.8,5.6,2.7,8.4,.3,1,.6,1.9,.3,3-.2,.7-.1,1.4-.1,2.1,0,.4,0,.9-.1,1.3-.1,.2-.3,.4-.6,.5-.1,0-.4-.3-.4-.5-.1-1-.5-1.9-1-2.7-.1-.2-.2-.4-.2-.7-.2-1.9-.9-3.7-2-5.3-.2-.3-.3-.9-.4-1.3-.1-.6,0-1.3-.2-1.9-1.1-4.3-2.2-8.6-3.2-13-1.1-4.6-2.2-9.1-3-13.8-.9-5.9-2-11.8-3.3-17.6-.6-2.7-1.2-5.3-1.9-7.9-.1-.5-.4-1-.7-1.9l-.8,1.6c-.2,.6-.4,1.2-.5,1.8-.3,1.5-.8,2.8-1.9,3.9-.6,.6-.8,1.4-.9,2.3-.2,1.2-.6,2.4-.9,3.5-.3,1.2-.7,2.4-1,3.5-.1,.5-.2,1.1-.6,1.6-.1-.7-.2-1.4-.2-2.1,.1-1.4-.6-2.5-1.1-3.8-.1-.3-.6-.5-.9-.8-.1-.1-.3-.5-.3-.6,.1-.2,.4-.3,.6-.4,.4-.1,.7-.1,1.2-.1,.4,1-.4,2.4,.9,3.4,.8-1,1.6-1.8,1.3-3.1-.3-1.5-2.2-2.7-3.9-2.5-.7,.1-1.4,.3-2.1-.1-.2-.1-.8,.2-1.1,.4-.2,.3-.6,.8,.2,.9,.3,1,.6,1.9,.9,2.9,.1,.3,.2,.6,.3,1,.5-.3,.8-.6,1.5-1-.2,.6-.3,.8-.5,1.1-1.4,2-1.8,4.3-2.2,6.6-.1,.6,.3,1,.8,1.2,1,.3,1.9,.6,2.9,.9,.4,.1,.8,.1,1.3,.1-.3,2.1-.6,4.1-.8,6.2-.5,5.7-.9,11.3-1.4,17-.4,4-.9,8-1.4,12-.1,1.3-.4,1.4-1.6,1.3-1.4-.1-2.7-.1-4.1-.2-1.3-.1-1.6-.3-1.4-1.7,.3-2.7,.7-5.4,1-8.1,.8-7.4,1.7-14.8,2.3-22.3,.4-5.4,.7-10.8,.2-16.2-.1-.8-.1-1.6,0-2.4,.2-1.1-.1-2.1-.6-3.1-1.3-2.5-2.5-5.1-3.6-7.6-1.2-2.6-3-4.5-5.4-6-1.6-1-3.2-1.9-4.9-2.9-.7-.4-.9-.8-.4-1.6,.5-.8,1-1.5,1.4-2.3,.2-.3,.3-.6,.5-1.1-.5,.1-.9,.2-1.3,.2-.1-.1-.3-.1-.3-.2l-1.5-3c-.5-1.1-1-2.2-1.6-3.3-.5-.8-.8-1.1-1.7-1.7-.7-.5-1.4-1-2-1.6-1.7-1.6-3.5-2.9-5.5-3.8-.5-.2-.9-.6-1.5-1,1.2-.6,2.5-.6,2.6-2.1,1.4,.1,2.3,.9,3.2,1.6s1.8,1.6,2.4,2.5,.9,2.1,1.5,3.2c0-.3,.1-.7,.1-1-.7-2-.1-4,.1-6,0-.5,.1-1.1-.1-1.5-1-1.6-1.2-3.1-.3-4.8v-.3c-.6-.8-1.2-.5-1.8,.2-.5-.8,.2-1.2,.5-1.8h-.8c.1-.9,.1-1.8,.2-2.9-.4,.2-.6,.3-.9,.5-.3-.5-.6-1.1-.9-1.7-.1,0-.3,.1-.6,0-1-.2-1.3-.9-.6-1.7l1.5-1.5c.7-.7,1.3-1.3,1.6-2.3,.2-.7,.8-1.3,1.2-2.1,.4-.7,.6-1.5-.3-2.1-.1-.1-.1-.6-.1-1h-1c.2-1.8,1.4-2.9,2.6-4-.6-.3-1.1-.6-1.7-.9v-.5c.2-.8-.9-1.6,0-2.2,.7-.4,.8-1.2,1.4-1.7,.1-.1,.2-.2,.3-.3,.8-1.1,.7-1.4-.5-1.8-.4-.9-.8-1.8-1.1-2.8,.7-.3,1.4-.4,1.8-1.2,.2-.4,1.1-.4,1.7-.5,.6-.2,1.2-.2,.9-1.1-.1-.2,.2-.6,.4-.8,.4-.4,.9-.6,1.2-.9-.2-.2-.6-.5-.6-.8,0-.2,.4-.6,.7-.7,1.8-.5,2-2,2.5-3.3,.1-.3,.1-.6,.2-1.1h3.6c.6-.3,1.1-.5,1.7-.9,.5-.3,1-.8,1.4-1.2,.3-.3,.4-.8,.6-1.2,.7,.5,1.3,.9,2,1.3,.3-.3,.4-.7,.7-.7s.5,.3,.8,.4c.1-.3,.1-.8,.4-1.1,.2-.3,.7-.4,1.1-.6,.5-.2,.9-.6,1.5-.7,.5-.1,1,.1,1.8,.2,.5-.3,1.3-.7,2-1.1,.7,.4,1.3,.7,1.9,1-.2,.3-.3,.8-.5,1.2-.3,.1-.6,.2-.9,.4l.2,.3,.7-.7c.4-.2,.8-.3,1.2-.5,.7,.7,.7,1.1,.2,1.6-.4-.1-.8-.1-1,.5,.4-.2,.7-.3,1-.5h0Zm30.8,61.3c0,.3-.1,.6-.2,1.1,.6-.5,.6-.8,.3-1.2,0-.3-.1-.6-.1-.8-.2,.1-.4,.1-.5,.2-.2,.4,.2,.6,.5,.7Zm-47.1-9.8c-.3,.2-.7,.4-1.2,.8-.1-1.6,.6-2.7,1.5-3.6,.7-.6,1.4-1.1,2.1-1.6,.5-.4,1-.8,1.2-1.7-.5-.1-1-.1-1.4-.1-1.8-.3-3.6-.5-5.4-.8-1.9-.4-3.4-1.5-4.3-3.3-.1-.3-.4-.5-.6-.9-.1,.4-.3,.7-.3,.9-.2,1.5-.4,3-.5,4.5,0,.5,.1,.9,.1,1.4,0,.4,.1,.7,.1,1.1,.1,1.1,.3,2.1,.5,3.2,.1,.7,.3,1.3,.4,2h.4c0,.3,0,.5,.1,.8,.6-.3,1-.6,1.6-.9v1.2c1.4,0,2.9-.7,3.6,1.1,.6-1,1.2-2,1.7-3,0-.4,.2-.7,.4-1.1,.5-.5,1-1.1,1.5-1.6-1.1,.1-1.3,.9-1.5,1.6h0Zm22.8-21.2h-.6c-1.2-.1-1.2-.4-.7-1.4,.8-1.3,1.6-2.5,3.3-2.5,.1,0,.3-.1,.4-.2,.6,0,1.2-.1,1.8-.1,.5,0,.9,.3,1.4,.3,2.1,.2,3.9,1.1,5.6,2.3,.5,.3,1,.6,1.7,1-.7,.2-1.2,.3-1.6,.4,2.5,.4,4.8,1.2,7.3,1.5v-1c-.2-2.5-.4-5.1-.8-7.6-.3-1.7-.3-3.6-1.4-5.1s-2.1-3.1-3.1-4.6c0-.1-.1-.1-.2-.2-2.1-2.2-4.5-4-7.2-5.3-1.4-.7-2.9-1.4-4.3-2-.5-.2-1.1-.3-1.6-.4-.6-.1-1.3-.1-1.9-.3-1.7-.4-3.3-1.1-5.1-1-.7,0-1.4,.1-1.9-.6-.1-.2-.4-.3-.6-.2-1.2,.1-2.4,.1-3.5,.4-.9,.2-1.7,.8-2.3,1.5-.5,.6-1,1.2-1.7,1.6-1,.6-2,1.2-3,1.9-.4,.3-.9,.6-1.2,1-1.4,2-2.8,4-4.1,6-.2,.3-.4,.7-.4,1-.4,1.7-.7,3.4-1,5.1-.1,.5-.3,1-.4,1.5-.4,1-.7,1.9-1.1,2.9-.2,.6-.5,1.1-.8,1.8h1.4c2,0,4.1-.1,6,0,2.5,.2,5,.7,7.5,1.2,1.8,.4,3.6,1.1,5.4,1.5,2.7,.5,5.7,.4,8.7-.4h.9v-.2c-.4,.1-.7,.2-.9,.2h0Zm6,.5c-1.9,.2-3.7,.4-5.6,.8-2.1,.5-3.2,2-3.3,4.2-.1,1.9,.3,3.7,1.1,5.5,1.1,2.4,2.9,4,5.4,4.8,2.4,.7,4.9,1,7.4,.7,2.4-.2,4-1.5,4.9-3.7,.8-2,1.3-4,1.3-6.2,0-2.5-.9-3.8-3.2-4.7-2.5-.9-5.2-1.3-8-1.4h0Zm-26.8,13.7c.7,0,1.3-.1,2-.1,1.8-.2,3.5-.7,4.9-2,2.1-1.9,3.3-4.3,3.7-7.1,.3-2.4-.7-4.1-3-4.9-3.3-1.2-6.7-1.8-10.2-1.7-1.2,0-2.3,.2-3.5,.4-1.6,.3-2.6,1.4-3,3-.7,2.9-.5,5.7,.5,8.4,.6,1.5,1.7,2.6,3.3,3.1,1.6,.7,3.4,.9,5.3,.9h0Zm19.8,5.9c.3,.1,.8,0,1.1,.2,1.1,.7,2,.1,2.9-.2,.7-.2,.9-.9,.6-1.4-.7-1.1-1.4-2.2-2.2-3-1.1-1.1-2.3-1.9-3.5-2.8-.5-.4-.7-.8-.9-1.4-.6-2.1-1.2-4.1-1.9-6.2-.2-.7-.7-1.2-1.5-1.3-.8-.1-1.3,.3-1.7,1-.2,.4-.4,.8-.6,1.1-.6,1-1.3,2.1-1.9,3.1-.4,.6-.9,1.1-1.2,1.7-.7,1.5-1.9,2.5-3.4,3-1.6,.6-2.4,2-3.6,3-.6,.5-.4,.9,.2,1.4,.6,.5,1.2,1,1.8,1.5,.8-.2,1.6-.4,2.2-.6,.8-.7,1.4-1.2,2.1-1.8-.2-.3-.3-.5-.4-.6-.4-.5-.5-1,0-1.5s1.1-.3,1.5,.1,.8,.9,1.1,1.4c.7,1.2,1.7,1.5,2.7,.5,.2-.2,.4-.5,.7-.7,1-.8,2.1-1.3,3.4-1,1.1,.2,1.8,1,1.9,2.2,0,.3,.1,.5,.1,.8,.1,.5,.2,1,.5,1.5h0Zm9.5,7.3c.6-.2,1.3-.2,1.6-.5,.8-1,1.9-.6,2.8-.8,.2,0,.5,.1,.7,0,.9-.2,1.6-.5,2-1.4,.6-1.6,1.3-3.2,2-4.8,.2-.5,.5-.9,.7-1.4,.2-.6,.6-1.1,.7-1.7,.3-1.8,.5-3.7,.6-5.6,.1-1-.3-1.9-.8-2.8-.3,.6-.5,1.1-.7,1.7-.6,1.4-1.1,2.8-1.9,4.1-1,1.6-2.5,2.5-4.4,2.7-2.2,.3-4.3,.2-6.4-.2-.6-.1-1.2-.2-1.9-.3,.1,1.2,.8,1.7,1.4,2.2,1.9,1.9,3.6,3.9,3.4,6.8-.1,.7,.1,1.2,.2,2h0Zm-24.4,4.1c.8-1.2,1.8-1.4,3.1-1.4,1.7,0,3.5,0,5.2-.2,1.5-.2,3-.5,4.3,.5,.1,.1,.5-.1,.8-.1-.1-.3-.1-.8-.2-.8-.6-.3-1.3-.5-2-.6-1.2-.1-2.3-.3-3.4-.9-.6-.3-1.3-.5-1.9-.4-1.6,.2-3.1,0-4.6-.2-.4-.1-.8-.1-1.1-.1-.8,0-1.4,.3-1.7,1.1-.3,.7-.1,1.4,.4,1.9,.3,.3,.6,.7,1.1,1.2h0Zm37.5-8.6c-.5,1.1-.9,2.5-1,4,0,.3,0,1,.2,1,.3,.1,.9,.1,1.1-.1,1.1-.8,2.1-1.7,3.1-2.6,.5-.5,.7-1.2,.9-1.9,.2-1.1,.3-2.1,.4-3.2,.1-.9-.4-1.5-1.2-2.4-.1,1-.1,1.6-.2,2.2,0,.9-.2,1.8-1,2.3-.6,.4-1.4,.5-2.3,.7h0Zm-13.3-23.2c-2-.9-4.1-.8-4.9,0h4.9Zm-42.2,8.6c-.5,.6-.9,1.2-.8,2,1.1-.7,1.1-.8,.8-2Zm.5-7.6h.3c.1-.4,.2-.9,.3-1.5-.5,.1-.8,.2-1.1,.3,.2,.5,.4,.8,.5,1.2h0Zm69,27c-.1,.1-.2,.1-.3,.2,.2,.4,.3,.9,.5,1.3,.2-.6,.4-1.2-.2-1.5Zm-50,65.9c-.1,.1-.1,.3-.1,.4,.3,.1,.6,.1,.9,.2,0-.1,.1-.2,.1-.3l-.9-.3h0Zm1.8-11c-.2-.4-.5-.7-1.1-.1,.5,0,.8,.1,1.1,.1Zm.3-3.6c0-.1,0-.2,.1-.4-.3-.1-.6-.1-.9-.2,0,.1,0,.2-.1,.3,.3,.1,.6,.2,.9,.3h0Zm14.6-33.9c.1,.1,.1,.3,.2,.4,.4-.2,.7-.4,1-.7-.1-.1-.1-.2-.1-.3-.4,.2-.7,.4-1.1,.6Zm-16.3,44.6c0,.1-.1,.2-.1,.4,.3,.1,.6,.1,.9,.2,0-.1,0-.2,.1-.3-.3-.2-.6-.2-.9-.3h0Zm.3,2.3c-.1-.1-.2-.3-.3-.3s-.2,.1-.4,.2c.1,.1,.2,.2,.3,.2,.1,.1,.3-.1,.4-.1h0Zm1.1-11.4c-.1-.1-.2-.3-.3-.3s-.2,.1-.4,.1c.1,.1,.1,.3,.2,.4,.2,0,.4-.1,.5-.2h0Zm1.7,1.3v-.4c-.3,0-.5,.1-.8,.1v.2h.8v.1Zm-.8,1.4c0,.1-.1,.2-.1,.3,.2,.1,.4,.2,.6,.2,0,0,.1-.2,.1-.3l-.6-.2h0Zm-.3,1.9l-.1,.4c.3,.1,.6,.1,.9,.2,0-.1,0-.2,.1-.3-.3-.1-.6-.2-.9-.3Zm-1.6,1.3c.1-.1,.3-.2,.3-.3s-.1-.2-.2-.3c-.1,.1-.2,.2-.4,.3,.1,0,.2,.1,.3,.3h0Zm.8,13c.1-.1,.2-.2,.2-.4,0,0-.1-.2-.2-.1-.1,0-.2,.1-.3,.2,.1,0,.2,.1,.3,.3Zm46.7-81.7c-.1,.1-.1,.2-.2,.3l.8,.4c0-.1,.1-.2,.1-.3-.2-.1-.5-.3-.7-.4h0Zm-47.3,66.8c.2-.2,.2-.3,.3-.4-.1-.1-.2-.1-.3-.2,0,0-.1,.1-.1,.2,0,.2,.1,.3,.1,.4h0Zm-.3,3.2c0,.1-.1,.2-.1,.2,.2,.1,.4,.1,.7,.2q0-.1,.1-.2c-.3-.1-.5-.1-.7-.2h0Zm1.8,5.4q-.1-.1-.2-.2c-.1,.1-.1,.2-.2,.3,.1,0,.2,.1,.2,.1,.1,0,.1-.1,.2-.2h0Zm-1.8,16.3c-.2-.1-.2-.2-.3-.3-.1,.1-.2,.2-.2,.3,0,0,.1,.2,.2,.2,0,0,.1-.1,.3-.2h0ZM70.2,34.46v-.2h-.8v.2h.8Zm-29.8,111.7c.1,.1,.2,.1,.3,.2l.2-.3c-.1-.1-.2-.1-.4-.1,0,0,0,.1-.1,.2h0Zm.2,1.8c-.1-.1-.1-.2-.1-.2,0,0-.1,.1-.2,.1,.1,.1,.1,.2,.2,.3,0,0,0-.1,.1-.2h0Zm-2.4,6.9c0-.1,.1-.1,.1-.2-.2-.1-.4-.1-.6-.2,0,.1-.1,.1-.1,.2l.6,.2h0Zm1.3,1.2c.1,0,.1-.1,.2-.1-.1-.1-.1-.2-.1-.2-.1,0-.1,.1-.2,.1,0,.1,.1,.1,.1,.2h0Zm2-17.3c0-.1-.1-.1-.1-.2h-.1v.2s.1,0,.2,0h0Zm-5.3-57.7c-.1,0-.2,0-.3-.1v.6h.2c0-.1,.1-.3,.1-.5Zm4.4,68.8q-.1-.1-.2-.1c-.1,0-.1,.1-.2,.1,.1,.1,.2,.1,.2,.2,.1,0,.1-.1,.2-.2h0ZM19.9,56.46l.1,.2c.3-.1,.5-.2,.8-.3,0-.1-.1-.1-.1-.2-.3,.1-.6,.2-.8,.3h0Zm16.1,112.2q-.1-.1-.2-.2c-.1,.1-.2,.1-.2,.2l.1,.2c.1-.1,.2-.1,.3-.2h0Zm5.6-31.9q-.1,0-.2-.1v.1q.1,0,.2,.1v-.1Zm-7.7-56.6l-.2-.1c0,.1-.1,.3-.1,.4h.1c0-.1,.1-.2,.2-.3Zm-16.1-24.5c0-.1-.1-.1-.1-.2,0,0-.1,0-.1,.1v.2c.1,0,.1-.1,.2-.1h0Zm21.7,80l-.2-.1v.1c.1,0,.1,.1,.2,.1v-.1Zm-2.1,20.7c0-.1-.1-.1-.1-.2l-.1,.1c0,.1,.1,.1,.1,.2t.1-.1h0Zm-1.4,10.3v-.1q-.1,0-.2,.1s0,.1,.1,.1c0-.1,.1-.1,.1-.1h0Z"/></g></g><g id="Layer_2-2"><text class="cls-2" transform="translate(119.33 42.92) rotate(-3.97)"><tspan x="0" y="0">Made with</tspan><tspan x="25.5" y="28.8">Ast</tspan><tspan class="cls-1" x="62.39" y="28.8">r</tspan><tspan x="71.75" y="28.8">o!</tspan></text></g></svg>