<?xml version="1.0" encoding="utf-8"?>
<!-- Generator: Adobe Illustrator 27.0.0, SVG Export Plug-In . SVG Version: 6.00 Build 0)  -->
<svg version="1.1"
	 xmlns="http://www.w3.org/2000/svg" xmlns:xlink="http://www.w3.org/1999/xlink" x="0px" y="0px" viewBox="0 0 314.6 184.4"
	 style="enable-background:new 0 0 314.6 184.4;" xml:space="preserve">
<style type="text/css">
	.bubble{fill:none;stroke:#000000;stroke-width:2;stroke-miterlimit:10;}
</style>
<path class="bubble" d="M94.6,79.9c2.4,2.4,14-5.9,20.9-0.8c2.9,2.1,2.5,4.8,7,8.5c2.6,2.1,5.3,3.2,8.4,4.2c11.7,3.7,22.6,3.2,22.6,3.2
	c23.9-1.1,35.9-1.7,41-2c18.1-1.1,15.9,0.5,34.1-0.4c29-1.4,43.7-2.3,53.6-11.8c10-9.6,11.6-22.5,12.1-26.8
	c1.8-15-3.2-30.9-13.6-40.9c-9.7-9.4-22.3-11.8-48-12C193,0.8,120.9,0.3,111.7,29.3c-3,9.5,2.3,19.3-6.2,33.2
	C100.2,71,92.2,77.7,94.6,79.9L94.6,79.9z"/>
<path d="M89.2,163.1c-0.4-0.4-0.7-0.8-1.2-1.4c0.4,0,0.7-0.1,1.1-0.1c-0.1-0.4-0.2-0.8-0.2-1.2c0-0.8,0.1-1.5,0.9-1.9
	c0.5-0.3,0.6-0.7,0.7-1.3c0.1-0.7,0.1-1.6,0.5-2.1c0.6-0.9,1-1.8,1.1-2.8c0-0.2,0.2-0.4,0.3-0.7c-0.3-0.2-0.6-0.5-0.9-0.7
	c0.4-0.7,0.8-1.4,1.2-2c0.1-0.2,0.7-0.2,0.8-0.3c0.4-1.3,1.2-2.6,0.4-4.2c-1,0.9-0.9,2.3-1.4,3.3c-0.6,1-1.2,2.1-1.8,3.2h0.9
	c-0.3,0.4-0.5,0.8-0.8,1.1c-0.8,0.6-1,1.4-1,2.4c0,0.3-0.2,0.7-0.4,1c-0.3,0.5-0.7,1-0.9,1.6c-0.6,1.3-1.1,2.6-1.6,3.9
	c-0.3,0.8-0.4,1.7-0.6,2.6c0.3,0.4,0.5,0.8,0.8,1.2c0,0.1-0.1,0.1-0.2,0.2c-0.3-0.1-0.6-0.2-1.1-0.3c-0.6,1.3-1.2,2.7-1.8,4.1
	c-0.9-0.3-0.6-0.9-0.5-1.3c0.6-1.8,1.1-3.6,1.7-5.4c2.8-8,5.5-16,8.3-24c0.8-2.4,1.7-4.9,2.6-7.3c0.4-1,0.4-2,0-3
	c-0.9-2.2-1.8-4.4-2.7-6.5c-1.4-3.3-3.5-6.1-6.6-8.1c-0.8-0.5-1.4-1.3-2-1.9l0,0c1.1,0.1,2.2,0.1,3.4,0.2c2,0.1,4,0.3,6,0.4
	c2.1,0.2,4.2,0.5,6.3,0.6c1.9,0.1,1.9,0,2.6-1.7c1-2.7,2-5.5,3-8.2c0.1-0.4,0.4-0.7,0.8-1c-3,10.2-6.3,20.3-9.9,30.4
	c0.2,0.1,0.5,0.3,0.8,0.4c0.8,0.2,1.1,0.1,1.4-0.8c0.4-1,0.7-2.1,1-3.1c0.1-0.2,0.3-0.4,0.6-0.6c0,0.3,0.1,0.6,0,0.8
	c-0.3,1.1-0.7,2.1-1,3.2c-0.3,0.9-0.2,1.8,0.2,2.7c1.6,3.6,2.7,7.3,2.6,11.3c-0.1,2.7-0.1,5.4-0.3,8c0,0.5-0.1,1-0.3,1.5
	c-0.9,3.2-1.8,6.3-2.7,9.5c-0.2,0.6-0.3,1.2-0.5,1.8c-0.1,0-0.2,0-0.4,0c0-0.3-0.2-0.6-0.1-0.8c0.7-1.7,0.7-3.6,1.5-5.2
	c1.6-3.3,1.6-6.8,1.7-10.3c0.1-2.3,0.1-4.6,0-6.9c-0.1-2.5-0.9-4.9-1.9-7.2c-0.1-0.2-0.3-0.5-0.4-0.8c-0.7,0.3-0.7,0.9-0.9,1.4
	c-1.1,3.2-2.1,6.5-3.2,9.8c-1.5,4.7-3.1,9.5-4.7,14.2C90.2,161.7,89.6,162.3,89.2,163.1L89.2,163.1L89.2,163.1z M89.2,114
	c-0.2-0.6-0.4-1.1-1-1.2c-0.1,0.1-0.2,0.2-0.2,0.3C88.3,113.3,88.8,113.7,89.2,114c0.3,0.3,0.6,0.7,0.9,1.1c1.8,1.9,3.2,4.1,4.2,6.5
	c0.6,1.5,1.2,2.9,1.9,4.4c0.2,0.4,0.4,0.8,0.7,1.3c0.3-0.3,0.5-0.5,0.5-0.7c0.7-2.1,1.5-4.2,2.2-6.2c0.2-0.7-0.1-1.1-0.7-1.4
	c-2.3-1.1-4.5-2.3-6.8-3.4C91.1,115,90.1,114.5,89.2,114L89.2,114z M100.7,116.5c0.3-0.7,0.4-0.9,0.5-1.2c0.4-1.3,0.3-1.6-1-1.7
	c-2.3-0.3-4.6-0.4-6.9-0.7c-0.1,0-0.2,0.1-0.5,0.2c0.2,0.2,0.3,0.3,0.5,0.4c1.7,0.5,3.3,1,5,1.4C99.1,115.2,100.1,115.2,100.7,116.5
	z M97.5,134.5c-0.5,0.9-1.2,1.4-1.2,2.4c-0.1,1.1-0.5,2.3-1.6,2.9c-0.1,0-0.1,0.2-0.1,0.3c0.2,0.3,0.3,0.5,0.6,0.9
	c-0.5,0.2-0.8,0.3-1.2,0.4c0.2,0.4,0.4,0.7,0.5,1c-0.3,0.3-0.5,0.5-0.7,0.8c1.1,0.6,1.2,0.6,1.4-0.2c0.9-2.6,1.7-5.3,2.6-8
	C97.7,135,97.6,134.8,97.5,134.5L97.5,134.5z"/>
<path d="M5.4,96.7c-0.9-2-0.6-4.1-0.4-6.2c0.1-1.2,0.9-2,2-2.5c0.8-0.3,1.3-0.1,1.5,0.7c0.5,1.7,0.7,3.5-0.1,5.2
	c-0.5,1.1-0.8,2.3-1.1,3.5c-0.2,0.8-0.5,1.4-1.3,1.7c-2,0.8-4,1.5-6.2,2.1c0.6-0.6,1.2-1.2,1.8-1.8c-0.4-1-0.7-1.9-1-2.8
	c-0.4-1,0.1-2.3,0.2-3.7C2.8,94,4.1,95.4,5.4,96.7c0.2,0.4,0.4,0.8,0.7,1.2c0.1-0.1,0.2-0.1,0.2-0.2C6,97.4,5.7,97.1,5.4,96.7
	L5.4,96.7z"/>
<path d="M102.5,123c-0.3-0.5-0.2-1.1,0-1.6c2.1-6.3,4.3-12.6,6.4-18.9c1.8-5.4,3.7-10.8,5.5-16.3c0.5-1.4,1-2.9,1.8-4.2
	c-0.4,1.2-0.8,2.5-1.2,3.7c-2.7,8.2-5.4,16.4-8.1,24.6c-0.7,2-0.5,2.2,1.5,2.3c1.2,0.1,2.4,0.2,3.6,0.3c0.4,0,0.8,0.2,1.1,0.2
	c0.1,0.7-0.3,0.8-0.7,0.8c-0.8,0-1.6,0-2.4,0c-0.8,0-1.6-0.1-2.4-0.2c-1.7,0-2,0.2-2.5,1.7c-0.6,1.9-1.2,3.8-1.9,5.8
	C103,121.8,102.7,122.4,102.5,123L102.5,123L102.5,123z"/>
<path d="M43.2,134.8c0,0.2,0,0.6-0.1,0.9c-0.1,0.2-0.2,0.6-0.3,0.6c-0.7,0-1.4,0.1-2-0.1c-0.3-0.1-0.7-0.7-0.7-1.1
	c0.1-0.9,0.4-1.8,0.7-2.7c0.2-0.5,0.6-0.6,1.2-0.6c0.5,0.1,0.9,0.3,1,0.8C43,133.3,43.1,134,43.2,134.8L43.2,134.8z"/>
<path d="M14.3,97.4c-1.8,0.2-3.4,0.4-5.2,0.6c0.5-1.2,0.9-2.3,2.2-2.5C12.6,95.4,13.5,96.2,14.3,97.4L14.3,97.4z"/>
<path d="M40.7,136.6c0.7,0.3,1.4,0.4,1.9,0.7c0.6,0.3,0.7,1,0.5,1.6c-0.2,0.6-0.8,0.6-1.3,0.5c-0.6-0.2-1.3-0.4-1.9-0.9
	c-0.2-0.2-0.3-0.9-0.2-1.2C39.8,137,40.3,136.8,40.7,136.6L40.7,136.6z"/>
<path d="M21,103.8c-2-1.6-3.4-3.8-5.2-5.5c0.9,0.2,1.5,0.7,2.1,1.4c0.5,0.6,1.2,1.2,1.8,1.7c0.5,0.4,1,0.9,1.4,1.4
	c0.2,0.2,0.2,0.6,0.3,0.8C21.2,103.7,21.1,103.8,21,103.8L21,103.8z"/>
<path d="M86.4,166c0.7,0.3,1.1,0.4,1.8,0.7c-0.2,0.9-0.5,1.8-0.7,2.7c0,0.1-0.4,0.3-0.5,0.3c-0.2,0-0.5-0.2-0.5-0.4
	C86.4,168.2,86.4,167.2,86.4,166L86.4,166z"/>
<path d="M89.2,163c0.4,1.3-0.5,2.1-1.3,2.8c-0.6-0.3-0.4-0.9-0.3-1.3c0.2-0.6,0.7-1.1-0.1-1.8l0.4,0C88.3,162.9,88.8,163,89.2,163
	L89.2,163L89.2,163z"/>
<path d="M84.7,111.1c-1-0.7-2-1.3-3-1.9c0.1-0.1,0.1-0.2,0.2-0.2C82.9,109.5,83.9,110.1,84.7,111.1L84.7,111.1L84.7,111.1z"/>
<path d="M101.6,125c0,0.4,0,0.8,0,1.3C100.9,125.7,101.4,125.4,101.6,125C101.6,125,101.6,125,101.6,125z"/>
<path d="M102.4,123c-0.1,0.8-0.2,1.5-0.8,2l0,0C101.7,124.2,101.5,123.4,102.4,123L102.4,123z"/>
<path d="M116.8,79.5c-0.1,0.3-0.1,0.6-0.2,0.8c-0.1,0-0.1-0.1-0.2-0.1C116.6,80,116.7,79.8,116.8,79.5
	C116.8,79.5,116.8,79.5,116.8,79.5z"/>
<path d="M41.4,61.1c-0.3,1-0.7,1.5-1.8,1.4c-1.4,0-2.7-0.2-4-0.3c-0.9-0.1-1.9-0.1-2.8-0.1c-1.1,0-2.2,0.1-3.3,0
	c-0.5,0-0.9-0.4-1.5-0.8c2.2-1.4,4.4-2,6.8-2.1c0.4,0,0.9,0.1,1.2-0.1c1.4-0.8,2.4,0.1,3.5,0.7C40,60.3,40.6,60.7,41.4,61.1
	L41.4,61.1z"/>
<path d="M61,72.8c-2.3,1.1-8.4-0.1-9.8-1.9c0.4-0.2,0.8-0.3,1.2-0.5c-0.2-0.3-0.4-0.5-0.6-0.8c0.3-0.7,0.9-0.9,1.5-1
	c3.5-0.5,6.7,0.4,9.7,2.3c0.1,0.1,0.2,0.3,0.4,0.6c-0.5,0.1-0.9,0.2-1.2,0.2c-1.3-0.1-2.5-0.2-3.8-0.4c-0.7-0.1-1.4-0.4-2-0.5
	c-0.6-0.1-1.3,0.1-2,0.1c0.9,1,2,1.1,3.1,1.3S59.7,72.5,61,72.8L61,72.8z"/>
<path d="M39.9,70c-2.2,0.3-4.3,1.4-6.8,0.8c0.4-1.1,1.8-0.3,2.2-1.4c-0.3-0.1-0.6-0.4-0.9-0.4c-1.5-0.1-3.1-0.1-4.6-0.2
	c-0.4,0-0.9,0-1.4,0.1c-0.1-1,0.6-1.2,1-1.8c0.4,0.1,0.5,0.8,1.1,0.4c0.5-0.3,1.1-0.3,1.6-0.6c1.4-0.8,2.9-0.9,4.5-0.7
	c0.4,0.1,0.8,0,1.4,0.1c-0.2-0.4-0.3-0.6-0.4-0.7c0.1,0,0.2-0.1,0.2-0.1c0.6,0.3,1.3,0.6,1.8,1c0.7,0.6,0.8,1,0.4,1.9
	C39.9,69,39.9,69.4,39.9,70L39.9,70z M35.3,68.5c0.1,0,0.1,0.1,0.2,0.1c0-0.1,0-0.1,0.1-0.2c0,0-0.1-0.1-0.1,0
	C35.4,68.4,35.4,68.5,35.3,68.5z"/>
<path d="M22.8,66.9c0.7,1.7,0.2,3.3-0.4,4.8C22,70.1,21.8,68.5,22.8,66.9z"/>
<g id="Layer_5">
	<path d="M45.5,35.1c0.2,0.4,0.4,0.7,0.9,0.5c0.6-0.2,1.1-0.5,1.6-0.8c0.4-0.2,0.7-0.5,1.1-0.8c1.5,1.3,1.9,0.9,3.1-0.2
		c-0.2,0.8-0.4,1.4-0.6,2.2c0.9,0,1.5-0.4,2.1-1c0.4-0.4,0.9-0.4,1.4-0.4c0.7,0,1.4,0,2.2,0C57.2,35,57.1,35.5,57,36
		c0.7,0.2,1.1-0.2,1.4-0.6c1.1-1.3,1.1-1.3,2.4-0.2c1.2-0.1,2.2-1,3.6-0.9c-0.3,1.3-1.8,1.2-2.2,2.3c1.8-0.7,3.6-1.5,5.4-2.2
		c0.4-0.2,0.9-0.2,1.3-0.3c0,0.1,0.1,0.1,0.1,0.2c-0.3,1-1.3,0.9-2.1,1.2c-0.1,0.5-0.2,1-0.3,1.4c0.6,0.6,1.1,0.2,1.6,0.1
		c1.1-0.3,1.1-0.3,1.8,0.8c0.2-0.1,0.5-0.1,0.6-0.3c0.5-0.9,1.1-1.2,2-0.5c0.1,0.1,0.3,0.1,0.4,0c1.2-0.6,2,0.3,2.9,0.9l0,0
		c-0.1,0.2-0.3,0.6-0.4,0.6c-1,0-1.7,0.5-2.3,1.1c-0.3,0.4-0.9,0.5-1.2,0.9c-0.3,0.3-0.5,0.7-0.8,1.2c0.3,0.2,0.5,0.4,0.7,0.5
		c0.8,0.6,1.5,1.2,2.3,1.8c0.6,0.4,1.2,0.8,1.8,1.1c2.6,1.1,4.9,2.8,7.1,4.6c0.4,0.3,0.6,0.7,0.9,1.1c0.7,0.9,1.4,1.9,2.1,2.8
		c0.1,0.1,0.2,0.2,0.3,0.3c0.2,1.2,0.8,2.5,0.4,3.8c-0.2-1.3-1.2-2.2-2.1-3.1c-0.4-0.5-1.2-0.6-2-0.3c0.1,0.2,0.2,0.4,0.3,0.4
		c1.2,0.4,2,1.3,2.8,2.3c0.3,0.3,0.7,0.5,1,0.7c0.3,1.1,0.6,2.3,1,3.4c0.5,1.4,0.4,2.8,0.3,4.3c-0.4,0.1-0.6,0.1-1,0.2
		c0,0.5,0,1,0.1,1.4c0.2,1.1,0.1,2.2-0.4,3.2c-0.7,1.4-1.2,2.8-1.1,4.4c-1.1,0.3-1.3,0.7-1.1,1.6c0.1,0.4,0.3,0.7,0.4,1.1
		c0.1,0.5,0.1,0.9-0.5,1c-0.7-0.3-0.2-1.5-1.4-1.5c0.1,0.5,0.2,0.9,0.3,1.3c-0.2,0.3-0.6,0.7-0.7,1.1c0,0.4,0.2,0.8,0.4,1.1
		c0.4,0.5,0.6,1,0.7,1.6c0,0.5,0.4,1,0.6,1.5c0.9-0.2,1-0.7,0.8-1.3c-0.1-0.5-0.3-1-0.3-1.5c0.5,0.7,1.1,1.3,1.9,1.6
		c0.4,0.2,0.6,1,0.7,1.6c0.1,1.1,0.4,2.1,1.1,3.1c0.8,1.2,1.6,2.5,1.9,4.1c0.2,1,0.9,1.9,1.5,2.8c0.6,0.9,1.1,1.9,2.2,2.4
		c0.1,0,0.1,0.2,0.1,0.5c-0.4,0-0.7,0.1-0.9,0.1c-0.8-0.1-1.7-0.3-2.5-0.5c-1.3-0.3-1.3-0.3-2.1-1.4c-0.4,1-1.1,0.9-1.9,0.8
		c-2-0.3-4-0.3-5.9-1.2c-0.9-0.4-1.2-0.3-2.5,0.1c0.2,2.2-1.4,3.7-2.5,5.6c1.2,0.5,2.4,0.9,3.6,1.3c0.5,0.2,0.9,0.5,1,1
		c0.4,1.4,1,2.7,1.4,4.1c0.1,0.3,0.2,0.5,0.3,1c-0.5-0.2-0.8-0.2-1-0.4c-1.7-1-3.3-2-5-2.9c-0.3-0.2-0.6-0.3-0.9-0.4
		c-0.6-0.2-1-0.1-1.2,0.6c-0.2,1.1-0.9,1.4-1.9,1.4c-0.6,0-1.2,0.1-1.8,0c-2.7-0.2-5.2,0.7-7.5,1.9c-1.9,1-3.9,1.9-5.8,2.8
		c-1.3,0.6-2.4,1.5-3.4,2.5c-0.8,0.8-1,1.6-0.7,2.7c0.6,2.2,1.1,4.5,1.7,6.7c1.7,6.4,3.1,13,4,19.6c1.2,9.2,3.4,18.2,5.7,27.2
		c0.7,2.9,1.8,5.6,2.7,8.4c0.3,1,0.6,1.9,0.3,3c-0.2,0.7-0.1,1.4-0.1,2.1c0,0.4,0,0.9-0.1,1.3c-0.1,0.2-0.3,0.4-0.6,0.5
		c-0.1,0-0.4-0.3-0.4-0.5c-0.1-1-0.5-1.9-1-2.7c-0.1-0.2-0.2-0.4-0.2-0.7c-0.2-1.9-0.9-3.7-2-5.3c-0.2-0.3-0.3-0.9-0.4-1.3
		c-0.1-0.6,0-1.3-0.2-1.9c-1.1-4.3-2.2-8.6-3.2-13c-1.1-4.6-2.2-9.1-3-13.8c-0.9-5.9-2-11.8-3.3-17.6c-0.6-2.7-1.2-5.3-1.9-7.9
		c-0.1-0.5-0.4-1-0.7-1.9c-0.4,0.8-0.6,1.2-0.8,1.6c-0.2,0.6-0.4,1.2-0.5,1.8c-0.3,1.5-0.8,2.8-1.9,3.9c-0.6,0.6-0.8,1.4-0.9,2.3
		c-0.2,1.2-0.6,2.4-0.9,3.5c-0.3,1.2-0.7,2.4-1,3.5c-0.1,0.5-0.2,1.1-0.6,1.6c-0.1-0.7-0.2-1.4-0.2-2.1c0.1-1.4-0.6-2.5-1.1-3.8
		c-0.1-0.3-0.6-0.5-0.9-0.8c-0.1-0.1-0.3-0.5-0.3-0.6c0.1-0.2,0.4-0.3,0.6-0.4c0.4-0.1,0.7-0.1,1.2-0.1c0.4,1-0.4,2.4,0.9,3.4
		c0.8-1,1.6-1.8,1.3-3.1c-0.3-1.5-2.2-2.7-3.9-2.5c-0.7,0.1-1.4,0.3-2.1-0.1c-0.2-0.1-0.8,0.2-1.1,0.4c-0.2,0.3-0.6,0.8,0.2,0.9
		c0.3,1,0.6,1.9,0.9,2.9c0.1,0.3,0.2,0.6,0.3,1c0.5-0.3,0.8-0.6,1.5-1c-0.2,0.6-0.3,0.8-0.5,1.1c-1.4,2-1.8,4.3-2.2,6.6
		c-0.1,0.6,0.3,1,0.8,1.2c1,0.3,1.9,0.6,2.9,0.9c0.4,0.1,0.8,0.1,1.3,0.1c-0.3,2.1-0.6,4.1-0.8,6.2c-0.5,5.7-0.9,11.3-1.4,17
		c-0.4,4-0.9,8-1.4,12c-0.1,1.3-0.4,1.4-1.6,1.3c-1.4-0.1-2.7-0.1-4.1-0.2c-1.3-0.1-1.6-0.3-1.4-1.7c0.3-2.7,0.7-5.4,1-8.1
		c0.8-7.4,1.7-14.8,2.3-22.3c0.4-5.4,0.7-10.8,0.2-16.2c-0.1-0.8-0.1-1.6,0-2.4c0.2-1.1-0.1-2.1-0.6-3.1c-1.3-2.5-2.5-5.1-3.6-7.6
		c-1.2-2.6-3-4.5-5.4-6c-1.6-1-3.2-1.9-4.9-2.9c-0.7-0.4-0.9-0.8-0.4-1.6c0.5-0.8,1-1.5,1.4-2.3c0.2-0.3,0.3-0.6,0.5-1.1
		c-0.5,0.1-0.9,0.2-1.3,0.2c-0.1-0.1-0.3-0.1-0.3-0.2c-0.5-1-1-2-1.5-3c-0.5-1.1-1-2.2-1.6-3.3c-0.5-0.8-0.8-1.1-1.7-1.7
		c-0.7-0.5-1.4-1-2-1.6c-1.7-1.6-3.5-2.9-5.5-3.8c-0.5-0.2-0.9-0.6-1.5-1c1.2-0.6,2.5-0.6,2.6-2.1c1.4,0.1,2.3,0.9,3.2,1.6
		c0.9,0.7,1.8,1.6,2.4,2.5c0.6,0.9,0.9,2.1,1.5,3.2c0-0.3,0.1-0.7,0.1-1c-0.7-2-0.1-4,0.1-6c0-0.5,0.1-1.1-0.1-1.5
		c-1-1.6-1.2-3.1-0.3-4.8c0-0.1,0-0.2,0-0.3c-0.6-0.8-1.2-0.5-1.8,0.2c-0.5-0.8,0.2-1.2,0.5-1.8h-0.8c0.1-0.9,0.1-1.8,0.2-2.9
		c-0.4,0.2-0.6,0.3-0.9,0.5c-0.3-0.5-0.6-1.1-0.9-1.7c-0.1,0-0.3,0.1-0.6,0c-1-0.2-1.3-0.9-0.6-1.7c0.5-0.5,1-1,1.5-1.5
		c0.7-0.7,1.3-1.3,1.6-2.3c0.2-0.7,0.8-1.3,1.2-2.1c0.4-0.7,0.6-1.5-0.3-2.1c-0.1-0.1-0.1-0.6-0.1-1h-1c0.2-1.8,1.4-2.9,2.6-4
		c-0.6-0.3-1.1-0.6-1.7-0.9c0-0.2,0-0.4,0-0.5c0.2-0.8-0.9-1.6,0-2.2c0.7-0.4,0.8-1.2,1.4-1.7c0.1-0.1,0.2-0.2,0.3-0.3
		c0.8-1.1,0.7-1.4-0.5-1.8c-0.4-0.9-0.8-1.8-1.1-2.8c0.7-0.3,1.4-0.4,1.8-1.2c0.2-0.4,1.1-0.4,1.7-0.5c0.6-0.2,1.2-0.2,0.9-1.1
		c-0.1-0.2,0.2-0.6,0.4-0.8c0.4-0.4,0.9-0.6,1.2-0.9c-0.2-0.2-0.6-0.5-0.6-0.8c0-0.2,0.4-0.6,0.7-0.7c1.8-0.5,2-2,2.5-3.3
		c0.1-0.3,0.1-0.6,0.2-1.1h3.6c0.6-0.3,1.1-0.5,1.7-0.9c0.5-0.3,1-0.8,1.4-1.2c0.3-0.3,0.4-0.8,0.6-1.2c0.7,0.5,1.3,0.9,2,1.3
		c0.3-0.3,0.4-0.7,0.7-0.7c0.3,0,0.5,0.3,0.8,0.4c0.1-0.3,0.1-0.8,0.4-1.1c0.2-0.3,0.7-0.4,1.1-0.6c0.5-0.2,0.9-0.6,1.5-0.7
		c0.5-0.1,1,0.1,1.8,0.2c0.5-0.3,1.3-0.7,2-1.1c0.7,0.4,1.3,0.7,1.9,1c-0.2,0.3-0.3,0.8-0.5,1.2c-0.3,0.1-0.6,0.2-0.9,0.4l0.2,0.3
		c0.2-0.2,0.5-0.5,0.7-0.7c0.4-0.2,0.8-0.3,1.2-0.5C46,34.2,46,34.6,45.5,35.1c-0.4-0.1-0.8-0.1-1,0.5
		C44.9,35.4,45.2,35.3,45.5,35.1L45.5,35.1z M76.3,96.4c0,0.3-0.1,0.6-0.2,1.1c0.6-0.5,0.6-0.8,0.3-1.2c0-0.3-0.1-0.6-0.1-0.8
		c-0.2,0.1-0.4,0.1-0.5,0.2C75.6,96.1,76,96.3,76.3,96.4z M29.2,86.6c-0.3,0.2-0.7,0.4-1.2,0.8c-0.1-1.6,0.6-2.7,1.5-3.6
		c0.7-0.6,1.4-1.1,2.1-1.6c0.5-0.4,1-0.8,1.2-1.7c-0.5-0.1-1-0.1-1.4-0.1c-1.8-0.3-3.6-0.5-5.4-0.8c-1.9-0.4-3.4-1.5-4.3-3.3
		c-0.1-0.3-0.4-0.5-0.6-0.9c-0.1,0.4-0.3,0.7-0.3,0.9c-0.2,1.5-0.4,3-0.5,4.5c0,0.5,0.1,0.9,0.1,1.4c0,0.4,0.1,0.7,0.1,1.1
		c0.1,1.1,0.3,2.1,0.5,3.2c0.1,0.7,0.3,1.3,0.4,2h0.4c0,0.3,0,0.5,0.1,0.8c0.6-0.3,1-0.6,1.6-0.9v1.2c1.4,0,2.9-0.7,3.6,1.1
		c0.6-1,1.2-2,1.7-3C28.8,87.3,29,87,29.2,86.6c0.5-0.5,1-1.1,1.5-1.6C29.6,85.1,29.4,85.9,29.2,86.6L29.2,86.6z M52,65.4
		c-0.2,0-0.4,0-0.6,0c-1.2-0.1-1.2-0.4-0.7-1.4c0.8-1.3,1.6-2.5,3.3-2.5c0.1,0,0.3-0.1,0.4-0.2c0.6,0,1.2-0.1,1.8-0.1
		c0.5,0,0.9,0.3,1.4,0.3c2.1,0.2,3.9,1.1,5.6,2.3c0.5,0.3,1,0.6,1.7,1c-0.7,0.2-1.2,0.3-1.6,0.4c2.5,0.4,4.8,1.2,7.3,1.5
		c0-0.5,0-0.8,0-1c-0.2-2.5-0.4-5.1-0.8-7.6c-0.3-1.7-0.3-3.6-1.4-5.1c-1.1-1.5-2.1-3.1-3.1-4.6c0-0.1-0.1-0.1-0.2-0.2
		c-2.1-2.2-4.5-4-7.2-5.3c-1.4-0.7-2.9-1.4-4.3-2c-0.5-0.2-1.1-0.3-1.6-0.4c-0.6-0.1-1.3-0.1-1.9-0.3c-1.7-0.4-3.3-1.1-5.1-1
		c-0.7,0-1.4,0.1-1.9-0.6c-0.1-0.2-0.4-0.3-0.6-0.2c-1.2,0.1-2.4,0.1-3.5,0.4c-0.9,0.2-1.7,0.8-2.3,1.5c-0.5,0.6-1,1.2-1.7,1.6
		c-1,0.6-2,1.2-3,1.9c-0.4,0.3-0.9,0.6-1.2,1c-1.4,2-2.8,4-4.1,6c-0.2,0.3-0.4,0.7-0.4,1c-0.4,1.7-0.7,3.4-1,5.1
		c-0.1,0.5-0.3,1-0.4,1.5c-0.4,1-0.7,1.9-1.1,2.9c-0.2,0.6-0.5,1.1-0.8,1.8c0.5,0,0.9,0,1.4,0c2,0,4.1-0.1,6,0
		c2.5,0.2,5,0.7,7.5,1.2c1.8,0.4,3.6,1.1,5.4,1.5C46,66.3,49,66.2,52,65.4l0.9,0c0-0.1,0-0.1,0-0.2C52.5,65.3,52.2,65.4,52,65.4
		L52,65.4z M58,65.9c-1.9,0.2-3.7,0.4-5.6,0.8c-2.1,0.5-3.2,2-3.3,4.2c-0.1,1.9,0.3,3.7,1.1,5.5c1.1,2.4,2.9,4,5.4,4.8
		c2.4,0.7,4.9,1,7.4,0.7c2.4-0.2,4-1.5,4.9-3.7c0.8-2,1.3-4,1.3-6.2c0-2.5-0.9-3.8-3.2-4.7C63.5,66.4,60.8,66,58,65.9L58,65.9z
		 M31.2,79.6c0.7,0,1.3-0.1,2-0.1c1.8-0.2,3.5-0.7,4.9-2c2.1-1.9,3.3-4.3,3.7-7.1c0.3-2.4-0.7-4.1-3-4.9c-3.3-1.2-6.7-1.8-10.2-1.7
		c-1.2,0-2.3,0.2-3.5,0.4c-1.6,0.3-2.6,1.4-3,3c-0.7,2.9-0.5,5.7,0.5,8.4c0.6,1.5,1.7,2.6,3.3,3.1C27.5,79.4,29.3,79.6,31.2,79.6
		L31.2,79.6z M51,85.5c0.3,0.1,0.8,0,1.1,0.2c1.1,0.7,2,0.1,2.9-0.2c0.7-0.2,0.9-0.9,0.6-1.4c-0.7-1.1-1.4-2.2-2.2-3
		c-1.1-1.1-2.3-1.9-3.5-2.8c-0.5-0.4-0.7-0.8-0.9-1.4c-0.6-2.1-1.2-4.1-1.9-6.2c-0.2-0.7-0.7-1.2-1.5-1.3c-0.8-0.1-1.3,0.3-1.7,1
		c-0.2,0.4-0.4,0.8-0.6,1.1c-0.6,1-1.3,2.1-1.9,3.1c-0.4,0.6-0.9,1.1-1.2,1.7c-0.7,1.5-1.9,2.5-3.4,3c-1.6,0.6-2.4,2-3.6,3
		c-0.6,0.5-0.4,0.9,0.2,1.4c0.6,0.5,1.2,1,1.8,1.5c0.8-0.2,1.6-0.4,2.2-0.6c0.8-0.7,1.4-1.2,2.1-1.8c-0.2-0.3-0.3-0.5-0.4-0.6
		c-0.4-0.5-0.5-1,0-1.5c0.5-0.5,1.1-0.3,1.5,0.1c0.4,0.4,0.8,0.9,1.1,1.4c0.7,1.2,1.7,1.5,2.7,0.5c0.2-0.2,0.4-0.5,0.7-0.7
		c1-0.8,2.1-1.3,3.4-1c1.1,0.2,1.8,1,1.9,2.2c0,0.3,0.1,0.5,0.1,0.8C50.6,84.5,50.7,85,51,85.5L51,85.5z M60.5,92.8
		c0.6-0.2,1.3-0.2,1.6-0.5c0.8-1,1.9-0.6,2.8-0.8c0.2,0,0.5,0.1,0.7,0c0.9-0.2,1.6-0.5,2-1.4c0.6-1.6,1.3-3.2,2-4.8
		c0.2-0.5,0.5-0.9,0.7-1.4c0.2-0.6,0.6-1.1,0.7-1.7c0.3-1.8,0.5-3.7,0.6-5.6c0.1-1-0.3-1.9-0.8-2.8c-0.3,0.6-0.5,1.1-0.7,1.7
		c-0.6,1.4-1.1,2.8-1.9,4.1c-1,1.6-2.5,2.5-4.4,2.7c-2.2,0.3-4.3,0.2-6.4-0.2c-0.6-0.1-1.2-0.2-1.9-0.3c0.1,1.2,0.8,1.7,1.4,2.2
		c1.9,1.9,3.6,3.9,3.4,6.8C60.2,91.5,60.4,92,60.5,92.8L60.5,92.8z M36.1,96.9c0.8-1.2,1.8-1.4,3.1-1.4c1.7,0,3.5,0,5.2-0.2
		c1.5-0.2,3-0.5,4.3,0.5c0.1,0.1,0.5-0.1,0.8-0.1c-0.1-0.3-0.1-0.8-0.2-0.8c-0.6-0.3-1.3-0.5-2-0.6c-1.2-0.1-2.3-0.3-3.4-0.9
		c-0.6-0.3-1.3-0.5-1.9-0.4c-1.6,0.2-3.1,0-4.6-0.2c-0.4-0.1-0.8-0.1-1.1-0.1c-0.8,0-1.4,0.3-1.7,1.1c-0.3,0.7-0.1,1.4,0.4,1.9
		C35.3,96,35.6,96.4,36.1,96.9L36.1,96.9z M73.6,88.3c-0.5,1.1-0.9,2.5-1,4c0,0.3,0,1,0.2,1c0.3,0.1,0.9,0.1,1.1-0.1
		c1.1-0.8,2.1-1.7,3.1-2.6c0.5-0.5,0.7-1.2,0.9-1.9c0.2-1.1,0.3-2.1,0.4-3.2c0.1-0.9-0.4-1.5-1.2-2.4c-0.1,1-0.1,1.6-0.2,2.2
		c0,0.9-0.2,1.8-1,2.3C75.3,88,74.5,88.1,73.6,88.3L73.6,88.3z M60.3,65.1c-2-0.9-4.1-0.8-4.9,0H60.3z M18.1,73.7
		c-0.5,0.6-0.9,1.2-0.8,2C18.4,75,18.4,74.9,18.1,73.7z M18.6,66.1c0.1,0,0.2,0,0.3,0c0.1-0.4,0.2-0.9,0.3-1.5
		c-0.5,0.1-0.8,0.2-1.1,0.3C18.3,65.4,18.5,65.7,18.6,66.1L18.6,66.1z M87.6,93.1c-0.1,0.1-0.2,0.1-0.3,0.2c0.2,0.4,0.3,0.9,0.5,1.3
		C88,94,88.2,93.4,87.6,93.1z M37.6,159c-0.1,0.1-0.1,0.3-0.1,0.4c0.3,0.1,0.6,0.1,0.9,0.2c0-0.1,0.1-0.2,0.1-0.3L37.6,159L37.6,159
		z M39.4,148c-0.2-0.4-0.5-0.7-1.1-0.1C38.8,147.9,39.1,148,39.4,148z M39.7,144.4c0-0.1,0-0.2,0.1-0.4c-0.3-0.1-0.6-0.1-0.9-0.2
		c0,0.1,0,0.2-0.1,0.3C39.1,144.2,39.4,144.3,39.7,144.4L39.7,144.4z M54.3,110.5c0.1,0.1,0.1,0.3,0.2,0.4c0.4-0.2,0.7-0.4,1-0.7
		c-0.1-0.1-0.1-0.2-0.1-0.3C55,110.1,54.7,110.3,54.3,110.5z M38,155.1c0,0.1-0.1,0.2-0.1,0.4c0.3,0.1,0.6,0.1,0.9,0.2
		c0-0.1,0-0.2,0.1-0.3C38.6,155.2,38.3,155.2,38,155.1L38,155.1z M38.3,157.4c-0.1-0.1-0.2-0.3-0.3-0.3c-0.1,0-0.2,0.1-0.4,0.2
		c0.1,0.1,0.2,0.2,0.3,0.2C38,157.6,38.2,157.4,38.3,157.4L38.3,157.4z M39.4,146c-0.1-0.1-0.2-0.3-0.3-0.3c-0.1,0-0.2,0.1-0.4,0.1
		c0.1,0.1,0.1,0.3,0.2,0.4C39.1,146.2,39.3,146.1,39.4,146L39.4,146z M41.1,147.3c0-0.1,0-0.2,0-0.4c-0.3,0-0.5,0.1-0.8,0.1
		c0,0.1,0,0.2,0,0.2H41.1L41.1,147.3z M40.3,148.7c0,0.1-0.1,0.2-0.1,0.3c0.2,0.1,0.4,0.2,0.6,0.2c0,0,0.1-0.2,0.1-0.3L40.3,148.7
		L40.3,148.7z M40,150.6l-0.1,0.4c0.3,0.1,0.6,0.1,0.9,0.2c0-0.1,0-0.2,0.1-0.3C40.6,150.8,40.3,150.7,40,150.6z M38.4,151.9
		c0.1-0.1,0.3-0.2,0.3-0.3s-0.1-0.2-0.2-0.3c-0.1,0.1-0.2,0.2-0.4,0.3C38.2,151.6,38.3,151.7,38.4,151.9L38.4,151.9z M39.2,164.9
		c0.1-0.1,0.2-0.2,0.2-0.4c0,0-0.1-0.2-0.2-0.1c-0.1,0-0.2,0.1-0.3,0.2C39,164.6,39.1,164.7,39.2,164.9z M85.9,83.2
		c-0.1,0.1-0.1,0.2-0.2,0.3l0.8,0.4c0-0.1,0.1-0.2,0.1-0.3C86.4,83.5,86.1,83.3,85.9,83.2L85.9,83.2z M38.6,150
		c0.2-0.2,0.2-0.3,0.3-0.4c-0.1-0.1-0.2-0.1-0.3-0.2c0,0-0.1,0.1-0.1,0.2C38.5,149.8,38.6,149.9,38.6,150L38.6,150z M38.3,153.2
		c0,0.1-0.1,0.2-0.1,0.2c0.2,0.1,0.4,0.1,0.7,0.2c0-0.1,0-0.1,0.1-0.2C38.7,153.3,38.5,153.3,38.3,153.2L38.3,153.2z M40.1,158.6
		c-0.1-0.1-0.1-0.1-0.2-0.2c-0.1,0.1-0.1,0.2-0.2,0.3c0.1,0,0.2,0.1,0.2,0.1C40,158.8,40,158.7,40.1,158.6L40.1,158.6z M38.3,174.9
		c-0.2-0.1-0.2-0.2-0.3-0.3c-0.1,0.1-0.2,0.2-0.2,0.3c0,0,0.1,0.2,0.2,0.2C38,175.1,38.1,175,38.3,174.9L38.3,174.9z M70,41.2
		c0,0,0-0.1,0-0.2h-0.8c0,0,0,0.1,0,0.2H70z M40.2,152.9c0.1,0.1,0.2,0.1,0.3,0.2l0.2-0.3c-0.1-0.1-0.2-0.1-0.4-0.1
		C40.3,152.7,40.3,152.8,40.2,152.9L40.2,152.9z M40.4,154.7c-0.1-0.1-0.1-0.2-0.1-0.2s-0.1,0.1-0.2,0.1c0.1,0.1,0.1,0.2,0.2,0.3
		C40.3,154.9,40.3,154.8,40.4,154.7L40.4,154.7z M38,161.6c0-0.1,0.1-0.1,0.1-0.2c-0.2-0.1-0.4-0.1-0.6-0.2c0,0.1-0.1,0.1-0.1,0.2
		L38,161.6L38,161.6z M39.3,162.8c0.1,0,0.1-0.1,0.2-0.1c-0.1-0.1-0.1-0.2-0.1-0.2c-0.1,0-0.1,0.1-0.2,0.1
		C39.2,162.7,39.3,162.7,39.3,162.8L39.3,162.8z M41.3,145.5c0-0.1-0.1-0.1-0.1-0.2c0,0-0.1,0-0.1,0c0,0.1,0,0.1,0,0.2
		C41.1,145.5,41.2,145.5,41.3,145.5L41.3,145.5z M36,87.8c-0.1,0-0.2,0-0.3-0.1l0,0.6l0.2,0C35.9,88.2,36,88,36,87.8z M40.4,156.6
		c-0.1-0.1-0.1-0.1-0.2-0.1s-0.1,0.1-0.2,0.1c0.1,0.1,0.2,0.1,0.2,0.2C40.3,156.8,40.3,156.7,40.4,156.6L40.4,156.6z M19.7,63.2
		l0.1,0.2c0.3-0.1,0.5-0.2,0.8-0.3c0-0.1-0.1-0.1-0.1-0.2C20.2,63,19.9,63.1,19.7,63.2L19.7,63.2z M35.8,175.4
		c-0.1-0.1-0.1-0.1-0.2-0.2c-0.1,0.1-0.2,0.1-0.2,0.2c0,0,0.1,0.2,0.1,0.2C35.6,175.5,35.7,175.5,35.8,175.4L35.8,175.4z
		 M41.4,143.5c-0.1,0-0.1,0-0.2-0.1c0,0,0,0.1,0,0.1c0.1,0,0.1,0,0.2,0.1C41.4,143.6,41.4,143.6,41.4,143.5z M33.7,86.9l-0.2-0.1
		c0,0.1-0.1,0.3-0.1,0.4l0.1,0C33.5,87.1,33.6,87,33.7,86.9z M17.6,62.4c0-0.1-0.1-0.1-0.1-0.2c0,0-0.1,0-0.1,0.1c0,0.1,0,0.2,0,0.2
		C17.5,62.5,17.5,62.4,17.6,62.4L17.6,62.4z M39.3,142.4l-0.2-0.1c0,0,0,0.1,0,0.1c0.1,0,0.1,0.1,0.2,0.1
		C39.3,142.5,39.3,142.4,39.3,142.4z M37.2,163.1c0-0.1-0.1-0.1-0.1-0.2c0,0-0.1,0.1-0.1,0.1c0,0.1,0.1,0.1,0.1,0.2
		C37.1,163.2,37.1,163.2,37.2,163.1L37.2,163.1z M35.8,173.4c0,0,0-0.1,0-0.1c-0.1,0-0.1,0-0.2,0.1c0,0,0,0.1,0.1,0.1
		C35.7,173.4,35.8,173.4,35.8,173.4L35.8,173.4z"/>
</g>
</svg>
