<?xml version="1.0" encoding="utf-8"?>
<svg version="1.1" id="Layer_1" xmlns="http://www.w3.org/2000/svg" xmlns:xlink="http://www.w3.org/1999/xlink" x="0px" y="0px"
	 viewBox="0 0 595.3 841.9" style="enable-background:new 0 0 595.3 841.9;" xml:space="preserve">
<g id="rest">
	<path d="M427.4,122.5c-72.5-1.7-145-3.4-217.5-5.1c2,1.2,4,1.6,6.1,1.4c3-0.3,5.2,0.1,6.7,1.1c6.5,0.1,12.4,1.4,18.7,1.2
		c0.9-0.9,2.4-1.3,4.8-1.2c51.4,1.8,102.7,3.4,154.1,5.1c9.6,0.3,19.1,0.9,28.9,1.3L427.4,122.5z"/>
	<path d="M486.1,189.8c-4.7-1.1-8.4-0.5-12.5,1.7c0-8.3-0.1-15.9,0-23.5c0.3-10.9,0.6-21.8,1.3-32.7c0.4-5.6-1.4-8-7.2-7.7
		c-3.3,0.2-6.9,0.4-11-2.9c8-2.3,15-1.4,21.9-0.9c8.4,0.6,11,5.2,10.3,13.4C487.6,154.5,487,171.8,486.1,189.8z"/>
</g>
<path id="cross" d="M427.7,239.3c0.1-0.3,0.2-0.5,0.3-0.8c-0.5-1.3-0.7-2.7-0.6-4.1c-8.4-0.1-16.7-0.3-25.1,0.8
	c-6.7,0.9-13.6,0.2-20.5,0.2c0-0.2,0-0.5,0-0.7c3.8-0.5,7.6-1.1,11.4-1.6c-1.8-1.5-3.3-1.5-4.9-1.5c-13.1,0.7-25.5,5.4-38.7,6.1
	c-15.5,0.9-31,1-46.6,1.8c-8.1,0.4-16.9-2.5-24.5,3.2c-1.2-0.3-2.7-0.6-4.1-0.9c-1.4,1.9-1.7,4.9-5,3.2c-0.5-0.9-1-1.9-1.5-3.1
	c-1.7,0.4-3.3,0.7-4.6,1c-5.8-5.5-12.5-2.1-18.6-2.2c-4.8-0.1-7.5-0.9-7.7-5.5c0-0.5,0-1,0-1.5c0.3-5.4,0.1-10.8,0.1-16.3
	c0,0-0.1,0-0.1,0c0-15.6,0-31.3,0-47.1c0,0.1,0.1,0.2,0.1,0.4c0.8-4,1.3-5.5,1.4-7c0.6-12.6,1.2-25.2,1.5-37.8
	c0.1-2.3,0.4-3.8,1.4-4.7c-6.3,0.2-12.2-1.2-18.7-1.2c2.3,1.5,2.9,4.5,2.4,8.9c-0.7,6.5-0.3,13.1-0.1,19.7c0.1,3.2-0.3,6.7,0.4,9.4
	c-0.1,1.5-0.1,3.3-0.2,5.3c-0.1,15.7,2.3,17.6,4.3,19.4c3.9,3.6,6,15.2,6,37.4c0,0.9,0,1.8,0,2.7c-0.2,1.9-0.4,3.8-0.7,5.9H223
	c-0.6,5.6-1.3,10.7,2.5,15.4c-1.3,1.4-2.6,2.8-3.9,4.3c-2.3-2.6,0.2-7.3-5-7.6c-28.4-2.1-56.8-1.2-85.2-1
	c-18.5,0.2-36.7,4.6-55.4,2.8c-6.3-0.6-12.9,0.6-19.3,1.1c29.6,1.7,58.5,11.9,88.9,7.2v-3.9c3.8,4.2,8.8,1.5,13.1,3.9
	c-1.8,0.3-3.1,0.5-4.3,0.7c19.2-0.9,38.3-1.7,56.5,0.6c3.4,9.1-3.6,10.1-9,12.5c8-1,15.3,4.7,22.9,0.3c3,6.6,1.1,12.8,0.5,18.8
	c-0.9,8.7-4.5,17.2-5.1,25.5c-0.6,8.5-0.1,17.4-0.2,26.1c-0.3,24-1.5,48-2.3,71.9c-1.3,38.7-2.7,77.5-2,116.3
	c0.4,22.2,0.5,44.4-0.4,66.5c-0.6,13.5-0.8,27.1-1.9,40.7c-1.9,22.4-1.4,45.1-2,67.7c-1.3,45.8-2.7,91.5-4.1,137.3
	c-0.1,3.8,0.4,7,5.2,6.3c4.4-0.6,10.3,0.5,10.4-6.7c0.3-22,0.5-44,0.8-66c1.3-108.7,4-217.3,7-326c1.6-56.1,3.1-112.1,4.6-168.2
	c0.1-4.5,1.8-6.9,6.3-6.7c12.6,0.5,25-0.4,37.8-8.3c-1.9,10.1,3,8.9,7.8,8.8c5-0.1,10,1,15,0.7c6.7-0.4,13.5,2.1,23-0.7
	c-15-3-27.8-0.8-39.4-3.8c1.2-12.2,10.6-9.2,17.7-10.6c-3.2-0.6-6.2-0.6-9.3-0.6s-6.3,0.4-9.6-2.6c16.2,1.8,32-3.6,47.2,2.6
	c-1-0.5-2.1-1-3.1-1.5c0-4.7,2.2-6.6,6.4-5.4c3.5,1,6.9,2.6,10.4,3.8c13.7,4.6,27.6-4.6,41.3,0.9c-2.4-1-4-2.6-5.3-5
	c2.7-0.4,5-0.7,8.9-1.2c-2.2,1.6-2.9,2.1-3.6,2.7c6.4-1.7,12.3,0,18.3,1.4c-0.2,0.4-0.6,0.9-1.2,1.8c3-0.1,5.7,1.1,7.8-1.9
	c-2.7-3.5-6.7-1.7-11.9-3.4c9.1-0.6,16.5-1.2,22.5,2.9c1.5,1,2.8,1.5,3.9,1.6c-0.8-1.7-1-3.6-0.6-5.4
	C426.1,243.1,426.9,241.2,427.7,239.3z"/>
<g id="Sign">
	<path d="M427.8,115.2c-51.1-1.4-101.8-2.8-152.6-4.2c-1.5,4.7,0.8,5.4,4.3,5.5c40.9,1.2,81.8,2.5,122.6,3.8
		c7.6,0.2,18.1,0.2,25.7,0.5"/>
	<path d="M275.4,8c1.5-2.3,4-2.8,6.9-2.7C344.8,7.7,407.4,10,470,12.4c19.7,0.7,39.3,1.5,59,2.3c9.7,0.4,15.3,5.1,14.9,15.2
		c-0.8,27.4-1.7,54.8-2.9,82.1c-0.3,7.3-5.2,11.5-12.3,12c-6.1,0.5-12.3,0.1-20.9,0.1c7.5,1.7,13-0.2,18.4,2.3
		c-6.2,3.1-33.4,2.7-35.6-0.4c2.2-3.2,5.8-0.9,8.5-3.7c-12.6,0-25.1,0.1-37.7,0c-2.7,0-5.6-0.4-4.7-5.4c7.8,0,15.6-0.2,23.5,0
		c15.7,0.4,31.3,0.9,47,1.4c5.4,0.2,8.1-2.7,8.6-7.8c2.3-27.5,2.8-55,2.5-82.5c-0.1-6.6-5.1-7.8-10.6-8c-33.7-1.3-67.3-2.8-101-4
		c-74.5-2.6-149.1-5.1-223.7-7.6C189.4,8,188.6,9,188.3,22.5c-0.6,25.1-1.3,50.1-1.9,75.2c-0.2,7,2.8,10.3,10.4,10.4
		c24.2,0.4,48.4,1.5,72.6,2.3c1.9,0.1,3.7,0.8,3.6,3.2c-0.2,2.5-2.2,2.6-4,2.5c-25.1-0.8-50.1-1.4-75.2-2.5
		c-8.8-0.4-14.7-8.1-14.1-17.1c0.4-5.9,0.7-11.6-1.8-17.4c-1.7-3.9,1.4-7.8,2.4-11.7c2.5-9.1,1.9-18.9,0.5-28.3
		c-0.4-2.4-0.6-4.2,0.2-6.6c1.3-3.8,1.6-7.4-1.1-11.3c-4-5.7,5.9-18.7,14.9-18.6C219.5,3,244.3,4,269.1,5C271,5.1,272.9,6.8,275.4,8
		z"/>
	<g id="text">
		<path d="M245.6,60.8c-1.6-2.6-2-4.5-0.8-7.4c3.1-7.6-1.7-15.9-9.6-16.3c-1.1,2.4-2.3,4.8-0.1,6.9c2.2,2.1,4.2,4.2,2.2,7.2
			c-2.4,3.6-6.4,3-9.8,2.5c-2.5-0.4-4.9-2.1-4.7-5.3c0.3-4.1,3.5-4.8,6.6-5.3c2.9-0.5,3.4-2.5,3.3-4.8c-0.1-2.7-2.2-2.9-4.2-2.6
			c-6.2,0.8-12.3,3.5-12.6,9.9c-0.4,8.2-0.4,16-2.8,24.1c-1.7,5.8,4.6,9.8,10.3,11.6c7.9,2.4,15.5,1.6,21.2-5
			C248.7,71.6,248.7,66,245.6,60.8z M229.9,75.8c-10.5-0.3-10-15.3,0.4-15C240.9,61.1,240.5,76.1,229.9,75.8z"/>
		<path d="M334.9,66.4c-5.1-6.1-10.7-12-20.7-10.8c2.5-7.4,8.7-10.3,13-16c-3.9,1.3-7.2,2-10.2,3.3c-8,3.7-8.8,12.1-12.2,18.8
			c-4,8.2-3.4,15.3,4.8,20.4c7.7,4.8,19.2,3.3,24.3-3.3C336.8,75,338.2,70.4,334.9,66.4z M318.3,78.5c-10.8-0.7-10.4-17.1,0.7-16.3
			C330.3,63.1,329.8,79.3,318.3,78.5z"/>
		<path d="M373.1,71c0-0.9,0-1.8,0-2.7c0.4-14.5,8.5-19,21.5-11.6c3.7,2.1,6.5-0.7,9.3-1.4c7.4-1.8,10.1,2.4,11.9,7.7
			c2.3,7.1,0.4,14.6,0.2,21.8c0,2.3-1.9,2.8-3.9,2.7c-2.3-0.1-3.5-1.4-3.5-3.7c0.1-5.3,0.3-10.5,0.4-15.8c0-3.5-0.9-6.6-5.2-6.7
			c-4-0.1-5.1,2.9-5.2,6.3c-0.2,5.1-0.3,10.3-0.4,15.4c-0.1,2.4-1,3.9-3.7,3.8c-2.5-0.1-3.7-1.4-3.7-3.9c0.1-5,0.2-10,0.2-15
			c0.1-3.7-0.7-7-5.2-7.1s-5.1,3.5-5.2,7.1c-0.1,4.8-0.2,9.5-0.3,14.3c-0.1,2.8-1.3,4.3-4.3,4.1c-3-0.2-3.6-2-3.5-4.5
			C372.8,78.2,372.9,74.6,373.1,71z"/>
		<path d="M487,44.5c9.9,1.1,3.6,10.2,7.5,14.8c6-4.4,11.5-2.1,14.8,3.4c5.2,8.3,0.7,17.5,1.8,26.1c-4.5,1.9-7.2,1.5-7.1-3.3
			c0-4.5,0.2-9,0.2-13.5c0-3.9-1.2-7.1-5.7-7.2c-4.3-0.1-5.6,3.1-5.8,6.8c-0.2,4.9-0.3,9.8-0.4,14.7c-0.1,2-0.9,3.5-3.2,3.6
			c-1.8,0.1-3.3-0.4-3.9-2.3C484.4,85,485.7,48,487,44.5z"/>
		<path d="M281.3,46.3c-7.1-4.8-18.1,2.3-22.5-7.8c6.5-0.4,13.4-3,18.3,3.3c3.5-2.4,7.9-2.2,11.3-0.2c3.8,2.2,0.9,5.7-0.3,8.5
			c-4.2,9.5-8.7,18.9-12.8,28.5c-1.9,4.5-4.8,5.1-9.1,3.7C271.3,70.2,276.3,58.2,281.3,46.3z"/>
		<path d="M440.2,60.9c4.5-6.7,11.2-6.8,17.1-3.8c7.8,4,11.3,11.2,8.9,20.1c-1.7,6.3-5.7,10.7-12.9,11.5c-0.5-3.4,0.5-6.1,2.4-8.1
			c4-4.5,5.2-9.3,1.8-14.3c-3.3-4.9-8-4.2-12.5-1.6C443.1,63.3,442.8,60.5,440.2,60.9L440.2,60.9z"/>
		<path d="M478.4,85.8c-0.4,2.6-1.9,4-4.4,3.9s-4-1.8-4-4.3s1.3-4.2,4-4.1C476.8,81.4,477.9,83.3,478.4,85.8z"/>
		<path d="M461.2,45.5c2.4,0.3,4.5,1.2,4.6,4c0,2.4-1.6,3.9-3.9,3.9c-2.7,0-4.3-1.6-4.4-4.3C457.4,46.9,458.8,45.7,461.2,45.5z"/>
		<path d="M439.3,45.5c2.3,0.7,5.5-0.4,6.3,3.1c0.4,1.8-0.6,3.2-2.3,3.9c-2,0.9-3.8,0.3-5.1-1.4C436.7,49.1,437.1,47.3,439.3,45.5z"
			/>
		<path d="M440.2,60.8c-0.7,4-1.4,8.1-2.2,12.7C434.5,68.1,435.4,64.1,440.2,60.8C440.2,60.9,440.2,60.8,440.2,60.8z"/>
		<path d="M424.4,87.4c-2.7-1.7-3.1-3.3-1.3-5.5C425.3,83.2,424.9,85,424.4,87.4z"/>
	</g>
</g>
<g id="dilan">
	<path d="M559,328c1.2-17.8-10.3-34.8-7.8-53.8c1.2-8.6-2.2-17.6,1.4-26.2c0.2-0.9,0.5-1.8,1.1-2.8c3.5-5.7,0.7-14-3.3-21.4
		c-2.5-2.4-4.9-5-6.9-8c-6.4-9.7-24.2-14.1-33.5-8.5c0.5,7.8-5.3,9.5-11,10.8c-3.9,0.9-6.1-1-5.2-7.9c-4.4,8.8-8.9,14.4-10.6,23.5
		c3.4-2.9,5.3-4.6,7.5-6.5c4,6.2,2.2,10.6-3.5,14.1c2.5,0.2,4.7-0.1,6.6,0.7c2,0.8,4.4,2.8,3.2,5c-2.6,4.7-7.4,3.7-11.7,3.4
		c-3-0.3-5.6-1.5-5.3-5.3c0.5-6.3-0.6-12-5.7-15.7c-9.9,2-14.9,9.5-20.7,15.7c7,8-6.9,16.7,1.5,24.3c6.8-3.5,0.3-10.8,3.9-15.3
		c5,1.2,20.6,9.4,22.3,11.7c-1.1,0.6-2.2,1.1-3.5,1.8c1.7,3.2,3.3,6,4.9,9.1c6.8-6.7,13.2-4.5,28.6,9.3c-1.7,2.1-0.5,5.9-4.4,6.8
		c2.8,3.2,8,1.2,10.4,6.5c-6.6-2.8-12.4-5.1-19.7-4.5c30.3,12.8,30.6,13.8,10.7,33.9c1.3,3.3,4,1.8,6.2,1.6c2.5-0.2,5.5-1.6,7.1,1.2
		c1.7,3.1-1,5.3-3.1,7.2c-3.8,3.6-7.8,7-9.1,12.5c5.1,0.4,17.2,7.8,19.4,11.8c1.9-0.6,2.3-3.6,5.7-3c1.5,4.5,2.9,9.7,8.1,15.9
		c-0.8-11.2,2-19.2,9-26.1c3.3,6.6,6.6,13.1,9.6,19.7c0.9,1.9-0.2,5.4,3.4,4.7c3.3-0.6,3.5-3.5,2.8-6.1
		C563.7,354.8,557.9,342.9,559,328z"/>
	<path d="M594.2,448.8c-3.4-5.7-6.3-12-13.5-14.2c-9.4-2.9-19.1-5.1-28.3-1c-6.6,2.9-11.5,2.6-17.9-0.8c-3.5-1.8-5.6-8.5-10.9-5.2
		c-2.6,1.6-4.2,5-6.3,7.6c-3.2,3.8-4.1,7.6-2.9,12.8c1.3,5.9-4,10.7-4.8,16.2c-1.2,7.7-4.6,12.1-12.5,12.9c-0.8-0.9-1.6-1.7-2.3-2.4
		c-2.3,1.6-2.4,5.3-6.3,5.2c-3.1-5.3,1.2-10.4,0.8-16.6c-5.1,4.9-6.6,11.8-13,15.7c-0.1-2.3-0.8-4.1-0.2-5.2
		c6.8-12.1,7.2-26,10.6-39.1c2.5-9.4,11.9-18.4,3.6-29.3c-0.3-0.4,0-1.3,0.3-1.8c4.1-6.6,4.3-13.8,3.3-21.2c-0.3-2.6,0-5.3,2.3-7.4
		c7,5.9,3.9,20,17.4,20.3c3.8,6,7.7,1.6,12.1,0.5c-2.8-4.1-14.3,3.8-9.7-7.3c1.7-4.2,8.4-6.3,14.8-10.8c-7.2,1.3-11.9,2-16.5,3
		c-5.3,1.2-9-1-10.8-5.7c-7.4-20.1-19.7-37.2-32-54.5c-11.7-16.5-22.3-34-31.2-52.8c-1.7,4.8,0.6,11-5,14.1c0.7,1.4,1.2,2.5,2,4.1
		c-6.3,1.2-8.2-6.3-14.2-6.1c-0.2,1.9-0.5,3.7-0.5,5.5c0.3,10.7-3.3,20.2-13.1,24.3c-16.5,6.9-13.8,23.8-22,36.2
		c2.4-0.9,3.4-1.3,4.5-1.7c1.9,2.9,1.1,5.7-0.9,7.5c-7.4,6.8-7.6,16.6-10.5,25.2c-1.9,5.5,0.3,10.3,7.2,11.6
		c1.6,0.3,3.3,0.6,4.5,1.4c1.6,0.4,3.2,1.1,4.9,2c5.1,2.8,10.3,5.4,15.3,8.2c15.7,6.6,30.9,13.1,47,19.9c-7.7,4-15.3,4.9-21.3,9.6
		c-6.7,5.2-10.5,10.8-4.7,19.2c7-7,6.9-7.2,23.1-12.9c6.6-2.3,16.1-1.5,9.3-13.3c4.4-0.1,6.8,1.3,7.7,4.8c1.3,5.5-1,9.7-5.1,12.7
		c-3.3,2.4-7.3,3.7-8,8.1c5.7,2.7,15-3.5,16.7,6.8c0.6,3.7-3,7.7-8.2,7.4c-0.6-1.5-1.1-2.7-1.7-4.2c-9.3,5.5-21,7.7-19.7,22.7
		c0.6,7.2-2,13.4-11.1,15.1c-7.9,1.5-11,7.8-11,15.6c0.1,18.7-0.1,37.4,0.4,56.1c0.2,6.4,1.8,12.6,5.5,17.6c0.8,0.6,1.6,1.3,2.5,1.9
		c5.1,3.6,19,9.6,24.9,5.6c0.1-0.1,0.2-0.1,0.4-0.2c10.7-7.1,18.8-15.8,24.4-28.7c8.6-19.9,25.8-34.3,39.5-50.9
		c5.7-6.9,14.8-11,18-19.6c9.3-24.7,16.1-29.9,42.7-30.9C592.1,461.9,597.7,454.7,594.2,448.8z"/>
	<path d="M426.7,126.4c0.5,9.4,0.2,18.3,1.7,26.8c2.3,12.8,5.4,25.4,9.3,38c3.7,11.9,4.5,24.7,6.9,37.1c0.4,2,0.4,3.4-0.3,4.4
		c0.1,0.6,0.2,1.2,0.3,1.7c0.1,1.9-0.1,3.7-0.6,5.4c0.5,1.3,0.6,2.7,0.4,4c0.6,1.5,1,3.5,1.7,5.9c2.1-20.8-2.1-39.5,7.7-56.1
		c-0.9,1.4-2.2,2.9-4.3,5.4c-5.3-33.5-10.4-65.6-15.6-98c-9.8,2.8-4.5,10-6.1,14.2"/>
	<path d="M474.4,281.3c1,0.6,1.9,1.1,3.4,2c-1,2.5-2,4.8-2.9,7.1c-8.7,3.2-12.4-0.4-12.5-8.9c-0.1-3.5-1.8-6-6.5-6.8
		c4.8-3.2,9.8,4.7,13-2.2c-2.2-3.5-5.7-6.8-3.4-13C469.7,266.8,473.2,273.3,474.4,281.3z"/>
	<path d="M427.9,438.2c-1.3,8.8,7.3,15.5,4.8,24.2c-3.7,1.2-5.1-1.6-7.5-2.4c-1.9,4.1-2.1,9.2-8.7,13.1c2.4-7.7,4.1-13.5,6.4-21
		c1.3,2.6,2,4.1,3.7,7.6C430.2,450.8,418.8,444.3,427.9,438.2z"/>
	<path d="M479,282.2c3.5-1.8,4.8-2.5,6.3-3.3c4.1,4,10.7,4.1,15.3,10.5C493.3,286.3,488.3,281.3,479,282.2z"/>
	<path d="M454.8,229c0.3-4.6,3.6-6,8.2-8.6C459.5,224.2,457.1,226.6,454.8,229z"/>
	<path d="M463.3,224.3c5.6-3,9.5-4.1,14.6-2.8C473.2,222.4,469.2,223.1,463.3,224.3z"/>
	<path d="M507.4,403.9c6.3-2.1,9.5-1.2,14.7,0C516.9,403.9,513.7,403.9,507.4,403.9z"/>
	<path d="M534.4,392.9c-4.1-1.1-8.2-1.7-12.5-1.5C526.3,390.1,530.5,390.4,534.4,392.9z"/>
	<path d="M455.1,210.7c0,3.1-0.8,4.7-3.1,6.2C451.7,213.9,453.2,212.8,455.1,210.7z"/>
</g>
</svg>
