<?xml version="1.0" encoding="utf-8"?>
<!-- Generator: Adobe Illustrator 27.0.0, SVG Export Plug-In . SVG Version: 6.00 Build 0)  -->
<svg version="1.1" id="LineSVG" xmlns="http://www.w3.org/2000/svg" xmlns:xlink="http://www.w3.org/1999/xlink" x="0px" y="0px"
	 viewBox="0 0 172.1 7.2" style="enable-background:new 0 0 172.1 7.2;" xml:space="preserve">
<path class="pinStroke" d="M172.2,4.3c-0.2,0.8-0.7,0.6-1.1,0.6C169.8,5,168.5,5,167.2,5c-5.9,0.2-11.8,0.3-17.7,0.5
	c-1.9,0.1-3.9,0-5.8,0.1c-7.6,0.1-15.3,0.3-22.9,0.4c-1.2,0-2.3-0.1-3.5-0.1c-2.6,0.1-5.2,0.3-7.9,0.4c-7.3,0.2-14.5,0.5-21.8,0.6
	C78.9,7,70.2,7.1,61.5,7.2c-6.7,0.1-13.3,0-20,0c-3.3,0-6.6,0.3-9.8-0.4c-0.6-0.1-1.2,0.1-1.8,0.2c-0.7,0.1-1.4,0.2-2.1,0.1
	c-1.6-0.3-3.1-0.2-4.6,0c-0.8,0.1-1.5,0.1-2.2,0.1c-0.2,0-0.5-0.2-0.8-0.3c0.5-0.6,1.1-0.4,1.5-0.4c5.4,0,10.9-0.1,16.3-0.1
	c5.1,0,10.2,0,15.4,0c9.7-0.1,19.4-0.1,29-0.3c10.5-0.2,20.9-0.5,31.4-0.8c1.4,0,2.7-0.1,4.1-0.1c2.6-0.1,5.1,0.3,7.7,0.2
	c4.4-0.3,8.7-0.3,13.1-0.3c6.8-0.1,13.5-0.2,20.3-0.3c3.9-0.1,7.9-0.2,11.8-0.3C171.2,4.2,171.7,4.3,172.2,4.3L172.2,4.3z"/>
<path class="pinStroke" d="M18.9,6.4L18.9,6.4c-0.4-1.9-0.8-2.2-2.7-1.8c-0.5,0.1-1,0.3-1.5,0.4C11.3,5.5,7.9,5.9,4.4,6.5
	C2.9,6.7,1.6,6.2,0,5.7c1.6-0.1,2.9-0.1,4.2-0.3c2.6-0.3,5.1-0.8,7.6-1.2c2.1-0.3,4.2-0.6,6.2-1c0.8-0.2,1.6-0.6,2.3-0.9
	C20.6,2.2,20.8,2,21,2c1.1,0,1.7-0.8,2.2-2c0,0.6,0.1,1,0,1.1c-0.4,0.5-0.8,1-1.3,1.4c-1.1,0.9-2.2,1.8-2.4,3.3
	C19.4,6.1,19.1,6.2,18.9,6.4L18.9,6.4z"/>
</svg>
