<?xml version="1.0" encoding="UTF-8"?>
<svg xmlns="http://www.w3.org/2000/svg" viewBox="0 0 60.88 60.93">
    <g class="whiteFillSVG">
        <path id="PhoneOutline" class="mailFillSVG" d="M48.15,37.83c-1.2-1.3-2.8-2-4.3-2s-3.1,.7-4.4,2l-4.1,4c-.3-.2-.7-.3-1-.5-.5-.2-.9-.5-1.3-.7-3.8-2.4-7.3-5.6-10.6-9.6-1.6-2-2.7-3.7-3.5-5.5,1-1,2-2,3-2.9,.4-.4,.7-.7,1.1-1.1,2.7-2.7,2.7-6.2,0-8.9l-3.5-3.5c-.4-.4-.8-.8-1.2-1.2-.8-.8-1.6-1.6-2.4-2.4-1.2-1.2-2.7-1.9-4.3-1.9s-3.1,.7-4.4,1.9h0L2.85,9.93C1.25,11.53,.25,13.53,.05,15.93c-.3,3.8,.8,7.3,1.6,9.5,2.1,5.6,5.2,10.8,9.8,16.4,5.6,6.7,12.4,12,20.1,15.8,3,1.4,6.9,3.1,11.3,3.3h.8c3,0,5.5-1.1,7.4-3.2v-.1c.7-.8,1.4-1.5,2.2-2.3,.5-.5,1.1-1.1,1.7-1.7,1.3-1.3,1.9-2.9,1.9-4.5s-.7-3.1-2-4.4l-6.7-6.9h0Zm4.6,13.5h0c-.5,.5-1,1-1.6,1.6-.8,.8-1.7,1.6-2.5,2.6-1.3,1.4-2.8,2-4.8,2h-.6c-3.8-.2-7.4-1.7-10-3-7.3-3.5-13.7-8.5-19-14.9-4.4-5.3-7.3-10.2-9.2-15.4-1.2-3.2-1.6-5.7-1.4-8,.1-1.5,.7-2.8,1.8-3.8l4.4-4.4c.6-.6,1.3-.9,2-.9,.8,0,1.5,.5,1.9,.9h0c.8,.7,1.5,1.5,2.3,2.3,.4,.4,.8,.8,1.2,1.2l3.5,3.5c1.4,1.4,1.4,2.6,0,4-.4,.4-.7,.8-1.1,1.1-1.1,1.1-2.1,2.1-3.2,3.1l-.1,.1c-1.1,1.1-.9,2.2-.7,2.9v.1c.9,2.2,2.2,4.3,4.1,6.8h0c3.5,4.4,7.3,7.8,11.4,10.4,.5,.3,1.1,.6,1.6,.9,.5,.2,.9,.5,1.3,.7l.1,.1c.4,.2,.9,.3,1.3,.3,1.1,0,1.7-.7,2-.9l4.4-4.4c.4-.4,1.1-1,1.9-1s1.5,.5,1.9,.9h0l7.1,7.1c1.3,1.4,1.3,2.8,0,4.1h0Z"/>
        <path id="InnerSignal" d="M32.85,14.63c3.4,.6,6.4,2.2,8.9,4.6s4,5.5,4.6,8.9c.1,.8,.9,1.4,1.7,1.4h.3c1-.2,1.6-1,1.4-2-.7-4.1-2.6-7.8-5.6-10.7s-6.7-4.9-10.7-5.6c-1-.1-1.8,.5-2,1.4s.5,1.8,1.4,2h0Z"/>
        <path id="OuterSignal" d="M60.85,26.93c-1.1-6.7-4.3-12.8-9.2-17.7C46.75,4.33,40.65,1.23,33.95,.03c-.9-.2-1.8,.5-2,1.4-.1,1,.5,1.8,1.4,2,6,1,11.5,3.9,15.8,8.2,4.3,4.3,7.2,9.8,8.2,15.8,.1,.8,.9,1.4,1.7,1.4h.3c1,0,1.7-.9,1.5-1.9h0Z"/>
    </g>
</svg>