<?xml version="1.0" encoding="UTF-8"?>
<svg xmlns="http://www.w3.org/2000/svg" viewBox="0 0 42.6 60.4">
    <g>
        <path id="OuterPin" class="whiteFillSVG pinFillSVG" d="M21.3,0C9.5,0,0,9.6,0,21.3c0,14.3,19.6,37.7,20.4,38.7,.2,.3,.6,.4,.9,.4h0c.4,0,.7-.2,.9-.4,.8-1,20.4-24,20.4-38.7C42.6,9.6,33,0,21.3,0h0Zm0,57.3C17.4,52.4,2.4,33.1,2.4,21.3,2.4,10.9,10.9,2.4,21.3,2.4s18.9,8.5,18.9,18.9c-.1,12.1-15,31.2-18.9,36h0Z"/>
        <path id="InnerPin" class="whiteFillSVG pinFillSVG" d="M21.3,11.9c-5,0-9.1,4.1-9.1,9.1s4.1,9.1,9.1,9.1,9.1-4.1,9.1-9.1-4.1-9.1-9.1-9.1Zm0,15.7c-3.6,0-6.6-3-6.6-6.6s3-6.6,6.6-6.6,6.6,3,6.6,6.6-3,6.6-6.6,6.6Z"/>
    </g>
</svg>